<?xml version="1.0" encoding="UTF-8"?>
<!-- This file is generated by npm run build:icons -->
<svg xmlns="http://www.w3.org/2000/svg" xmlns:xlink="http://www.w3.org/1999/xlink" width="0" height="0">
<defs>
<symbol id="account" x="0px" y="0px" viewBox="0 0 24 24" style="enable-background:new 0 0 24 24;" xml:space="preserve">
<path d="M12,22.2C12,22.2,12,22.2,12,22.2c-2.5,0-4.9-0.9-6.8-2.6c0,0,0,0,0,0c-1.6-1.4-2.6-3.2-3.1-5.2c-0.5-2-0.4-4.1,0.4-6.1
	c0.7-2,2-3.6,3.8-4.8C7.9,2.4,9.9,1.8,12,1.8c2.1,0,4.1,0.6,5.8,1.8c1.7,1.2,3,2.8,3.8,4.8c0.7,2,0.9,4.1,0.4,6.1
	c-0.5,2-1.6,3.8-3.1,5.2c0,0,0,0,0,0C16.9,21.3,14.5,22.2,12,22.2z M12,19.8C12,19.8,12,19.8,12,19.8c1.5,0,2.9-0.4,4.1-1.2
	c-0.4-0.4-0.9-0.7-1.3-0.9C13.9,17.2,13,17,12,17c0,0,0,0,0,0c-1,0-1.9,0.2-2.8,0.7c-0.5,0.2-0.9,0.5-1.3,0.9
	C9.1,19.3,10.5,19.8,12,19.8C12,19.8,12,19.8,12,19.8z M12,4.2c-1.6,0-3.1,0.5-4.4,1.4C6.3,6.5,5.3,7.8,4.8,9.2
	c-0.6,1.5-0.7,3.1-0.3,4.6C4.7,15,5.3,16,6,16.9c0.6-0.6,1.3-1.1,2.1-1.5c1.2-0.6,2.5-0.9,3.9-0.9c0,0,0,0,0,0
	c1.3,0,2.7,0.3,3.9,0.9c0.8,0.4,1.5,0.9,2.1,1.5c0.7-0.9,1.2-1.9,1.5-3c0.4-1.5,0.3-3.1-0.3-4.6c-0.6-1.5-1.5-2.7-2.8-3.6
	C15.1,4.7,13.6,4.2,12,4.2z M12,14c-1.1,0-2.2-0.4-3-1.2c-0.8-0.8-1.2-1.9-1.2-3c0-1.1,0.4-2.2,1.2-3c0.8-0.8,1.9-1.2,3-1.2
	c1.1,0,2.2,0.4,3,1.2c0.8,0.8,1.2,1.9,1.2,3s-0.4,2.2-1.2,3C14.2,13.6,13.1,14,12,14z M12,8c-0.5,0-0.9,0.2-1.2,0.5
	c-0.3,0.3-0.5,0.8-0.5,1.2s0.2,0.9,0.5,1.2c0.7,0.7,1.8,0.7,2.5,0c0.3-0.3,0.5-0.8,0.5-1.2c0-0.5-0.2-0.9-0.5-1.2
	C12.9,8.2,12.5,8,12,8z"></path>
</symbol>
<symbol id="admin" x="0px" y="0px" viewBox="0 0 24 25" style="enable-background:new 0 0 24 25;" xml:space="preserve">
<path d="M12,23.1c-0.1,0-0.2,0-0.3,0c-5.9-1.5-9.9-6.8-9.9-12.8c0-1.4,0.2-2.8,0.7-4.1c0.2-0.5,0.7-0.9,1.2-0.9
	c2.8,0.1,5.5-1,7.5-2.9c0.5-0.5,1.2-0.5,1.7,0c2,1.9,4.6,2.9,7.4,2.9h0.2c0.5,0,1,0.3,1.2,0.9c0.4,1.3,0.7,2.7,0.7,4.1
	c0,6-4.1,11.3-9.9,12.8C12.2,23.1,12.1,23.1,12,23.1z M4.5,7.7c-0.2,0.8-0.3,1.7-0.3,2.5c0,4.8,3.2,9,7.8,10.3
	c4.6-1.3,7.8-5.5,7.8-10.3c0-0.9-0.1-1.7-0.3-2.5c-2.7-0.2-5.3-1.2-7.5-2.9C9.9,6.6,7.3,7.6,4.5,7.7z M11.2,16.8
	c-0.3,0-0.6-0.1-0.9-0.4l-2.2-2.2c-0.5-0.5-0.5-1.3,0-1.8s1.3-0.5,1.8,0l1.2,1.2l2.9-4c0.4-0.6,1.2-0.7,1.7-0.3
	c0.6,0.4,0.7,1.2,0.3,1.7l-3.8,5.2c-0.2,0.3-0.5,0.5-0.9,0.5C11.3,16.7,11.3,16.8,11.2,16.8z"></path>
</symbol>
<symbol viewBox="0 0 24 24" id="bookmarks">
<path fill-rule="evenodd" clip-rule="evenodd" d="M6.52248 4.31537C10.1619 3.89293 13.838 3.89292 17.4774 4.31536ZM17.4777 4.31539C18.0492 4.38203 18.5 4.88195 18.5 5.50706V19.382L12.4472 16.3556C12.1657 16.2149 11.8343 16.2149 11.5528 16.3556L5.5 19.382V5.50706C5.5 4.88152 5.95025 4.38199 6.5223 4.31539M6.2917 2.32873C10.0845 1.88847 13.9155 1.88847 17.7083 2.32873L17.7086 2.32876C19.337 2.51825 20.5 3.91627 20.5 5.50706V21.0001C20.5 21.3466 20.3205 21.6685 20.0257 21.8507C19.7309 22.0329 19.3628 22.0495 19.0528 21.8945L12 18.3681L4.94721 21.8945C4.63723 22.0495 4.26909 22.0329 3.97427 21.8507C3.67945 21.6685 3.5 21.3466 3.5 21.0001V5.50706C3.5 3.91666 4.66166 2.51823 6.29152 2.32875L6.2917 2.32873Z"></path>
</symbol>
<symbol viewBox="0 0 24 24" id="bookmarksFilled">
<path d="M17.593 3.32206C18.693 3.45006 19.5 4.39906 19.5 5.50706V21.0001L12 17.2501L4.5 21.0001V5.50706C4.5 4.39906 5.306 3.45006 6.407 3.32206C10.1232 2.89069 13.8768 2.89069 17.593 3.32206Z" stroke="#5465FF" stroke-width="2" stroke-linecap="round" stroke-linejoin="round"></path>
</symbol>
<symbol viewBox="0 0 24 24" id="chevronDown">
<path fill-rule="evenodd" clip-rule="evenodd" d="M3.11612 7.11612C3.60427 6.62796 4.39573 6.62796 4.88388 7.11612L11.5 13.7322L18.1161 7.11612C18.6043 6.62796 19.3957 6.62796 19.8839 7.11612C20.372 7.60427 20.372 8.39573 19.8839 8.88388L12.3839 16.3839C11.8957 16.872 11.1043 16.872 10.6161 16.3839L3.11612 8.88388C2.62796 8.39573 2.62796 7.60427 3.11612 7.11612Z"></path>
</symbol>
<symbol viewBox="0 0 24 24" id="close">
<path fill-rule="evenodd" clip-rule="evenodd" d="M5.46967 5.46967C5.76256 5.17678 6.23744 5.17678 6.53033 5.46967L12 10.9393L17.4697 5.46967C17.7626 5.17678 18.2374 5.17678 18.5303 5.46967C18.8232 5.76256 18.8232 6.23744 18.5303 6.53033L13.0607 12L18.5303 17.4697C18.8232 17.7626 18.8232 18.2374 18.5303 18.5303C18.2374 18.8232 17.7626 18.8232 17.4697 18.5303L12 13.0607L6.53033 18.5303C6.23744 18.8232 5.76256 18.8232 5.46967 18.5303C5.17678 18.2374 5.17678 17.7626 5.46967 17.4697L10.9393 12L5.46967 6.53033C5.17678 6.23744 5.17678 5.76256 5.46967 5.46967Z"></path>
</symbol>
<symbol id="copy" x="0px" y="0px" viewBox="0 0 24 24" style="enable-background:new 0 0 24 24;" xml:space="preserve">
<path d="M17.2,23H6.8c-0.9,0-1.8-0.4-2.5-1c-0.7-0.7-1-1.5-1-2.5V6.3c0-1.8,1.3-3.2,3-3.4c0.4,0,0.8-0.1,1.2-0.1
	c0.6-1,1.8-1.7,3-1.7h3c0.8,0,1.5,0.3,2.1,0.7c0.4,0.3,0.7,0.6,0.9,1c0.4,0,0.8,0.1,1.2,0.1c1.7,0.2,3,1.7,3,3.4v13.2
	c0,0.9-0.4,1.8-1,2.5S18.2,23,17.2,23z M7.1,5.2c-0.2,0-0.4,0-0.6,0.1C6.1,5.4,5.8,5.8,5.8,6.3v13.2c0,0.3,0.1,0.5,0.3,0.7
	c0.2,0.2,0.4,0.3,0.7,0.3h10.5c0.3,0,0.5-0.1,0.7-0.3s0.3-0.4,0.3-0.7V6.3c0-0.5-0.3-0.9-0.8-0.9c-0.2,0-0.4,0-0.6-0.1
	c-0.1,0.2-0.2,0.5-0.4,0.7C16,6.3,15.5,6.5,15,6.5H9c-0.5,0-1-0.2-1.4-0.6C7.4,5.7,7.2,5.5,7.1,5.2z M9.6,4h4.7
	c-0.1-0.1-0.2-0.2-0.3-0.3c-0.2-0.1-0.4-0.2-0.6-0.2h-3C10.1,3.5,9.8,3.7,9.6,4z"></path>
</symbol>
<symbol viewBox="0 0 24 24" id="dashboard">
<path fill-rule="evenodd" clip-rule="evenodd" d="M11.7495 4.30152L5.5 10.5517V20.0343H8.25V16.4093C8.25 15.0979 9.31364 14.0343 10.625 14.0343H12.875C14.1864 14.0343 15.25 15.0979 15.25 16.4093V20.0343H18V10.552L11.7495 4.30152ZM20.5 13.052L20.6161 13.1681C21.1043 13.6563 21.8957 13.6563 22.3839 13.1681C22.872 12.68 22.872 11.8885 22.3839 11.4004L13.4289 2.44537C12.5012 1.51766 10.9985 1.5191 10.0711 2.44436L1.11607 11.4004C0.627939 11.8886 0.627983 12.6801 1.11617 13.1682C1.60435 13.6563 2.3958 13.6563 2.88393 13.1681L3 13.052V20.1593C3 21.4706 4.06364 22.5343 5.375 22.5343H18.125C19.4364 22.5343 20.5 21.4706 20.5 20.1593V13.052ZM12.75 20.0343H10.75V16.5343H12.75V20.0343Z"></path>
</symbol>
<symbol viewBox="0 0 24 24" id="edit">
<path fill-rule="evenodd" clip-rule="evenodd" d="M19.875 2.99951C19.5766 2.99951 19.2904 3.11806 19.0793 3.32909L17.9225 4.4866L19.5135 6.0776L20.6707 4.92043C20.8817 4.7094 21.0003 4.42319 21.0003 4.12476C21.0003 3.82633 20.8817 3.54011 20.6707 3.32909C20.4597 3.11806 20.1735 2.99951 19.875 2.99951ZM18.4529 7.13826L16.8625 5.54788L4.7105 17.6979C4.2703 18.1385 3.94654 18.6819 3.76884 19.2788L3.36473 20.635L4.72086 20.231C5.31776 20.0533 5.86115 19.7297 6.30169 19.2894C6.30174 19.2894 6.30164 19.2895 6.30169 19.2894L18.4529 7.13826ZM16.309 3.98013C16.3163 3.97216 16.3238 3.96431 16.3315 3.95659L18.0185 2.26859C18.5109 1.77626 19.1788 1.49951 19.875 1.49951C20.5713 1.49951 21.239 1.7761 21.7313 2.26843C22.2237 2.76076 22.5003 3.4285 22.5003 4.12476C22.5003 4.82102 22.2237 5.48876 21.7313 5.98109L7.36235 20.3501C6.74556 20.9665 5.98479 21.4198 5.14903 21.6686L2.46418 22.4685C2.20024 22.5472 1.91443 22.4748 1.71969 22.2801C1.52495 22.0853 1.4526 21.7995 1.53125 21.5356L2.3312 18.8508C2.58002 18.015 3.03311 17.2544 3.64953 16.6376L16.309 3.98013Z"></path>
</symbol>
<symbol viewBox="0 0 24 24" id="events">
<path fill-rule="evenodd" clip-rule="evenodd" d="M6.75 1.75C7.44036 1.75 8 2.30964 8 3V4H16V3C16 2.30964 16.5596 1.75 17.25 1.75C17.9404 1.75 18.5 2.30964 18.5 3V4H18.75C19.6783 4 20.5685 4.36875 21.2249 5.02513C21.8813 5.6815 22.25 6.57174 22.25 7.5V18.75C22.25 19.6783 21.8813 20.5685 21.2249 21.2249C20.5685 21.8813 19.6783 22.25 18.75 22.25H5.25C4.32174 22.25 3.4315 21.8813 2.77513 21.2249C2.11875 20.5685 1.75 19.6783 1.75 18.75V7.5C1.75 6.57174 2.11875 5.6815 2.77513 5.02513C3.4315 4.36875 4.32174 4 5.25 4H5.5V3C5.5 2.30964 6.05964 1.75 6.75 1.75ZM5.25 6.5C4.98478 6.5 4.73043 6.60536 4.54289 6.79289C4.35536 6.98043 4.25 7.23478 4.25 7.5V7.89589C4.57167 7.79998 4.90826 7.75 5.25 7.75H18.75C19.0917 7.75 19.4283 7.79998 19.75 7.89589V7.5C19.75 7.23478 19.6446 6.98043 19.4571 6.79289C19.2696 6.60536 19.0152 6.5 18.75 6.5H5.25ZM19.75 11.25C19.75 10.9848 19.6446 10.7304 19.4571 10.5429C19.2696 10.3554 19.0152 10.25 18.75 10.25H5.25C4.98478 10.25 4.73043 10.3554 4.54289 10.5429C4.35536 10.7304 4.25 10.9848 4.25 11.25V18.75C4.25 19.0152 4.35536 19.2696 4.54289 19.4571C4.73043 19.6446 4.98478 19.75 5.25 19.75H18.75C19.0152 19.75 19.2696 19.6446 19.4571 19.4571C19.6446 19.2696 19.75 19.0152 19.75 18.75V11.25Z"></path>
</symbol>
<symbol id="flag" x="0px" y="0px" viewBox="0 0 24 24" style="enable-background:new 0 0 24 24;" xml:space="preserve">
<path d="M3,22c-0.6,0-1-0.4-1-1v-6c0,0,0,0,0,0V4.5c0,0,0,0,0,0V3c0-0.6,0.4-1,1-1s1,0.4,1,1v0.2l1.5-0.4c2.3-0.6,4.8-0.3,6.9,0.8
	l0.1,0.1c1.7,0.8,3.6,1.1,5.4,0.6l3.1-0.7c0.3-0.1,0.6,0,0.9,0.2c0.2,0.2,0.4,0.5,0.3,0.9c-0.4,3.4-0.4,6.9,0,10.3
	c0.1,0.5-0.3,1-0.8,1.1l-3.1,0.7c-2.3,0.5-4.7,0.3-6.8-0.8l-0.1-0.1C9.8,15,7.9,14.8,6,15.3l-2,0.5V21C4,21.6,3.6,22,3,22z M7.9,13
	c1.5,0,3.1,0.4,4.5,1.1l0.1,0.1c1.7,0.8,3.6,1.1,5.4,0.6l2.3-0.5c-0.3-2.8-0.3-5.6,0-8.4l-1.8,0.4c-2.3,0.5-4.7,0.3-6.8-0.8
	l-0.1-0.1C9.8,4.5,7.9,4.3,6,4.8L4,5.3v8.4l1.5-0.4C6.3,13.1,7.1,13,7.9,13z"></path>
</symbol>
<symbol viewBox="0 0 24 24" id="follow">
<path fill-rule="evenodd" clip-rule="evenodd" d="M9.375 3.75C8.67881 3.75 8.01113 4.02656 7.51884 4.51884C7.02656 5.01113 6.75 5.67881 6.75 6.375C6.75 7.07119 7.02656 7.73887 7.51884 8.23115C8.01113 8.72344 8.67881 9 9.375 9C10.0712 9 10.7389 8.72344 11.2312 8.23115C11.7234 7.73887 12 7.07119 12 6.375C12 5.67881 11.7234 5.01113 11.2312 4.51884C10.7389 4.02656 10.0712 3.75 9.375 3.75ZM6.45818 3.45818C7.23177 2.6846 8.28098 2.25 9.375 2.25C10.469 2.25 11.5182 2.6846 12.2918 3.45818C13.0654 4.23177 13.5 5.28098 13.5 6.375C13.5 7.46902 13.0654 8.51823 12.2918 9.29182C11.5182 10.0654 10.469 10.5 9.375 10.5C8.28098 10.5 7.23177 10.0654 6.45818 9.29182C5.6846 8.51823 5.25 7.46902 5.25 6.375C5.25 5.28098 5.6846 4.23177 6.45818 3.45818ZM18 6.75C18.4142 6.75 18.75 7.08579 18.75 7.5V9.75H21C21.4142 9.75 21.75 10.0858 21.75 10.5C21.75 10.9142 21.4142 11.25 21 11.25H18.75V13.5C18.75 13.9142 18.4142 14.25 18 14.25C17.5858 14.25 17.25 13.9142 17.25 13.5V11.25H15C14.5858 11.25 14.25 10.9142 14.25 10.5C14.25 10.0858 14.5858 9.75 15 9.75H17.25V7.5C17.25 7.08579 17.5858 6.75 18 6.75ZM9.375 13.5C7.88316 13.5 6.45242 14.0926 5.39752 15.1475C4.41801 16.127 3.83705 17.4306 3.75903 18.8063C5.42329 19.7261 7.33679 20.25 9.374 20.25L9.37527 20.25C11.3417 20.2533 13.2741 19.7553 14.991 18.8063C14.913 17.4306 14.332 16.1271 13.3525 15.1475C12.2976 14.0926 10.8668 13.5 9.375 13.5ZM2.64795 19.8974C2.41118 19.7713 2.25 19.522 2.25 19.235V19.125C2.25 17.2353 3.00067 15.4231 4.33686 14.0869C5.67306 12.7507 7.48533 12 9.375 12C11.2647 12 13.0769 12.7507 14.4131 14.0869C15.7493 15.4231 16.5 17.2353 16.5 19.125V19.234C16.5 19.497 16.3622 19.7408 16.1369 19.8765C14.0956 21.1059 11.757 21.7538 9.374 21.75M2.64795 19.8974C4.61557 21.0737 6.91756 21.7499 9.374 21.75Z"></path>
</symbol>
<symbol id="hide" x="0px" y="0px" viewBox="0 0 24 24" style="enable-background:new 0 0 24 24;" xml:space="preserve">
<path d="M21,22.2c-0.3,0-0.6-0.1-0.9-0.4l-3.2-3.2c0,0,0,0,0,0L13.2,15c0,0,0,0,0,0L9,10.8c0,0,0,0,0,0L5.4,7.1c0,0,0,0,0,0L2.1,3.9
	c-0.5-0.5-0.5-1.3,0-1.8s1.3-0.5,1.8,0l2.5,2.5C8.1,3.7,10,3.2,12,3.2c0,0,0,0,0,0c5.2,0,9.8,3.5,11.3,8.4c0.1,0.2,0.1,0.5,0,0.7
	c-0.6,2.2-1.9,4.1-3.6,5.5l2.2,2.2c0.5,0.5,0.5,1.3,0,1.8C21.6,22.1,21.3,22.2,21,22.2z M15.8,14l2.1,2.1c1.3-1.1,2.3-2.5,2.9-4.1
	c-1.3-3.7-4.8-6.2-8.8-6.2c0,0,0,0,0,0c-1.3,0-2.5,0.3-3.7,0.8L10,8.2c0.1-0.1,0.2-0.1,0.4-0.2c1-0.4,2.2-0.4,3.3,0
	c0.5,0.2,1,0.5,1.4,0.9c0.4,0.4,0.7,0.9,0.9,1.4c0.2,0.5,0.3,1.1,0.3,1.6s-0.1,1.1-0.3,1.6C15.9,13.8,15.8,13.9,15.8,14z M12,10.3
	l1.7,1.7c0-0.2,0-0.4-0.1-0.7c-0.1-0.2-0.2-0.4-0.4-0.6c-0.2-0.2-0.4-0.3-0.6-0.4C12.5,10.3,12.2,10.3,12,10.3z M12,20.8
	c-5.2,0-9.8-3.5-11.3-8.4c-0.1-0.2-0.1-0.5,0-0.7C1.2,10.1,2,8.7,3,7.4c0.4-0.5,1.2-0.6,1.8-0.1C5.3,7.7,5.4,8.5,4.9,9
	c-0.7,0.9-1.3,1.9-1.7,3c1.3,3.7,4.8,6.2,8.8,6.2c0.9,0,1.7-0.1,2.5-0.3c0.7-0.2,1.4,0.2,1.5,0.9c0.2,0.7-0.2,1.4-0.9,1.5
	C14.2,20.6,13.1,20.8,12,20.8z"></path>
</symbol>
<symbol viewBox="0 0 24 24" id="image">
<path fill-rule="evenodd" clip-rule="evenodd" d="M1.98223 4.23223C2.45107 3.76339 3.08696 3.5 3.75 3.5H20.25C20.913 3.5 21.5489 3.76339 22.0178 4.23223C22.4866 4.70107 22.75 5.33696 22.75 6V15.749C22.75 15.7497 22.75 15.7503 22.75 15.751V18C22.75 18.663 22.4866 19.2989 22.0178 19.7678C21.5489 20.2366 20.913 20.5 20.25 20.5H3.75C3.08696 20.5 2.45107 20.2366 1.98223 19.7678C1.51339 19.2989 1.25 18.663 1.25 18V6C1.25 5.33696 1.51339 4.70107 1.98223 4.23223ZM3.25 16.1642V18C3.25 18.1326 3.30268 18.2598 3.39645 18.3536C3.49022 18.4473 3.61739 18.5 3.75 18.5H20.25C20.3826 18.5 20.5098 18.4473 20.6036 18.3536C20.6973 18.2598 20.75 18.1326 20.75 18V16.1642L18.1339 13.5481C18.0178 13.432 17.88 13.34 17.7284 13.2771C17.5767 13.2143 17.4142 13.182 17.25 13.182C17.0858 13.182 16.9233 13.2143 16.7716 13.2771C16.62 13.34 16.4822 13.432 16.3661 13.5481L15.6642 14.25L16.4571 15.0429C16.8476 15.4334 16.8476 16.0666 16.4571 16.4571C16.0666 16.8476 15.4334 16.8476 15.0429 16.4571L9.88389 11.2981C9.76782 11.182 9.63002 11.09 9.47836 11.0271C9.3267 10.9643 9.16415 10.932 9 10.932C8.83585 10.932 8.6733 10.9643 8.52164 11.0271C8.36998 11.09 8.23218 11.182 8.11611 11.2981L3.25 16.1642ZM14.25 12.8358L14.9519 12.1339C15.2537 11.8321 15.612 11.5927 16.0063 11.4294C16.4006 11.266 16.8232 11.182 17.25 11.182C17.6768 11.182 18.0994 11.266 18.4937 11.4294C18.888 11.5927 19.2463 11.8321 19.5481 12.1339L20.75 13.3358V6C20.75 5.86739 20.6973 5.74022 20.6036 5.64645C20.5098 5.55268 20.3826 5.5 20.25 5.5H3.75C3.61739 5.5 3.49021 5.55268 3.39645 5.64645C3.30268 5.74021 3.25 5.86739 3.25 6V13.3358L6.70189 9.8839C6.70189 9.8839 6.70189 9.8839 6.70189 9.8839C7.00368 9.5821 7.36196 9.3427 7.75627 9.17938C8.15058 9.01605 8.5732 8.93198 9 8.93198C9.4268 8.93198 9.84942 9.01605 10.2437 9.17938C10.638 9.34271 10.9963 9.5821 11.2981 9.8839L14.25 12.8358ZM13.2777 7.27773C13.5356 7.01987 13.8853 6.875 14.25 6.875C14.6147 6.875 14.9644 7.01987 15.2223 7.27773C15.4801 7.53559 15.625 7.88533 15.625 8.25C15.625 8.61467 15.4801 8.96441 15.2223 9.22227C14.9644 9.48014 14.6147 9.625 14.25 9.625C13.8853 9.625 13.5356 9.48014 13.2777 9.22227C13.0199 8.96441 12.875 8.61467 12.875 8.25C12.875 7.88533 13.0199 7.53559 13.2777 7.27773Z"></path>
</symbol>
<symbol viewBox="0 0 24 24" id="leftArrow">
<path fill-rule="evenodd" clip-rule="evenodd" d="M11.2071 4.29289C11.5976 4.68342 11.5976 5.31658 11.2071 5.70711L5.41421 11.5H21C21.5523 11.5 22 11.9477 22 12.5C22 13.0523 21.5523 13.5 21 13.5H5.41421L11.2071 19.2929C11.5976 19.6834 11.5976 20.3166 11.2071 20.7071C10.8166 21.0976 10.1834 21.0976 9.79289 20.7071L2.29289 13.2071C1.90237 12.8166 1.90237 12.1834 2.29289 11.7929L9.79289 4.29289C10.1834 3.90237 10.8166 3.90237 11.2071 4.29289Z"></path>
</symbol>
<symbol id="like" x="0px" y="0px" viewBox="0 0 24 24" style="enable-background:new 0 0 24 24;" xml:space="preserve">
<path d="M12,21.2c-0.2,0-0.3,0-0.5-0.1C11.1,20.9,2,16,2,8.2c0-3,2.6-5.5,5.7-5.5c1.7,0,3.3,0.7,4.3,1.9c1.1-1.2,2.6-1.9,4.3-1.9
	c3.1,0,5.7,2.5,5.7,5.5c0,7.7-9.1,12.7-9.5,12.9C12.3,21.2,12.2,21.2,12,21.2z M7.7,4.8C5.7,4.8,4,6.3,4,8.2c0,5.6,6.2,9.8,8,10.8
	c1.8-1.1,8-5.2,8-10.8c0-1.9-1.7-3.5-3.7-3.5c-1.5,0-2.8,0.8-3.4,2.1c-0.2,0.4-0.5,0.6-0.9,0.6s-0.8-0.2-0.9-0.6
	C10.5,5.6,9.2,4.8,7.7,4.8z"></path>
</symbol>
<symbol id="likeFilled" x="0px" y="0px" viewBox="0 0 24 24" style="enable-background:new 0 0 24 24;" xml:space="preserve">
<path d="M12,21.2c-0.2,0-0.3,0-0.5-0.1C11.1,20.9,2,16,2,8.2c0-3,2.6-5.5,5.7-5.5c1.7,0,3.3,0.7,4.3,1.9c1.1-1.2,2.6-1.9,4.3-1.9
	c3.1,0,5.7,2.5,5.7,5.5c0,7.7-9.1,12.7-9.5,12.9C12.3,21.2,12.2,21.2,12,21.2z"></path>
</symbol>
<symbol viewBox="0 0 24 24" id="link">
<path fill-rule="evenodd" clip-rule="evenodd" d="M13.3609 2.86092C14.3924 1.82947 15.7913 1.25 17.25 1.25C18.7087 1.25 20.1077 1.82947 21.1391 2.86092C22.1706 3.89238 22.7501 5.29133 22.7501 6.75003C22.7501 8.20873 22.1706 9.60768 21.1391 10.6391L19.3821 12.3961C18.9916 12.7867 18.3584 12.7867 17.9679 12.3961C17.5774 12.0056 17.5774 11.3724 17.9679 10.9819L19.7249 9.22492C20.3813 8.56854 20.7501 7.67829 20.7501 6.75003C20.7501 5.82176 20.3813 4.93152 19.7249 4.27513C19.0685 3.61875 18.1783 3.25 17.25 3.25C16.3218 3.25 15.4315 3.61875 14.7751 4.27513L10.2751 8.77513L10.2749 8.77538C9.87871 9.17128 9.58333 9.65646 9.41356 10.1902C9.24378 10.7239 9.20457 11.2906 9.29922 11.8426C9.39386 12.3946 9.6196 12.9158 9.95747 13.3625C10.2953 13.8092 10.7355 14.1683 11.2409 14.4096C11.7393 14.6476 11.9504 15.2445 11.7124 15.7429C11.4745 16.2413 10.8776 16.4524 10.3792 16.2144C9.58494 15.8352 8.89331 15.271 8.36237 14.569C7.83144 13.8671 7.47671 13.048 7.32798 12.1806C7.17925 11.3131 7.24087 10.4226 7.50766 9.58392C7.77445 8.74522 8.23862 7.98278 8.86117 7.36067L13.3609 2.86092ZM12.2876 8.25717C12.5256 7.75878 13.1225 7.54765 13.6209 7.78561C14.4151 8.16481 15.1067 8.72908 15.6377 9.43101C16.1686 10.1329 16.5233 10.952 16.6721 11.8195C16.8208 12.687 16.7592 13.5774 16.4924 14.4161C16.2256 15.2548 15.7614 16.0173 15.1389 16.6394L10.6391 21.1391C9.60768 22.1706 8.20873 22.7501 6.75003 22.7501C5.29133 22.7501 3.89238 22.1706 2.86092 21.1391C1.82947 20.1077 1.25 18.7087 1.25 17.25C1.25 15.7913 1.82947 14.3924 2.86092 13.3609L4.61792 11.6039C5.00844 11.2134 5.64161 11.2134 6.03213 11.6039C6.42266 11.9944 6.42266 12.6276 6.03213 13.0181L4.27513 14.7751C3.61875 15.4315 3.25 16.3218 3.25 17.25C3.25 18.1783 3.61875 19.0685 4.27513 19.7249C4.93152 20.3813 5.82176 20.7501 6.75003 20.7501C7.67829 20.7501 8.56854 20.3813 9.22492 19.7249L13.7249 15.2249L13.7252 15.2247C14.1213 14.8288 14.4167 14.3436 14.5865 13.8099C14.7563 13.2762 14.7955 12.7095 14.7008 12.1575C14.6062 11.6054 14.3805 11.0842 14.0426 10.6375C13.7047 10.1908 13.2646 9.83176 12.7592 9.59045C12.2608 9.35249 12.0497 8.75556 12.2876 8.25717Z"></path>
</symbol>
<symbol viewBox="0 0 24 24" id="location">
<path fill-rule="evenodd" clip-rule="evenodd" d="M12 8.5C11.4696 8.5 10.9609 8.71071 10.5858 9.08579C10.2107 9.46086 10 9.96957 10 10.5C10 11.0304 10.2107 11.5391 10.5858 11.9142C10.9609 12.2893 11.4696 12.5 12 12.5C12.5304 12.5 13.0391 12.2893 13.4142 11.9142C13.7893 11.5391 14 11.0304 14 10.5C14 9.96957 13.7893 9.46086 13.4142 9.08579C13.0391 8.71071 12.5304 8.5 12 8.5ZM9.17157 7.67157C9.92172 6.92143 10.9391 6.5 12 6.5C13.0609 6.5 14.0783 6.92143 14.8284 7.67157C15.5786 8.42172 16 9.43913 16 10.5C16 11.5609 15.5786 12.5783 14.8284 13.3284C14.0783 14.0786 13.0609 14.5 12 14.5C10.9391 14.5 9.92172 14.0786 9.17157 13.3284C8.42143 12.5783 8 11.5609 8 10.5C8 9.43913 8.42143 8.42172 9.17157 7.67157Z"></path>
<path fill-rule="evenodd" clip-rule="evenodd" d="M12 4C10.2761 4 8.62279 4.68482 7.40381 5.90381C6.18482 7.12279 5.5 8.77609 5.5 10.5C5.5 13.7042 7.18257 16.2792 8.9654 18.1045C9.8505 19.0108 10.7385 19.7088 11.4051 20.1798C11.6336 20.3412 11.8349 20.4751 12 20.581C12.1651 20.4751 12.3664 20.3412 12.5949 20.1798C13.2615 19.7088 14.1495 19.0108 15.0346 18.1045C16.8174 16.2792 18.5 13.7042 18.5 10.5C18.5 8.77609 17.8152 7.12279 16.5962 5.90381C15.3772 4.68482 13.7239 4 12 4ZM12 21.75C11.5196 22.6271 11.5193 22.6269 11.5189 22.6267L11.5157 22.6249L11.5091 22.6213L11.4878 22.6094C11.4701 22.5994 11.4455 22.5854 11.4144 22.5674C11.3522 22.5313 11.2639 22.4791 11.1534 22.4111C10.9325 22.275 10.6218 22.0751 10.2511 21.8133C9.51154 21.2908 8.5245 20.5155 7.5346 19.502C5.56743 17.4879 3.5 14.4378 3.5 10.5C3.5 8.24566 4.39553 6.08365 5.98959 4.48959C7.58365 2.89553 9.74566 2 12 2C14.2543 2 16.4163 2.89553 18.0104 4.48959C19.6045 6.08365 20.5 8.24566 20.5 10.5C20.5 14.4378 18.4326 17.4879 16.4654 19.502C15.4755 20.5155 14.4885 21.2908 13.7489 21.8133C13.3782 22.0751 13.0675 22.275 12.8466 22.4111C12.7361 22.4791 12.6478 22.5313 12.5856 22.5674C12.5545 22.5854 12.5299 22.5994 12.5122 22.6094L12.4909 22.6213L12.4843 22.6249L12.4811 22.6267C12.4807 22.6269 12.4804 22.6271 12 21.75ZM12 21.75L12.4811 22.6267C12.1818 22.7906 11.8182 22.7906 11.5189 22.6267L12 21.75Z"></path>
</symbol>
<symbol viewBox="0 0 24 24" id="logout">
<path fill-rule="evenodd" clip-rule="evenodd" d="M21.8839 11.1161C22.372 11.6043 22.372 12.3957 21.8839 12.8839L17.3839 17.3839C16.8957 17.872 16.1043 17.872 15.6161 17.3839C15.128 16.8957 15.128 16.1043 15.6161 15.6161L17.9822 13.25L7.5 13.25C6.80964 13.25 6.25 12.6904 6.25 12C6.25 11.3096 6.80964 10.75 7.5 10.75L17.9822 10.75L15.6161 8.38388C15.128 7.89573 15.128 7.10427 15.6161 6.61612C16.1043 6.12796 16.8957 6.12796 17.3839 6.61612L21.8839 11.1161ZM8.75 3C8.75 3.69036 8.19036 4.25 7.5 4.25L5.25 4.25C4.98478 4.25 4.73043 4.35536 4.54289 4.54289C4.35536 4.73043 4.25 4.98478 4.25 5.25L4.25 18.75C4.25 19.0152 4.35536 19.2696 4.54289 19.4571C4.73043 19.6446 4.98478 19.75 5.25 19.75L7.5 19.75C8.19036 19.75 8.75 20.3096 8.75 21C8.75 21.6904 8.19036 22.25 7.5 22.25L5.25 22.25C4.32174 22.25 3.4315 21.8812 2.77512 21.2249C2.11875 20.5685 1.75 19.6783 1.75 18.75L1.75 5.25C1.75 4.32174 2.11875 3.4315 2.77513 2.77513C3.4315 2.11875 4.32174 1.75 5.25 1.75L7.5 1.75C8.19036 1.75 8.75 2.30964 8.75 3Z"></path>
</symbol>
<symbol id="messages" x="0px" y="0px" viewBox="0 0 22 19" style="enable-background:new 0 0 22 19;" xml:space="preserve">
<path d="M18.5,18.2h-15c-0.9,0-1.8-0.4-2.5-1c-0.7-0.7-1-1.5-1-2.5V4.2c0-0.9,0.4-1.8,1-2.5c0.7-0.7,1.5-1,2.5-1h15
	c0.9,0,1.8,0.4,2.5,1c0.7,0.7,1,1.5,1,2.5v10.5c0,0.9-0.4,1.8-1,2.5C20.3,17.9,19.4,18.2,18.5,18.2z M2.5,8v6.8
	c0,0.3,0.1,0.5,0.3,0.7c0.2,0.2,0.4,0.3,0.7,0.3h15c0.3,0,0.5-0.1,0.7-0.3c0.2-0.2,0.3-0.4,0.3-0.7V8l-6.7,4.1
	c-1.1,0.7-2.6,0.7-3.7,0L2.5,8z M2.5,4.5c0,0.2,0,0.3,0.1,0.5C2.7,5.1,2.8,5.2,3,5.3l7.5,4.6c0.3,0.2,0.7,0.2,1,0L19,5.3
	c0.1-0.1,0.3-0.2,0.3-0.4c0.1-0.1,0.1-0.3,0.1-0.5V4.2c0-0.3-0.1-0.5-0.3-0.7c-0.2-0.2-0.4-0.3-0.7-0.3h-15C3.2,3.2,3,3.3,2.8,3.5
	C2.6,3.7,2.5,4,2.5,4.2V4.5z"></path>
</symbol>
<symbol viewBox="0 0 24 24" id="muted">
<path fill-rule="evenodd" clip-rule="evenodd" d="M11.75 4.6641V19.3357L7.45711 15.0428C7.26957 14.8552 7.01522 14.7499 6.75 14.7499H4.51C3.97971 14.7499 3.62576 14.4538 3.53604 14.1301C3.3455 13.4364 3.24929 12.7203 3.25 12.0009C3.25 11.2614 3.34972 10.5467 3.53607 9.86956C3.62565 9.54557 3.97898 9.24989 4.51 9.24989H6.75C7.01522 9.24989 7.26957 9.14453 7.45711 8.957L11.75 4.6641ZM11.659 2.34409C11.9983 2.27669 12.3499 2.31135 12.6695 2.44367C12.9891 2.576 13.2623 2.80006 13.4546 3.08757C13.6469 3.37507 13.7497 3.71311 13.75 4.05901V19.9399C13.7497 20.2858 13.6469 20.6247 13.4546 20.9122C13.2623 21.1997 12.9891 21.4238 12.6695 21.5561C12.3499 21.6884 11.9983 21.7231 11.659 21.6557C11.3198 21.5883 11.0081 21.4219 10.7633 21.1774L6.33579 16.7499H4.51C3.28059 16.7499 1.98663 16.0323 1.60811 14.6622L1.60775 14.6609C1.36949 13.7938 1.24916 12.8986 1.25 11.9994C1.25005 11.0792 1.3743 10.1871 1.60786 9.33853C1.98642 7.96665 3.28121 7.24989 4.51 7.24989H6.33579L10.7629 2.82278C11.0076 2.57835 11.3198 2.41149 11.659 2.34409ZM16.5429 9.04278C16.9334 8.65226 17.5666 8.65226 17.9571 9.04278L19.5 10.5857L21.0429 9.04278C21.4334 8.65226 22.0666 8.65226 22.4571 9.04278C22.8476 9.43331 22.8476 10.0665 22.4571 10.457L20.9142 11.9999L22.4571 13.5428C22.8476 13.9333 22.8476 14.5665 22.4571 14.957C22.0666 15.3475 21.4334 15.3475 21.0429 14.957L19.5 13.4141L17.9571 14.957C17.5666 15.3475 16.9334 15.3475 16.5429 14.957C16.1524 14.5665 16.1524 13.9333 16.5429 13.5428L18.0858 11.9999L16.5429 10.457C16.1524 10.0665 16.1524 9.43331 16.5429 9.04278Z"></path>
</symbol>
<symbol viewBox="0 0 24 24" id="no">
<path fill-rule="evenodd" clip-rule="evenodd" d="M4.92895 4.92895C6.80432 3.05357 9.34788 2 12.0001 2C14.6522 2 17.1958 3.05357 19.0712 4.92895C20.9465 6.80432 22.0001 9.34788 22.0001 12.0001C22.0001 14.6522 20.9465 17.1958 19.0712 19.0712C17.1958 20.9465 14.6522 22.0001 12.0001 22.0001C9.34788 22.0001 6.80432 20.9465 4.92895 19.0712C3.05357 17.1958 2 14.6522 2 12.0001C2 9.34788 3.05357 6.80432 4.92895 4.92895ZM7.09461 5.6804L18.3197 16.9055C19.4031 15.5098 20.0001 13.7857 20.0001 12.0001C20.0001 9.87831 19.1572 7.84346 17.6569 6.34316C16.1566 4.84286 14.1218 4 12.0001 4C10.2144 4 8.49033 4.59698 7.09461 5.6804ZM16.9055 18.3197L5.6804 7.09461C4.59698 8.49033 4 10.2144 4 12.0001C4 14.1218 4.84286 16.1566 6.34316 17.6569C7.84346 19.1572 9.87831 20.0001 12.0001 20.0001C13.7857 20.0001 15.5098 19.4031 16.9055 18.3197Z"></path>
</symbol>
<symbol id="notifications" x="0px" y="0px" viewBox="0 0 24 25" style="enable-background:new 0 0 24 25;" xml:space="preserve">
<path d="M12,23.1c-0.7,0-1.3-0.2-1.9-0.5c-0.6-0.3-1.1-0.7-1.5-1.3c-0.4-0.5-0.7-1.2-0.8-1.8c0-0.2,0-0.4-0.1-0.5
	c-1.5-0.3-3-0.7-4.5-1.2c-0.4-0.1-0.7-0.5-0.8-0.9c-0.1-0.4,0-0.8,0.3-1.1c1.3-1.4,2-3.3,2-5.2V9.8c0-1.9,0.8-3.8,2.1-5.1
	c1.4-1.4,3.2-2.1,5.1-2.1c1.9,0,3.8,0.8,5.1,2.1c1.4,1.4,2.1,3.2,2.1,5.1v0.8c0,1.9,0.7,3.8,2,5.2c0.3,0.3,0.4,0.7,0.3,1.1
	c-0.1,0.4-0.4,0.7-0.8,0.9c-1.5,0.5-3,0.9-4.5,1.2c0,0.2,0,0.4-0.1,0.5c-0.1,0.7-0.4,1.3-0.8,1.8c-0.4,0.5-0.9,1-1.5,1.3
	C13.3,22.9,12.7,23.1,12,23.1z M10.3,19.3c0.1,0.2,0.2,0.4,0.3,0.6c0.2,0.2,0.4,0.4,0.6,0.5c0.5,0.2,1.1,0.2,1.6,0
	c0.2-0.1,0.5-0.3,0.6-0.5c0.1-0.2,0.2-0.4,0.3-0.6C12.6,19.3,11.4,19.3,10.3,19.3z M9.3,16.7c1.8,0.2,3.6,0.2,5.4,0c0,0,0,0,0,0
	c1.2-0.1,2.4-0.4,3.5-0.7c-1-1.6-1.5-3.5-1.5-5.4V9.8c0-1.3-0.5-2.5-1.4-3.4c-0.9-0.9-2.1-1.4-3.4-1.4c-1.3,0-2.5,0.5-3.4,1.4
	C7.7,7.4,7.2,8.6,7.2,9.8v0.8c0,1.9-0.5,3.8-1.5,5.4C6.9,16.3,8.1,16.5,9.3,16.7C9.3,16.7,9.3,16.7,9.3,16.7z"></path>
</symbol>
<symbol viewBox="0 0 24 24" id="profile">
<path fill-rule="evenodd" clip-rule="evenodd" d="M12 3.5C11.3369 3.5 10.7011 3.76339 10.2322 4.23223C9.76337 4.70107 9.49998 5.33696 9.49998 6C9.49998 6.66304 9.76337 7.29893 10.2322 7.76777C10.7011 8.23661 11.3369 8.5 12 8.5C12.663 8.5 13.2989 8.23661 13.7677 7.76777C14.2366 7.29893 14.5 6.66304 14.5 6C14.5 5.33696 14.2366 4.70107 13.7677 4.23223C13.2989 3.76339 12.663 3.5 12 3.5ZM8.46444 2.46447C9.40213 1.52678 10.6739 1 12 1C13.3261 1 14.5978 1.52678 15.5355 2.46447C16.4732 3.40215 17 4.67392 17 6C17 7.32608 16.4732 8.59785 15.5355 9.53553C14.5978 10.4732 13.3261 11 12 11C10.6739 11 9.40213 10.4732 8.46444 9.53553C7.52676 8.59785 6.99998 7.32608 6.99998 6C6.99998 4.67392 7.52676 3.40215 8.46444 2.46447ZM12 13.9905C10.3601 13.9905 8.78583 14.635 7.61679 15.7851C6.64361 16.7425 6.01614 17.9864 5.81776 19.3223C7.72922 20.0821 9.81461 20.5 12 20.5L12.0017 20.5C14.1205 20.5029 16.2178 20.1021 18.1821 19.322C17.9837 17.9862 17.3563 16.7425 16.3832 15.7851C15.2141 14.635 13.6399 13.9905 12 13.9905ZM5.86352 14.003C7.50016 12.3928 9.70408 11.4905 12 11.4905C14.2959 11.4905 16.4998 12.3928 18.1364 14.003C19.7731 15.6131 20.7113 17.802 20.7488 20.0976C20.7569 20.5936 20.4709 21.0475 20.02 21.2542C17.5037 22.4081 14.7674 23.0036 11.9991 23C9.1399 22.9999 6.4226 22.3755 3.97949 21.254C3.52881 21.0471 3.24305 20.5934 3.25114 20.0976C3.28863 17.802 4.22687 15.6131 5.86352 14.003ZM11.9991 23C11.9988 23 11.9986 23 11.9983 23L12 21.75V23C11.9997 23 11.9994 23 11.9991 23Z"></path>
</symbol>
<symbol viewBox="0 0 24 24" id="qrCode">
<path fill-rule="evenodd" clip-rule="evenodd" d="M4.875 4.75C4.80628 4.75 4.75 4.80628 4.75 4.875V9.375C4.75 9.40815 4.76317 9.43995 4.78661 9.46339C4.81005 9.48683 4.84185 9.5 4.875 9.5H9.375C9.44372 9.5 9.5 9.44372 9.5 9.375V4.875C9.5 4.80628 9.44372 4.75 9.375 4.75H4.875ZM2.75 4.875C2.75 3.70172 3.70172 2.75 4.875 2.75H9.375C10.5483 2.75 11.5 3.70172 11.5 4.875V9.375C11.5 10.5483 10.5483 11.5 9.375 11.5H4.875C4.31141 11.5 3.77091 11.2761 3.3724 10.8776C2.97388 10.4791 2.75 9.93859 2.75 9.375V4.875ZM14.625 4.75C14.5563 4.75 14.5 4.80628 14.5 4.875V9.375C14.5 9.40815 14.5132 9.43995 14.5366 9.46339C14.5601 9.48683 14.5918 9.5 14.625 9.5H19.125C19.1937 9.5 19.25 9.44372 19.25 9.375V4.875C19.25 4.80628 19.1937 4.75 19.125 4.75H14.625ZM12.5 4.875C12.5 3.70172 13.4517 2.75 14.625 2.75H19.125C20.2983 2.75 21.25 3.70172 21.25 4.875V9.375C21.25 10.5483 20.2983 11.5 19.125 11.5H14.625C14.0614 11.5 13.5209 11.2761 13.1224 10.8776C12.7239 10.4791 12.5 9.93859 12.5 9.375V4.875ZM4.875 14.5C4.80628 14.5 4.75 14.5563 4.75 14.625V19.125C4.75 19.1582 4.76317 19.1899 4.78661 19.2134C4.81005 19.2368 4.84185 19.25 4.875 19.25H9.375C9.44372 19.25 9.5 19.1937 9.5 19.125V14.625C9.5 14.5563 9.44372 14.5 9.375 14.5H4.875ZM2.75 14.625C2.75 13.4517 3.70172 12.5 4.875 12.5H9.375C10.5483 12.5 11.5 13.4517 11.5 14.625V19.125C11.5 20.2983 10.5483 21.25 9.375 21.25H4.875C4.31142 21.25 3.77091 21.0261 3.3724 20.6276C2.97388 20.2291 2.75 19.6886 2.75 19.125V14.625Z"></path>
<path fill-rule="evenodd" clip-rule="evenodd" d="M5.75 6.75C5.75 6.19772 6.19772 5.75 6.75 5.75H7.5C8.05228 5.75 8.5 6.19772 8.5 6.75V7.5C8.5 8.05228 8.05228 8.5 7.5 8.5H6.75C6.19772 8.5 5.75 8.05228 5.75 7.5V6.75ZM15.5 6.75C15.5 6.19772 15.9477 5.75 16.5 5.75H17.25C17.8023 5.75 18.25 6.19772 18.25 6.75V7.5C18.25 8.05228 17.8023 8.5 17.25 8.5H16.5C15.9477 8.5 15.5 8.05228 15.5 7.5V6.75ZM12.5 13.5C12.5 12.9477 12.9477 12.5 13.5 12.5H14.25C14.8023 12.5 15.25 12.9477 15.25 13.5V14.25C15.25 14.8023 14.8023 15.25 14.25 15.25H13.5C12.9477 15.25 12.5 14.8023 12.5 14.25V13.5ZM18.5 13.5C18.5 12.9477 18.9477 12.5 19.5 12.5H20.25C20.8023 12.5 21.25 12.9477 21.25 13.5V14.25C21.25 14.8023 20.8023 15.25 20.25 15.25H19.5C18.9477 15.25 18.5 14.8023 18.5 14.25V13.5ZM5.75 16.5C5.75 15.9477 6.19772 15.5 6.75 15.5H7.5C8.05228 15.5 8.5 15.9477 8.5 16.5V17.25C8.5 17.8023 8.05228 18.25 7.5 18.25H6.75C6.19772 18.25 5.75 17.8023 5.75 17.25V16.5ZM15.5 16.5C15.5 15.9477 15.9477 15.5 16.5 15.5H17.25C17.8023 15.5 18.25 15.9477 18.25 16.5V17.25C18.25 17.8023 17.8023 18.25 17.25 18.25H16.5C15.9477 18.25 15.5 17.8023 15.5 17.25V16.5ZM12.5 19.5C12.5 18.9477 12.9477 18.5 13.5 18.5H14.25C14.8023 18.5 15.25 18.9477 15.25 19.5V20.25C15.25 20.8023 14.8023 21.25 14.25 21.25H13.5C12.9477 21.25 12.5 20.8023 12.5 20.25V19.5ZM18.5 19.5C18.5 18.9477 18.9477 18.5 19.5 18.5H20.25C20.8023 18.5 21.25 18.9477 21.25 19.5V20.25C21.25 20.8023 20.8023 21.25 20.25 21.25H19.5C18.9477 21.25 18.5 20.8023 18.5 20.25V19.5Z"></path>
</symbol>
<symbol viewBox="0 0 24 24" id="search">
<path fill-rule="evenodd" clip-rule="evenodd" d="M4.31192 4.31192C5.95292 2.67093 8.17859 1.74902 10.4993 1.74902C12.82 1.74902 15.0457 2.67093 16.6867 4.31192C18.3277 5.95292 19.2496 8.17859 19.2496 10.4993C19.2496 12.3993 18.6317 14.2355 17.5071 15.7394L21.8837 20.1159C22.3718 20.6041 22.3718 21.3955 21.8837 21.8837C21.3955 22.3718 20.6041 22.3718 20.1159 21.8837L15.7394 17.5071C14.2355 18.6317 12.3993 19.2496 10.4993 19.2496C8.17859 19.2496 5.95292 18.3277 4.31192 16.6867C2.67093 15.0457 1.74902 12.82 1.74902 10.4993C1.74902 8.17859 2.67093 5.95292 4.31192 4.31192ZM10.4993 4.24902C8.84163 4.24902 7.25184 4.90753 6.07969 6.07969C4.90753 7.25184 4.24902 8.84163 4.24902 10.4993C4.24902 12.157 4.90753 13.7468 6.07969 14.9189C7.25184 16.0911 8.84163 16.7496 10.4993 16.7496C12.157 16.7496 13.7468 16.0911 14.9189 14.9189C16.0911 13.7468 16.7496 12.157 16.7496 10.4993C16.7496 8.84163 16.0911 7.25184 14.9189 6.07969C13.7468 4.90753 12.157 4.24902 10.4993 4.24902Z"></path>
</symbol>
<symbol id="settings" x="0px" y="0px" viewBox="0 0 24 24" style="enable-background:new 0 0 24 24;" xml:space="preserve">
<path d="M13.3,22.2h-2.6c-1.2,0-2.1-0.8-2.3-2L8.1,19C8,19,8,18.9,7.9,18.9l-1.2,0.4c-0.5,0.2-1.1,0.2-1.6,0c-0.5-0.2-1-0.6-1.3-1
	L2.5,16c-0.3-0.5-0.4-1.1-0.3-1.6C2.3,13.8,2.6,13.3,3,13l1-0.8c0-0.1,0-0.2,0-0.3L3,11c-0.4-0.4-0.7-0.9-0.8-1.4
	C2.1,9.1,2.2,8.5,2.5,8l1.3-2.2c0.3-0.5,0.7-0.9,1.3-1c0.5-0.2,1.1-0.2,1.6,0l1.2,0.5L8.1,5l0.2-1.3c0.2-1.1,1.2-2,2.3-2h2.6
	c1.2,0,2.2,0.8,2.3,2L15.9,5C16,5,16,5.1,16.1,5.1l1.2-0.4c0.5-0.2,1.1-0.2,1.6,0c0.5,0.2,1,0.6,1.3,1L21.5,8
	c0.3,0.5,0.4,1.1,0.3,1.6c-0.1,0.5-0.4,1-0.8,1.4l-1,0.8c0,0.1,0,0.2,0,0.3l1,0.8c0.9,0.7,1.1,2,0.5,3l-1.3,2.2
	c-0.3,0.5-0.7,0.9-1.3,1s-1.1,0.2-1.6,0l-1.2-0.5C16,18.9,16,19,15.9,19l-0.2,1.3C15.5,21.4,14.5,22.2,13.3,22.2z M10.8,19.8h2.4
	l0.2-1.2c0.1-0.7,0.6-1.4,1.3-1.8l0.2-0.1c0.7-0.4,1.5-0.5,2.2-0.2l1.1,0.4l1.2-2.1l-0.9-0.8c-0.6-0.5-0.9-1.2-0.9-2v-0.2
	c0-0.8,0.3-1.5,0.9-2l0.9-0.8l-1.2-2.1L17,7.5c-0.7,0.3-1.5,0.2-2.2-0.2l-0.2-0.1c-0.7-0.4-1.2-1-1.3-1.8l-0.2-1.2h-2.4l-0.2,1.2
	C10.5,6.2,10,6.8,9.3,7.2L9.2,7.3C8.5,7.7,7.7,7.8,7,7.5L5.9,7.1L4.7,9.2l0.9,0.8c0.6,0.5,0.9,1.2,0.9,2v0.2c0,0.8-0.3,1.5-0.9,2
	l-0.9,0.8l1.2,2.1L7,16.5c0.7-0.3,1.5-0.2,2.2,0.2l0.2,0.1c0.7,0.4,1.2,1,1.3,1.8L10.8,19.8z M18.1,7L18.1,7L18.1,7z M10.8,4.1
	C10.8,4.1,10.8,4.1,10.8,4.1C10.8,4.1,10.8,4.1,10.8,4.1z M9.6,3.9L9.6,3.9L9.6,3.9z"></path>
<path d="M12,16.2c-1.1,0-2.2-0.4-3-1.2c-0.8-0.8-1.2-1.9-1.2-3S8.2,9.8,9,9c0.8-0.8,1.9-1.2,3-1.2s2.2,0.4,3,1.2
	c0.8,0.8,1.2,1.9,1.2,3s-0.4,2.2-1.2,3S13.1,16.2,12,16.2z M12,10.2c-0.5,0-0.9,0.2-1.2,0.5c-0.3,0.3-0.5,0.8-0.5,1.2
	s0.2,0.9,0.5,1.2c0.7,0.7,1.8,0.7,2.5,0c0.3-0.3,0.5-0.8,0.5-1.2s-0.2-0.9-0.5-1.2C12.9,10.4,12.5,10.2,12,10.2z"></path>
</symbol>
<symbol viewBox="0 0 24 24" id="share">
<path fill-rule="evenodd" clip-rule="evenodd" d="M17.1918 1.69659C17.936 1.28318 18.8126 1.17823 19.6333 1.40432C20.454 1.63041 21.1533 2.16948 21.5807 2.90566C21.7976 3.27923 21.9379 3.6923 21.9933 4.12072C22.0487 4.54914 22.0182 4.9843 21.9034 5.40077C21.7887 5.81724 21.5921 6.20666 21.3251 6.54626C21.0581 6.88586 20.7261 7.16883 20.3485 7.37862C19.9709 7.58841 19.5552 7.72081 19.1258 7.76808C18.6964 7.81536 18.2619 7.77656 17.8477 7.65395C17.4335 7.53134 17.0479 7.32738 16.7134 7.054C16.6466 6.99941 16.5821 6.94227 16.5201 6.88274L8.43903 11.3718C8.47896 11.5751 8.49993 11.785 8.49993 11.9998C8.49993 12.2143 8.479 12.4243 8.43908 12.6278L16.5322 17.1236C16.9049 16.7756 17.3579 16.5169 17.8573 16.3742C18.6863 16.1373 19.5754 16.2395 20.3291 16.6581C21.0827 17.0768 21.6392 17.7777 21.876 18.6067C22.1129 19.4357 22.0108 20.3248 21.5921 21.0784C21.3848 21.4516 21.106 21.7803 20.7717 22.0457C20.4373 22.3111 20.054 22.5081 19.6435 22.6254C19.2331 22.7427 18.8035 22.778 18.3794 22.7293C17.9553 22.6805 17.545 22.5488 17.1718 22.3415C16.7986 22.1342 16.4699 21.8554 16.2045 21.521C15.9391 21.1867 15.7421 20.8034 15.6248 20.3929C15.5075 19.9824 15.4722 19.5529 15.521 19.1288C15.5309 19.0425 15.5442 18.9568 15.5609 18.8719L7.46754 14.3759C7.19474 14.6305 6.87829 14.8379 6.53068 14.9869C5.86893 15.2706 5.13172 15.3265 4.43477 15.1458C3.73782 14.9652 3.12058 14.5582 2.67995 13.9888C2.23932 13.4194 2.00024 12.7198 2.00024 11.9998C2.00024 11.2798 2.23932 10.5802 2.67995 10.0108C3.12058 9.44139 3.73782 9.03442 4.43477 8.85377C5.13172 8.67311 5.86893 8.729 6.53068 9.01266C6.87829 9.16166 7.19474 9.36908 7.46754 9.62364L15.5729 5.12102C15.4823 4.62412 15.5078 4.10829 15.6538 3.61516C15.8954 2.79889 16.4477 2.11001 17.1918 1.69659ZM6.34277 11.3924C6.20825 11.1505 5.99719 10.96 5.74272 10.8509C5.4882 10.7418 5.20466 10.7203 4.9366 10.7898C4.66854 10.8593 4.43114 11.0158 4.26167 11.2348C4.0922 11.4538 4.00024 11.7229 4.00024 11.9998C4.00024 12.2767 4.0922 12.5458 4.26167 12.7648C4.43114 12.9838 4.66854 13.1403 4.9366 13.2098C5.20466 13.2793 5.4882 13.2578 5.74272 13.1487C5.99724 13.0396 6.20833 12.8491 6.34285 12.607L6.34341 12.606C6.44266 12.4279 6.49993 12.222 6.49993 11.9998C6.49993 11.7784 6.44302 11.5729 6.34285 11.3926M19.1021 3.3325C18.7865 3.24554 18.4493 3.2859 18.1631 3.44491C17.8769 3.60391 17.6645 3.86887 17.5716 4.18282C17.4786 4.49677 17.5126 4.83465 17.6661 5.12382C17.7441 5.27057 17.8505 5.4003 17.9791 5.50545C18.1077 5.6106 18.2561 5.68904 18.4154 5.7362C18.5747 5.78336 18.7418 5.79828 18.907 5.7801C19.0721 5.76191 19.232 5.71099 19.3772 5.6303C19.5224 5.54961 19.6501 5.44078 19.7528 5.31016C19.8555 5.17955 19.9311 5.02977 19.9753 4.86959C20.0194 4.70941 20.0311 4.54204 20.0098 4.37726C19.9885 4.21249 19.9346 4.05362 19.8511 3.90993C19.6867 3.62679 19.4178 3.41945 19.1021 3.3325ZM19.3578 18.4065C19.0678 18.2454 18.7258 18.2061 18.4068 18.2972C18.0879 18.3883 17.8182 18.6024 17.6571 18.8924C17.5773 19.036 17.5266 19.1939 17.5079 19.3571C17.4891 19.5202 17.5027 19.6855 17.5478 19.8434C17.593 20.0013 17.6688 20.1488 17.7709 20.2775C17.873 20.4061 17.9995 20.5134 18.1431 20.5931C18.2866 20.6729 18.4445 20.7236 18.6077 20.7423C18.7709 20.7611 18.9361 20.7475 19.0941 20.7024C19.252 20.6573 19.3995 20.5815 19.5281 20.4793C19.6567 20.3772 19.764 20.2507 19.8438 20.1072C20.0048 19.8172 20.0441 19.4751 19.953 19.1562C19.8619 18.8372 19.6478 18.5675 19.3578 18.4065Z"></path>
</symbol>
<symbol id="speech" x="0px" y="0px" viewBox="0 0 24 24" style="enable-background:new 0 0 24 24;" xml:space="preserve">
<path d="M12,22c-0.3,0-0.6-0.2-0.8-0.4l-2.8-4.1c0,0-0.1-0.1-0.1-0.1C7.1,17.3,6,17.1,4.8,17c-2.1-0.3-3.6-2.1-3.6-4.2v-6
	c0-2.1,1.5-3.9,3.6-4.2C7.2,2.2,9.6,2,12,2c0,0,0,0,0,0c2.4,0,4.8,0.2,7.2,0.5c2.1,0.3,3.6,2.1,3.6,4.2v6c0,2.1-1.5,3.9-3.6,4.2
	c-1.1,0.2-2.3,0.3-3.5,0.4l-0.9-0.5l0.8,0.6l-2.8,4.1C12.6,21.8,12.3,22,12,22z M12,4C12,4,12,4,12,4C9.7,4,7.4,4.2,5.1,4.5
	C4,4.7,3.2,5.6,3.2,6.7v6c0,1.1,0.8,2.1,1.9,2.2c1.1,0.2,2.2,0.3,3.4,0.4c0.7,0,1.3,0.4,1.6,0.9l1.9,2.9l1.9-2.9
	c0.2-0.3,0.4-0.5,0.7-0.7c0.3-0.2,0.6-0.3,0.9-0.3c1.1-0.1,2.2-0.2,3.3-0.4c1.1-0.2,1.9-1.1,1.9-2.2v-6c0-1.1-0.8-2.1-1.9-2.2
	C16.6,4.2,14.3,4,12,4z M12,12.2H7.5c-0.6,0-1-0.4-1-1s0.4-1,1-1H12c0.6,0,1,0.4,1,1S12.6,12.2,12,12.2z M16.5,9.2h-9
	c-0.6,0-1-0.4-1-1s0.4-1,1-1h9c0.6,0,1,0.4,1,1S17.1,9.2,16.5,9.2z"></path>
</symbol>
<symbol viewBox="0 0 24 24" id="threeDots">
<path fill-rule="evenodd" clip-rule="evenodd" d="M5 10C3.89543 10 3 10.8954 3 12C3 13.1046 3.89543 14 5 14C6.10457 14 7 13.1046 7 12C7 10.8954 6.10457 10 5 10ZM12 10C10.8954 10 10 10.8954 10 12C10 13.1046 10.8954 14 12 14C13.1046 14 14 13.1046 14 12C14 10.8954 13.1046 10 12 10ZM17 12C17 10.8954 17.8954 10 19 10C20.1046 10 21 10.8954 21 12C21 13.1046 20.1046 14 19 14C17.8954 14 17 13.1046 17 12Z"></path>
</symbol>
<symbol id="trash" x="0px" y="0px" viewBox="0 0 24 24" style="enable-background:new 0 0 24 24;" xml:space="preserve">
<style type="text/css">
	.st0{fill:#D94830;}
</style>
<path class="st0" d="M15.9,22.8H8.1c-0.8,0-1.6-0.3-2.2-0.9c-0.6-0.6-1-1.3-1-2.1l-1-12.8C3.3,7,2.9,6.6,2.8,6.1
	C2.7,5.6,3,5.1,3.6,5c0.3-0.1,0.7-0.1,1-0.2c0,0,0,0,0,0c0.9-0.1,1.7-0.2,2.6-0.3c0-1.7,1.3-3.1,3.1-3.2c1.1,0,2.3,0,3.4,0
	c1.7,0.1,3.1,1.5,3.1,3.2c0.9,0.1,1.8,0.2,2.6,0.3c0,0,0,0,0,0c0.3,0.1,0.7,0.1,1,0.2c0.5,0.1,0.9,0.6,0.8,1.2
	C21.1,6.7,20.7,7,20.1,7l-1,12.8c-0.1,0.8-0.4,1.6-1,2.1S16.7,22.8,15.9,22.8z M5.8,6.6l1,12.9c0,0.3,0.2,0.6,0.4,0.8
	c0.2,0.2,0.5,0.3,0.8,0.3h7.8c0.3,0,0.6-0.1,0.9-0.3c0.2-0.2,0.4-0.5,0.4-0.8l1-12.9c-0.8-0.1-1.7-0.2-2.5-0.3c0,0,0,0,0,0
	c-2.4-0.2-4.9-0.2-7.3,0c0,0,0,0,0,0C7.5,6.5,6.7,6.5,5.8,6.6z M12,4.2c0.9,0,1.8,0,2.7,0.1c-0.1-0.6-0.5-1-1.1-1
	c-1.1,0-2.2,0-3.3,0c-0.6,0-1,0.5-1.1,1C10.2,4.3,11.1,4.2,12,4.2z M14.4,19C14.4,19,14.4,19,14.4,19c-0.6,0-1-0.5-1-1l0.3-9
	c0-0.6,0.5-1,1-1c0.6,0,1,0.5,1,1l-0.3,9C15.4,18.6,14.9,19,14.4,19z M9.6,19c-0.5,0-1-0.4-1-1L8.3,9c0-0.6,0.4-1,1-1
	c0.6,0,1,0.4,1,1l0.3,9C10.6,18.5,10.2,19,9.6,19C9.6,19,9.6,19,9.6,19z"></path>
</symbol>
<symbol viewBox="0 0 24 24" id="unfollow">
<path fill-rule="evenodd" clip-rule="evenodd" d="M10.375 3.75C9.67881 3.75 9.01113 4.02656 8.51884 4.51884C8.02656 5.01113 7.75 5.67881 7.75 6.375C7.75 6.71972 7.8179 7.06106 7.94982 7.37954C8.08173 7.69802 8.27509 7.9874 8.51884 8.23115C8.7626 8.47491 9.05198 8.66827 9.37046 8.80018C9.68894 8.9321 10.0303 9 10.375 9C10.7197 9 11.0611 8.9321 11.3795 8.80018C11.698 8.66827 11.9874 8.47491 12.2312 8.23115C12.4749 7.9874 12.6683 7.69802 12.8002 7.37954C12.9321 7.06106 13 6.71972 13 6.375C13 5.67881 12.7234 5.01113 12.2312 4.51884C11.7389 4.02656 11.0712 3.75 10.375 3.75ZM7.45818 3.45818C8.23177 2.6846 9.28098 2.25 10.375 2.25C11.469 2.25 12.5182 2.6846 13.2918 3.45818C14.0654 4.23177 14.5 5.28098 14.5 6.375C14.5 6.9167 14.3933 7.4531 14.186 7.95357C13.9787 8.45404 13.6749 8.90877 13.2918 9.29182C12.9088 9.67486 12.454 9.9787 11.9536 10.186C11.4531 10.3933 10.9167 10.5 10.375 10.5C9.8333 10.5 9.2969 10.3933 8.79643 10.186C8.29596 9.9787 7.84123 9.67486 7.45818 9.29182C7.07514 8.90877 6.7713 8.45404 6.564 7.95357C6.3567 7.4531 6.25 6.9167 6.25 6.375C6.25 5.28098 6.6846 4.23177 7.45818 3.45818ZM15.25 10.5C15.25 10.0858 15.5858 9.75 16 9.75H22C22.4142 9.75 22.75 10.0858 22.75 10.5C22.75 10.9142 22.4142 11.25 22 11.25H16C15.5858 11.25 15.25 10.9142 15.25 10.5ZM10.375 13.5C8.88316 13.5 7.45242 14.0926 6.39752 15.1475C5.41801 16.127 4.83705 17.4306 4.75903 18.8063C6.42329 19.7261 8.33679 20.25 10.374 20.25L10.3753 20.25C12.3417 20.2533 14.2741 19.7553 15.991 18.8063C15.913 17.4306 15.332 16.1271 14.3525 15.1475C13.2976 14.0926 11.8668 13.5 10.375 13.5ZM3.64795 19.8974C3.41118 19.7713 3.25 19.522 3.25 19.235V19.125C3.25 17.2353 4.00067 15.4231 5.33686 14.0869C6.67306 12.7507 8.48533 12 10.375 12C12.2647 12 14.0769 12.7507 15.4131 14.0869C16.7493 15.4231 17.5 17.2353 17.5 19.125V19.234C17.5 19.497 17.3622 19.7408 17.1369 19.8765C15.0956 21.1059 12.757 21.7538 10.374 21.75M3.64795 19.8974C5.61557 21.0737 7.91756 21.7499 10.374 21.75Z"></path>
</symbol>
<symbol id="upload" x="0px" y="0px" viewBox="0 0 32 32" style="enable-background:new 0 0 32 32;" xml:space="preserve">
<path d="M9,27c-1.7,0-3.3-0.6-4.5-1.7c-1.3-1.1-2.1-2.6-2.4-4.2c-0.3-1.6,0.1-3.3,0.9-4.8c0.7-1.2,1.8-2.1,3-2.7
	c-0.2-1.8,0.3-3.6,1.3-5.1c1.1-1.8,2.9-3,4.9-3.4c2-0.5,4.1-0.1,5.9,1c1.5,0.9,2.7,2.3,3.3,3.9c0.6-0.1,1.2,0,1.8,0.1
	c0.9,0.2,1.7,0.7,2.4,1.4c0.7,0.7,1.1,1.5,1.3,2.4c0.1,0.6,0.2,1.2,0.1,1.9c0.9,0.5,1.7,1.3,2.3,2.3c0.7,1.2,0.9,2.6,0.7,4
	c-0.3,1.4-1,2.6-2.1,3.5C26.8,26.5,25.4,27,24,27H9C9,27,9,27,9,27z M14,7c-0.4,0-0.9,0-1.3,0.2C11.1,7.5,9.8,8.4,9,9.7
	s-1.2,2.9-0.9,4.4c0.1,0.5-0.2,1-0.7,1.1c-1.1,0.4-2.1,1.1-2.7,2.1c-0.6,1-0.9,2.2-0.7,3.4c0.2,1.2,0.8,2.2,1.7,3
	C6.7,24.6,7.8,25,9,25c0,0,0,0,0,0h15c0.9,0,1.8-0.3,2.6-0.9c0.7-0.6,1.2-1.4,1.4-2.4c0.2-0.9,0-1.9-0.4-2.7s-1.2-1.4-2.1-1.8
	c-0.5-0.2-0.8-0.8-0.6-1.3c0.2-0.5,0.2-1.1,0.1-1.6c-0.1-0.5-0.4-1-0.8-1.4c-0.4-0.4-0.9-0.7-1.4-0.8c-0.5-0.1-1.1-0.1-1.6,0.1
	c-0.3,0.1-0.5,0.1-0.8-0.1c-0.2-0.1-0.4-0.4-0.5-0.6c-0.4-1.5-1.4-2.8-2.7-3.6C16.2,7.3,15.1,7,14,7z M16,23c-0.6,0-1-0.4-1-1v-6.6
	l-2.3,2.3c-0.4,0.4-1,0.4-1.4,0s-0.4-1,0-1.4l4-4c0.1-0.1,0.2-0.2,0.3-0.2c0.1,0,0.2-0.1,0.4-0.1l0,0c0,0,0,0,0,0l0,0l0,0
	c0,0,0,0,0,0l0,0c0.1,0,0.3,0,0.4,0.1c0.1,0,0.2,0.1,0.3,0.2c0,0,0,0,0,0c0,0,0,0,0,0c0,0,0,0,0,0c0,0,0,0,0,0l0,0c0,0,0,0,0,0
	c0,0,0,0,0,0l0,0c0,0,0,0,0,0c0,0,0,0,0,0l0,0c0,0,0,0,0,0l4,4c0.4,0.4,0.4,1,0,1.4s-1,0.4-1.4,0L17,15.5V22C17,22.6,16.6,23,16,23z
	"></path>
</symbol>
<symbol viewBox="0 0 24 24" id="video">
<path fill-rule="evenodd" clip-rule="evenodd" d="M2.2019 5.2019C2.8114 4.59241 3.63805 4.25 4.5 4.25H13.5C14.362 4.25 15.1886 4.59241 15.7981 5.2019C16.4076 5.8114 16.75 6.63805 16.75 7.5V8.08579L19.7629 5.07289C20.0076 4.82846 20.3198 4.6616 20.659 4.5942C20.9983 4.5268 21.3499 4.56146 21.6695 4.69378C21.9891 4.82611 22.2623 5.05018 22.4546 5.33768C22.6469 5.62518 22.7497 5.96323 22.75 6.30912V17.69C22.7497 18.0359 22.6469 18.3748 22.4546 18.6623C22.2623 18.9498 21.9891 19.1739 21.6695 19.3062C21.3499 19.4385 20.9983 19.4732 20.659 19.4058C20.3198 19.3384 20.0081 19.172 19.7633 18.9275L16.75 15.9142V16.5C16.75 17.362 16.4076 18.1886 15.7981 18.7981C15.1886 19.4076 14.362 19.75 13.5 19.75H4.5C3.63805 19.75 2.8114 19.4076 2.2019 18.7981C1.59241 18.1886 1.25 17.362 1.25 16.5V7.5C1.25 6.63805 1.59241 5.8114 2.2019 5.2019ZM14.75 13.5007C14.75 13.5002 14.75 13.4998 14.75 13.4993V10.5007C14.75 10.5002 14.75 10.4998 14.75 10.4993V7.5C14.75 7.16848 14.6183 6.85054 14.3839 6.61612C14.1495 6.3817 13.8315 6.25 13.5 6.25H4.5C4.16848 6.25 3.85054 6.3817 3.61612 6.61612C3.3817 6.85054 3.25 7.16848 3.25 7.5V16.5C3.25 16.8315 3.3817 17.1495 3.61612 17.3839C3.85054 17.6183 4.16848 17.75 4.5 17.75H13.5C13.8315 17.75 14.1495 17.6183 14.3839 17.3839C14.6183 17.1495 14.75 16.8315 14.75 16.5V13.5007ZM16.75 10.9142V13.0858L20.75 17.0858V6.91421L16.75 10.9142Z"></path>
</symbol>
</defs>
</svg>
