<?xml version="1.0" encoding="UTF-8"?>
<!-- This file is generated by npm run build:icons -->
<svg xmlns="http://www.w3.org/2000/svg" xmlns:xlink="http://www.w3.org/1999/xlink" width="0" height="0">
<defs>
<symbol id="account" x="0px" y="0px" viewBox="0 0 24 24" style="enable-background:new 0 0 24 24;" xml:space="preserve">
<path d="M12,22.2C12,22.2,12,22.2,12,22.2c-2.5,0-4.9-0.9-6.8-2.6c0,0,0,0,0,0c-1.6-1.4-2.6-3.2-3.1-5.2c-0.5-2-0.4-4.1,0.4-6.1
	c0.7-2,2-3.6,3.8-4.8C7.9,2.4,9.9,1.8,12,1.8c2.1,0,4.1,0.6,5.8,1.8c1.7,1.2,3,2.8,3.8,4.8c0.7,2,0.9,4.1,0.4,6.1
	c-0.5,2-1.6,3.8-3.1,5.2c0,0,0,0,0,0C16.9,21.3,14.5,22.2,12,22.2z M12,19.8C12,19.8,12,19.8,12,19.8c1.5,0,2.9-0.4,4.1-1.2
	c-0.4-0.4-0.9-0.7-1.3-0.9C13.9,17.2,13,17,12,17c0,0,0,0,0,0c-1,0-1.9,0.2-2.8,0.7c-0.5,0.2-0.9,0.5-1.3,0.9
	C9.1,19.3,10.5,19.8,12,19.8C12,19.8,12,19.8,12,19.8z M12,4.2c-1.6,0-3.1,0.5-4.4,1.4C6.3,6.5,5.3,7.8,4.8,9.2
	c-0.6,1.5-0.7,3.1-0.3,4.6C4.7,15,5.3,16,6,16.9c0.6-0.6,1.3-1.1,2.1-1.5c1.2-0.6,2.5-0.9,3.9-0.9c0,0,0,0,0,0
	c1.3,0,2.7,0.3,3.9,0.9c0.8,0.4,1.5,0.9,2.1,1.5c0.7-0.9,1.2-1.9,1.5-3c0.4-1.5,0.3-3.1-0.3-4.6c-0.6-1.5-1.5-2.7-2.8-3.6
	C15.1,4.7,13.6,4.2,12,4.2z M12,14c-1.1,0-2.2-0.4-3-1.2c-0.8-0.8-1.2-1.9-1.2-3c0-1.1,0.4-2.2,1.2-3c0.8-0.8,1.9-1.2,3-1.2
	c1.1,0,2.2,0.4,3,1.2c0.8,0.8,1.2,1.9,1.2,3s-0.4,2.2-1.2,3C14.2,13.6,13.1,14,12,14z M12,8c-0.5,0-0.9,0.2-1.2,0.5
	c-0.3,0.3-0.5,0.8-0.5,1.2s0.2,0.9,0.5,1.2c0.7,0.7,1.8,0.7,2.5,0c0.3-0.3,0.5-0.8,0.5-1.2c0-0.5-0.2-0.9-0.5-1.2
	C12.9,8.2,12.5,8,12,8z"></path>
</symbol>
<symbol id="admin" x="0px" y="0px" viewBox="0 0 24 25" style="enable-background:new 0 0 24 25;" xml:space="preserve">
<path d="M12,23.1c-0.1,0-0.2,0-0.3,0c-5.9-1.5-9.9-6.8-9.9-12.8c0-1.4,0.2-2.8,0.7-4.1c0.2-0.5,0.7-0.9,1.2-0.9
	c2.8,0.1,5.5-1,7.5-2.9c0.5-0.5,1.2-0.5,1.7,0c2,1.9,4.6,2.9,7.4,2.9h0.2c0.5,0,1,0.3,1.2,0.9c0.4,1.3,0.7,2.7,0.7,4.1
	c0,6-4.1,11.3-9.9,12.8C12.2,23.1,12.1,23.1,12,23.1z M4.5,7.7c-0.2,0.8-0.3,1.7-0.3,2.5c0,4.8,3.2,9,7.8,10.3
	c4.6-1.3,7.8-5.5,7.8-10.3c0-0.9-0.1-1.7-0.3-2.5c-2.7-0.2-5.3-1.2-7.5-2.9C9.9,6.6,7.3,7.6,4.5,7.7z M11.2,16.8
	c-0.3,0-0.6-0.1-0.9-0.4l-2.2-2.2c-0.5-0.5-0.5-1.3,0-1.8s1.3-0.5,1.8,0l1.2,1.2l2.9-4c0.4-0.6,1.2-0.7,1.7-0.3
	c0.6,0.4,0.7,1.2,0.3,1.7l-3.8,5.2c-0.2,0.3-0.5,0.5-0.9,0.5C11.3,16.7,11.3,16.8,11.2,16.8z"></path>
</symbol>
<symbol viewBox="0 0 24 24" id="bookmarks">
<path fill-rule="evenodd" clip-rule="evenodd" d="M6.52248 4.31537C10.1619 3.89293 13.838 3.89292 17.4774 4.31536ZM17.4777 4.31539C18.0492 4.38203 18.5 4.88195 18.5 5.50706V19.382L12.4472 16.3556C12.1657 16.2149 11.8343 16.2149 11.5528 16.3556L5.5 19.382V5.50706C5.5 4.88152 5.95025 4.38199 6.5223 4.31539M6.2917 2.32873C10.0845 1.88847 13.9155 1.88847 17.7083 2.32873L17.7086 2.32876C19.337 2.51825 20.5 3.91627 20.5 5.50706V21.0001C20.5 21.3466 20.3205 21.6685 20.0257 21.8507C19.7309 22.0329 19.3628 22.0495 19.0528 21.8945L12 18.3681L4.94721 21.8945C4.63723 22.0495 4.26909 22.0329 3.97427 21.8507C3.67945 21.6685 3.5 21.3466 3.5 21.0001V5.50706C3.5 3.91666 4.66166 2.51823 6.29152 2.32875L6.2917 2.32873Z"></path>
</symbol>
<symbol viewBox="0 0 24 24" id="bookmarksFilled">
<path d="M17.593 3.32206C18.693 3.45006 19.5 4.39906 19.5 5.50706V21.0001L12 17.2501L4.5 21.0001V5.50706C4.5 4.39906 5.306 3.45006 6.407 3.32206C10.1232 2.89069 13.8768 2.89069 17.593 3.32206Z" stroke="#5465FF" stroke-width="2" stroke-linecap="round" stroke-linejoin="round"></path>
</symbol>
<symbol viewBox="0 0 24 24" id="chevronDown">
<path fill-rule="evenodd" clip-rule="evenodd" d="M3.11612 7.11612C3.60427 6.62796 4.39573 6.62796 4.88388 7.11612L11.5 13.7322L18.1161 7.11612C18.6043 6.62796 19.3957 6.62796 19.8839 7.11612C20.372 7.60427 20.372 8.39573 19.8839 8.88388L12.3839 16.3839C11.8957 16.872 11.1043 16.872 10.6161 16.3839L3.11612 8.88388C2.62796 8.39573 2.62796 7.60427 3.11612 7.11612Z"></path>
</symbol>
<symbol viewBox="0 0 24 24" id="dashboard">
<path fill-rule="evenodd" clip-rule="evenodd" d="M11.7495 4.30152L5.5 10.5517V20.0343H8.25V16.4093C8.25 15.0979 9.31364 14.0343 10.625 14.0343H12.875C14.1864 14.0343 15.25 15.0979 15.25 16.4093V20.0343H18V10.552L11.7495 4.30152ZM20.5 13.052L20.6161 13.1681C21.1043 13.6563 21.8957 13.6563 22.3839 13.1681C22.872 12.68 22.872 11.8885 22.3839 11.4004L13.4289 2.44537C12.5012 1.51766 10.9985 1.5191 10.0711 2.44436L1.11607 11.4004C0.627939 11.8886 0.627983 12.6801 1.11617 13.1682C1.60435 13.6563 2.3958 13.6563 2.88393 13.1681L3 13.052V20.1593C3 21.4706 4.06364 22.5343 5.375 22.5343H18.125C19.4364 22.5343 20.5 21.4706 20.5 20.1593V13.052ZM12.75 20.0343H10.75V16.5343H12.75V20.0343Z"></path>
</symbol>
<symbol viewBox="0 0 24 24" id="events">
<path fill-rule="evenodd" clip-rule="evenodd" d="M6.75 1.75C7.44036 1.75 8 2.30964 8 3V4H16V3C16 2.30964 16.5596 1.75 17.25 1.75C17.9404 1.75 18.5 2.30964 18.5 3V4H18.75C19.6783 4 20.5685 4.36875 21.2249 5.02513C21.8813 5.6815 22.25 6.57174 22.25 7.5V18.75C22.25 19.6783 21.8813 20.5685 21.2249 21.2249C20.5685 21.8813 19.6783 22.25 18.75 22.25H5.25C4.32174 22.25 3.4315 21.8813 2.77513 21.2249C2.11875 20.5685 1.75 19.6783 1.75 18.75V7.5C1.75 6.57174 2.11875 5.6815 2.77513 5.02513C3.4315 4.36875 4.32174 4 5.25 4H5.5V3C5.5 2.30964 6.05964 1.75 6.75 1.75ZM5.25 6.5C4.98478 6.5 4.73043 6.60536 4.54289 6.79289C4.35536 6.98043 4.25 7.23478 4.25 7.5V7.89589C4.57167 7.79998 4.90826 7.75 5.25 7.75H18.75C19.0917 7.75 19.4283 7.79998 19.75 7.89589V7.5C19.75 7.23478 19.6446 6.98043 19.4571 6.79289C19.2696 6.60536 19.0152 6.5 18.75 6.5H5.25ZM19.75 11.25C19.75 10.9848 19.6446 10.7304 19.4571 10.5429C19.2696 10.3554 19.0152 10.25 18.75 10.25H5.25C4.98478 10.25 4.73043 10.3554 4.54289 10.5429C4.35536 10.7304 4.25 10.9848 4.25 11.25V18.75C4.25 19.0152 4.35536 19.2696 4.54289 19.4571C4.73043 19.6446 4.98478 19.75 5.25 19.75H18.75C19.0152 19.75 19.2696 19.6446 19.4571 19.4571C19.6446 19.2696 19.75 19.0152 19.75 18.75V11.25Z"></path>
</symbol>
<symbol id="flag" x="0px" y="0px" viewBox="0 0 24 24" style="enable-background:new 0 0 24 24;" xml:space="preserve">
<path d="M3,22c-0.6,0-1-0.4-1-1v-6c0,0,0,0,0,0V4.5c0,0,0,0,0,0V3c0-0.6,0.4-1,1-1s1,0.4,1,1v0.2l1.5-0.4c2.3-0.6,4.8-0.3,6.9,0.8
	l0.1,0.1c1.7,0.8,3.6,1.1,5.4,0.6l3.1-0.7c0.3-0.1,0.6,0,0.9,0.2c0.2,0.2,0.4,0.5,0.3,0.9c-0.4,3.4-0.4,6.9,0,10.3
	c0.1,0.5-0.3,1-0.8,1.1l-3.1,0.7c-2.3,0.5-4.7,0.3-6.8-0.8l-0.1-0.1C9.8,15,7.9,14.8,6,15.3l-2,0.5V21C4,21.6,3.6,22,3,22z M7.9,13
	c1.5,0,3.1,0.4,4.5,1.1l0.1,0.1c1.7,0.8,3.6,1.1,5.4,0.6l2.3-0.5c-0.3-2.8-0.3-5.6,0-8.4l-1.8,0.4c-2.3,0.5-4.7,0.3-6.8-0.8
	l-0.1-0.1C9.8,4.5,7.9,4.3,6,4.8L4,5.3v8.4l1.5-0.4C6.3,13.1,7.1,13,7.9,13z"></path>
</symbol>
<symbol id="hide" x="0px" y="0px" viewBox="0 0 24 24" style="enable-background:new 0 0 24 24;" xml:space="preserve">
<path d="M21,22.2c-0.3,0-0.6-0.1-0.9-0.4l-3.2-3.2c0,0,0,0,0,0L13.2,15c0,0,0,0,0,0L9,10.8c0,0,0,0,0,0L5.4,7.1c0,0,0,0,0,0L2.1,3.9
	c-0.5-0.5-0.5-1.3,0-1.8s1.3-0.5,1.8,0l2.5,2.5C8.1,3.7,10,3.2,12,3.2c0,0,0,0,0,0c5.2,0,9.8,3.5,11.3,8.4c0.1,0.2,0.1,0.5,0,0.7
	c-0.6,2.2-1.9,4.1-3.6,5.5l2.2,2.2c0.5,0.5,0.5,1.3,0,1.8C21.6,22.1,21.3,22.2,21,22.2z M15.8,14l2.1,2.1c1.3-1.1,2.3-2.5,2.9-4.1
	c-1.3-3.7-4.8-6.2-8.8-6.2c0,0,0,0,0,0c-1.3,0-2.5,0.3-3.7,0.8L10,8.2c0.1-0.1,0.2-0.1,0.4-0.2c1-0.4,2.2-0.4,3.3,0
	c0.5,0.2,1,0.5,1.4,0.9c0.4,0.4,0.7,0.9,0.9,1.4c0.2,0.5,0.3,1.1,0.3,1.6s-0.1,1.1-0.3,1.6C15.9,13.8,15.8,13.9,15.8,14z M12,10.3
	l1.7,1.7c0-0.2,0-0.4-0.1-0.7c-0.1-0.2-0.2-0.4-0.4-0.6c-0.2-0.2-0.4-0.3-0.6-0.4C12.5,10.3,12.2,10.3,12,10.3z M12,20.8
	c-5.2,0-9.8-3.5-11.3-8.4c-0.1-0.2-0.1-0.5,0-0.7C1.2,10.1,2,8.7,3,7.4c0.4-0.5,1.2-0.6,1.8-0.1C5.3,7.7,5.4,8.5,4.9,9
	c-0.7,0.9-1.3,1.9-1.7,3c1.3,3.7,4.8,6.2,8.8,6.2c0.9,0,1.7-0.1,2.5-0.3c0.7-0.2,1.4,0.2,1.5,0.9c0.2,0.7-0.2,1.4-0.9,1.5
	C14.2,20.6,13.1,20.8,12,20.8z"></path>
</symbol>
<symbol viewBox="0 0 24 24" id="link">
<path d="M13.19 8.68803C13.8399 8.99828 14.4057 9.45996 14.8401 10.0343C15.2745 10.6086 15.5648 11.2787 15.6865 11.9885C15.8081 12.6982 15.7577 13.4268 15.5394 14.113C15.3212 14.7992 14.9414 15.423 14.432 15.932L9.93203 20.432C9.08811 21.2759 7.94351 21.7501 6.75003 21.7501C5.55655 21.7501 4.41195 21.2759 3.56803 20.432C2.72411 19.5881 2.25 18.4435 2.25 17.25C2.25 16.0565 2.72411 14.9119 3.56803 14.068L5.32503 12.311M18.675 11.689L20.432 9.93203C21.2759 9.08811 21.7501 7.94351 21.7501 6.75003C21.7501 5.55655 21.2759 4.41195 20.432 3.56803C19.5881 2.72411 18.4435 2.25 17.25 2.25C16.0565 2.25 14.9119 2.72411 14.068 3.56803L9.56803 8.06803C9.05866 8.57703 8.67889 9.20084 8.46061 9.88705C8.24233 10.5733 8.19191 11.3018 8.3136 12.0116C8.43528 12.7213 8.72552 13.3915 9.15992 13.9658C9.59432 14.5401 10.1602 15.0018 10.81 15.312" stroke="black" stroke-width="2" stroke-linecap="round" stroke-linejoin="round"></path>
</symbol>
<symbol viewBox="0 0 24 24" id="location">
<path d="M15 10.5C15 11.2956 14.6839 12.0587 14.1213 12.6213C13.5587 13.1839 12.7956 13.5 12 13.5C11.2044 13.5 10.4413 13.1839 9.87868 12.6213C9.31607 12.0587 9 11.2956 9 10.5C9 9.70435 9.31607 8.94129 9.87868 8.37868C10.4413 7.81607 11.2044 7.5 12 7.5C12.7956 7.5 13.5587 7.81607 14.1213 8.37868C14.6839 8.94129 15 9.70435 15 10.5Z" stroke="black" stroke-width="2" stroke-linecap="round" stroke-linejoin="round"></path>
<path d="M19.5 10.5C19.5 17.642 12 21.75 12 21.75C12 21.75 4.5 17.642 4.5 10.5C4.5 8.51088 5.29018 6.60322 6.6967 5.1967C8.10322 3.79018 10.0109 3 12 3C13.9891 3 15.8968 3.79018 17.3033 5.1967C18.7098 6.60322 19.5 8.51088 19.5 10.5Z" stroke="black" stroke-width="2" stroke-linecap="round" stroke-linejoin="round"></path>
</symbol>
<symbol viewBox="0 0 24 24" id="logout">
<path fill-rule="evenodd" clip-rule="evenodd" d="M21.8839 11.1161C22.372 11.6043 22.372 12.3957 21.8839 12.8839L17.3839 17.3839C16.8957 17.872 16.1043 17.872 15.6161 17.3839C15.128 16.8957 15.128 16.1043 15.6161 15.6161L17.9822 13.25L7.5 13.25C6.80964 13.25 6.25 12.6904 6.25 12C6.25 11.3096 6.80964 10.75 7.5 10.75L17.9822 10.75L15.6161 8.38388C15.128 7.89573 15.128 7.10427 15.6161 6.61612C16.1043 6.12796 16.8957 6.12796 17.3839 6.61612L21.8839 11.1161ZM8.75 3C8.75 3.69036 8.19036 4.25 7.5 4.25L5.25 4.25C4.98478 4.25 4.73043 4.35536 4.54289 4.54289C4.35536 4.73043 4.25 4.98478 4.25 5.25L4.25 18.75C4.25 19.0152 4.35536 19.2696 4.54289 19.4571C4.73043 19.6446 4.98478 19.75 5.25 19.75L7.5 19.75C8.19036 19.75 8.75 20.3096 8.75 21C8.75 21.6904 8.19036 22.25 7.5 22.25L5.25 22.25C4.32174 22.25 3.4315 21.8812 2.77512 21.2249C2.11875 20.5685 1.75 19.6783 1.75 18.75L1.75 5.25C1.75 4.32174 2.11875 3.4315 2.77513 2.77513C3.4315 2.11875 4.32174 1.75 5.25 1.75L7.5 1.75C8.19036 1.75 8.75 2.30964 8.75 3Z"></path>
</symbol>
<symbol id="messages" x="0px" y="0px" viewBox="0 0 22 19" style="enable-background:new 0 0 22 19;" xml:space="preserve">
<path d="M18.5,18.2h-15c-0.9,0-1.8-0.4-2.5-1c-0.7-0.7-1-1.5-1-2.5V4.2c0-0.9,0.4-1.8,1-2.5c0.7-0.7,1.5-1,2.5-1h15
	c0.9,0,1.8,0.4,2.5,1c0.7,0.7,1,1.5,1,2.5v10.5c0,0.9-0.4,1.8-1,2.5C20.3,17.9,19.4,18.2,18.5,18.2z M2.5,8v6.8
	c0,0.3,0.1,0.5,0.3,0.7c0.2,0.2,0.4,0.3,0.7,0.3h15c0.3,0,0.5-0.1,0.7-0.3c0.2-0.2,0.3-0.4,0.3-0.7V8l-6.7,4.1
	c-1.1,0.7-2.6,0.7-3.7,0L2.5,8z M2.5,4.5c0,0.2,0,0.3,0.1,0.5C2.7,5.1,2.8,5.2,3,5.3l7.5,4.6c0.3,0.2,0.7,0.2,1,0L19,5.3
	c0.1-0.1,0.3-0.2,0.3-0.4c0.1-0.1,0.1-0.3,0.1-0.5V4.2c0-0.3-0.1-0.5-0.3-0.7c-0.2-0.2-0.4-0.3-0.7-0.3h-15C3.2,3.2,3,3.3,2.8,3.5
	C2.6,3.7,2.5,4,2.5,4.2V4.5z"></path>
</symbol>
<symbol viewBox="0 0 24 24" id="muted">
<path fill-rule="evenodd" clip-rule="evenodd" d="M11.75 4.6641V19.3357L7.45711 15.0428C7.26957 14.8552 7.01522 14.7499 6.75 14.7499H4.51C3.97971 14.7499 3.62576 14.4538 3.53604 14.1301C3.3455 13.4364 3.24929 12.7203 3.25 12.0009C3.25 11.2614 3.34972 10.5467 3.53607 9.86956C3.62565 9.54557 3.97898 9.24989 4.51 9.24989H6.75C7.01522 9.24989 7.26957 9.14453 7.45711 8.957L11.75 4.6641ZM11.659 2.34409C11.9983 2.27669 12.3499 2.31135 12.6695 2.44367C12.9891 2.576 13.2623 2.80006 13.4546 3.08757C13.6469 3.37507 13.7497 3.71311 13.75 4.05901V19.9399C13.7497 20.2858 13.6469 20.6247 13.4546 20.9122C13.2623 21.1997 12.9891 21.4238 12.6695 21.5561C12.3499 21.6884 11.9983 21.7231 11.659 21.6557C11.3198 21.5883 11.0081 21.4219 10.7633 21.1774L6.33579 16.7499H4.51C3.28059 16.7499 1.98663 16.0323 1.60811 14.6622L1.60775 14.6609C1.36949 13.7938 1.24916 12.8986 1.25 11.9994C1.25005 11.0792 1.3743 10.1871 1.60786 9.33853C1.98642 7.96665 3.28121 7.24989 4.51 7.24989H6.33579L10.7629 2.82278C11.0076 2.57835 11.3198 2.41149 11.659 2.34409ZM16.5429 9.04278C16.9334 8.65226 17.5666 8.65226 17.9571 9.04278L19.5 10.5857L21.0429 9.04278C21.4334 8.65226 22.0666 8.65226 22.4571 9.04278C22.8476 9.43331 22.8476 10.0665 22.4571 10.457L20.9142 11.9999L22.4571 13.5428C22.8476 13.9333 22.8476 14.5665 22.4571 14.957C22.0666 15.3475 21.4334 15.3475 21.0429 14.957L19.5 13.4141L17.9571 14.957C17.5666 15.3475 16.9334 15.3475 16.5429 14.957C16.1524 14.5665 16.1524 13.9333 16.5429 13.5428L18.0858 11.9999L16.5429 10.457C16.1524 10.0665 16.1524 9.43331 16.5429 9.04278Z"></path>
</symbol>
<symbol viewBox="0 0 24 24" id="no">
<path fill-rule="evenodd" clip-rule="evenodd" d="M4.92895 4.92895C6.80432 3.05357 9.34788 2 12.0001 2C14.6522 2 17.1958 3.05357 19.0712 4.92895C20.9465 6.80432 22.0001 9.34788 22.0001 12.0001C22.0001 14.6522 20.9465 17.1958 19.0712 19.0712C17.1958 20.9465 14.6522 22.0001 12.0001 22.0001C9.34788 22.0001 6.80432 20.9465 4.92895 19.0712C3.05357 17.1958 2 14.6522 2 12.0001C2 9.34788 3.05357 6.80432 4.92895 4.92895ZM7.09461 5.6804L18.3197 16.9055C19.4031 15.5098 20.0001 13.7857 20.0001 12.0001C20.0001 9.87831 19.1572 7.84346 17.6569 6.34316C16.1566 4.84286 14.1218 4 12.0001 4C10.2144 4 8.49033 4.59698 7.09461 5.6804ZM16.9055 18.3197L5.6804 7.09461C4.59698 8.49033 4 10.2144 4 12.0001C4 14.1218 4.84286 16.1566 6.34316 17.6569C7.84346 19.1572 9.87831 20.0001 12.0001 20.0001C13.7857 20.0001 15.5098 19.4031 16.9055 18.3197Z"></path>
</symbol>
<symbol id="notifications" x="0px" y="0px" viewBox="0 0 24 25" style="enable-background:new 0 0 24 25;" xml:space="preserve">
<path d="M12,23.1c-0.7,0-1.3-0.2-1.9-0.5c-0.6-0.3-1.1-0.7-1.5-1.3c-0.4-0.5-0.7-1.2-0.8-1.8c0-0.2,0-0.4-0.1-0.5
	c-1.5-0.3-3-0.7-4.5-1.2c-0.4-0.1-0.7-0.5-0.8-0.9c-0.1-0.4,0-0.8,0.3-1.1c1.3-1.4,2-3.3,2-5.2V9.8c0-1.9,0.8-3.8,2.1-5.1
	c1.4-1.4,3.2-2.1,5.1-2.1c1.9,0,3.8,0.8,5.1,2.1c1.4,1.4,2.1,3.2,2.1,5.1v0.8c0,1.9,0.7,3.8,2,5.2c0.3,0.3,0.4,0.7,0.3,1.1
	c-0.1,0.4-0.4,0.7-0.8,0.9c-1.5,0.5-3,0.9-4.5,1.2c0,0.2,0,0.4-0.1,0.5c-0.1,0.7-0.4,1.3-0.8,1.8c-0.4,0.5-0.9,1-1.5,1.3
	C13.3,22.9,12.7,23.1,12,23.1z M10.3,19.3c0.1,0.2,0.2,0.4,0.3,0.6c0.2,0.2,0.4,0.4,0.6,0.5c0.5,0.2,1.1,0.2,1.6,0
	c0.2-0.1,0.5-0.3,0.6-0.5c0.1-0.2,0.2-0.4,0.3-0.6C12.6,19.3,11.4,19.3,10.3,19.3z M9.3,16.7c1.8,0.2,3.6,0.2,5.4,0c0,0,0,0,0,0
	c1.2-0.1,2.4-0.4,3.5-0.7c-1-1.6-1.5-3.5-1.5-5.4V9.8c0-1.3-0.5-2.5-1.4-3.4c-0.9-0.9-2.1-1.4-3.4-1.4c-1.3,0-2.5,0.5-3.4,1.4
	C7.7,7.4,7.2,8.6,7.2,9.8v0.8c0,1.9-0.5,3.8-1.5,5.4C6.9,16.3,8.1,16.5,9.3,16.7C9.3,16.7,9.3,16.7,9.3,16.7z"></path>
</symbol>
<symbol viewBox="0 0 24 24" id="profile">
<path fill-rule="evenodd" clip-rule="evenodd" d="M12 3.5C11.3369 3.5 10.7011 3.76339 10.2322 4.23223C9.76337 4.70107 9.49998 5.33696 9.49998 6C9.49998 6.66304 9.76337 7.29893 10.2322 7.76777C10.7011 8.23661 11.3369 8.5 12 8.5C12.663 8.5 13.2989 8.23661 13.7677 7.76777C14.2366 7.29893 14.5 6.66304 14.5 6C14.5 5.33696 14.2366 4.70107 13.7677 4.23223C13.2989 3.76339 12.663 3.5 12 3.5ZM8.46444 2.46447C9.40213 1.52678 10.6739 1 12 1C13.3261 1 14.5978 1.52678 15.5355 2.46447C16.4732 3.40215 17 4.67392 17 6C17 7.32608 16.4732 8.59785 15.5355 9.53553C14.5978 10.4732 13.3261 11 12 11C10.6739 11 9.40213 10.4732 8.46444 9.53553C7.52676 8.59785 6.99998 7.32608 6.99998 6C6.99998 4.67392 7.52676 3.40215 8.46444 2.46447ZM12 13.9905C10.3601 13.9905 8.78583 14.635 7.61679 15.7851C6.64361 16.7425 6.01614 17.9864 5.81776 19.3223C7.72922 20.0821 9.81461 20.5 12 20.5L12.0017 20.5C14.1205 20.5029 16.2178 20.1021 18.1821 19.322C17.9837 17.9862 17.3563 16.7425 16.3832 15.7851C15.2141 14.635 13.6399 13.9905 12 13.9905ZM5.86352 14.003C7.50016 12.3928 9.70408 11.4905 12 11.4905C14.2959 11.4905 16.4998 12.3928 18.1364 14.003C19.7731 15.6131 20.7113 17.802 20.7488 20.0976C20.7569 20.5936 20.4709 21.0475 20.02 21.2542C17.5037 22.4081 14.7674 23.0036 11.9991 23C9.1399 22.9999 6.4226 22.3755 3.97949 21.254C3.52881 21.0471 3.24305 20.5934 3.25114 20.0976C3.28863 17.802 4.22687 15.6131 5.86352 14.003ZM11.9991 23C11.9988 23 11.9986 23 11.9983 23L12 21.75V23C11.9997 23 11.9994 23 11.9991 23Z"></path>
</symbol>
<symbol viewBox="0 0 24 24" id="qrCode">
<path fill-rule="evenodd" clip-rule="evenodd" d="M4.875 4.75C4.80628 4.75 4.75 4.80628 4.75 4.875V9.375C4.75 9.40815 4.76317 9.43995 4.78661 9.46339C4.81005 9.48683 4.84185 9.5 4.875 9.5H9.375C9.44372 9.5 9.5 9.44372 9.5 9.375V4.875C9.5 4.80628 9.44372 4.75 9.375 4.75H4.875ZM2.75 4.875C2.75 3.70172 3.70172 2.75 4.875 2.75H9.375C10.5483 2.75 11.5 3.70172 11.5 4.875V9.375C11.5 10.5483 10.5483 11.5 9.375 11.5H4.875C4.31141 11.5 3.77091 11.2761 3.3724 10.8776C2.97388 10.4791 2.75 9.93859 2.75 9.375V4.875ZM14.625 4.75C14.5563 4.75 14.5 4.80628 14.5 4.875V9.375C14.5 9.40815 14.5132 9.43995 14.5366 9.46339C14.5601 9.48683 14.5918 9.5 14.625 9.5H19.125C19.1937 9.5 19.25 9.44372 19.25 9.375V4.875C19.25 4.80628 19.1937 4.75 19.125 4.75H14.625ZM12.5 4.875C12.5 3.70172 13.4517 2.75 14.625 2.75H19.125C20.2983 2.75 21.25 3.70172 21.25 4.875V9.375C21.25 10.5483 20.2983 11.5 19.125 11.5H14.625C14.0614 11.5 13.5209 11.2761 13.1224 10.8776C12.7239 10.4791 12.5 9.93859 12.5 9.375V4.875ZM4.875 14.5C4.80628 14.5 4.75 14.5563 4.75 14.625V19.125C4.75 19.1582 4.76317 19.1899 4.78661 19.2134C4.81005 19.2368 4.84185 19.25 4.875 19.25H9.375C9.44372 19.25 9.5 19.1937 9.5 19.125V14.625C9.5 14.5563 9.44372 14.5 9.375 14.5H4.875ZM2.75 14.625C2.75 13.4517 3.70172 12.5 4.875 12.5H9.375C10.5483 12.5 11.5 13.4517 11.5 14.625V19.125C11.5 20.2983 10.5483 21.25 9.375 21.25H4.875C4.31142 21.25 3.77091 21.0261 3.3724 20.6276C2.97388 20.2291 2.75 19.6886 2.75 19.125V14.625Z"></path>
<path fill-rule="evenodd" clip-rule="evenodd" d="M5.75 6.75C5.75 6.19772 6.19772 5.75 6.75 5.75H7.5C8.05228 5.75 8.5 6.19772 8.5 6.75V7.5C8.5 8.05228 8.05228 8.5 7.5 8.5H6.75C6.19772 8.5 5.75 8.05228 5.75 7.5V6.75ZM15.5 6.75C15.5 6.19772 15.9477 5.75 16.5 5.75H17.25C17.8023 5.75 18.25 6.19772 18.25 6.75V7.5C18.25 8.05228 17.8023 8.5 17.25 8.5H16.5C15.9477 8.5 15.5 8.05228 15.5 7.5V6.75ZM12.5 13.5C12.5 12.9477 12.9477 12.5 13.5 12.5H14.25C14.8023 12.5 15.25 12.9477 15.25 13.5V14.25C15.25 14.8023 14.8023 15.25 14.25 15.25H13.5C12.9477 15.25 12.5 14.8023 12.5 14.25V13.5ZM18.5 13.5C18.5 12.9477 18.9477 12.5 19.5 12.5H20.25C20.8023 12.5 21.25 12.9477 21.25 13.5V14.25C21.25 14.8023 20.8023 15.25 20.25 15.25H19.5C18.9477 15.25 18.5 14.8023 18.5 14.25V13.5ZM5.75 16.5C5.75 15.9477 6.19772 15.5 6.75 15.5H7.5C8.05228 15.5 8.5 15.9477 8.5 16.5V17.25C8.5 17.8023 8.05228 18.25 7.5 18.25H6.75C6.19772 18.25 5.75 17.8023 5.75 17.25V16.5ZM15.5 16.5C15.5 15.9477 15.9477 15.5 16.5 15.5H17.25C17.8023 15.5 18.25 15.9477 18.25 16.5V17.25C18.25 17.8023 17.8023 18.25 17.25 18.25H16.5C15.9477 18.25 15.5 17.8023 15.5 17.25V16.5ZM12.5 19.5C12.5 18.9477 12.9477 18.5 13.5 18.5H14.25C14.8023 18.5 15.25 18.9477 15.25 19.5V20.25C15.25 20.8023 14.8023 21.25 14.25 21.25H13.5C12.9477 21.25 12.5 20.8023 12.5 20.25V19.5ZM18.5 19.5C18.5 18.9477 18.9477 18.5 19.5 18.5H20.25C20.8023 18.5 21.25 18.9477 21.25 19.5V20.25C21.25 20.8023 20.8023 21.25 20.25 21.25H19.5C18.9477 21.25 18.5 20.8023 18.5 20.25V19.5Z"></path>
</symbol>
<symbol viewBox="0 0 24 24" id="search">
<path fill-rule="evenodd" clip-rule="evenodd" d="M4.31192 4.31192C5.95292 2.67093 8.17859 1.74902 10.4993 1.74902C12.82 1.74902 15.0457 2.67093 16.6867 4.31192C18.3277 5.95292 19.2496 8.17859 19.2496 10.4993C19.2496 12.3993 18.6317 14.2355 17.5071 15.7394L21.8837 20.1159C22.3718 20.6041 22.3718 21.3955 21.8837 21.8837C21.3955 22.3718 20.6041 22.3718 20.1159 21.8837L15.7394 17.5071C14.2355 18.6317 12.3993 19.2496 10.4993 19.2496C8.17859 19.2496 5.95292 18.3277 4.31192 16.6867C2.67093 15.0457 1.74902 12.82 1.74902 10.4993C1.74902 8.17859 2.67093 5.95292 4.31192 4.31192ZM10.4993 4.24902C8.84163 4.24902 7.25184 4.90753 6.07969 6.07969C4.90753 7.25184 4.24902 8.84163 4.24902 10.4993C4.24902 12.157 4.90753 13.7468 6.07969 14.9189C7.25184 16.0911 8.84163 16.7496 10.4993 16.7496C12.157 16.7496 13.7468 16.0911 14.9189 14.9189C16.0911 13.7468 16.7496 12.157 16.7496 10.4993C16.7496 8.84163 16.0911 7.25184 14.9189 6.07969C13.7468 4.90753 12.157 4.24902 10.4993 4.24902Z"></path>
</symbol>
<symbol id="settings" x="0px" y="0px" viewBox="0 0 24 24" style="enable-background:new 0 0 24 24;" xml:space="preserve">
<path d="M13.3,22.2h-2.6c-1.2,0-2.1-0.8-2.3-2L8.1,19C8,19,8,18.9,7.9,18.9l-1.2,0.4c-0.5,0.2-1.1,0.2-1.6,0c-0.5-0.2-1-0.6-1.3-1
	L2.5,16c-0.3-0.5-0.4-1.1-0.3-1.6C2.3,13.8,2.6,13.3,3,13l1-0.8c0-0.1,0-0.2,0-0.3L3,11c-0.4-0.4-0.7-0.9-0.8-1.4
	C2.1,9.1,2.2,8.5,2.5,8l1.3-2.2c0.3-0.5,0.7-0.9,1.3-1c0.5-0.2,1.1-0.2,1.6,0l1.2,0.5L8.1,5l0.2-1.3c0.2-1.1,1.2-2,2.3-2h2.6
	c1.2,0,2.2,0.8,2.3,2L15.9,5C16,5,16,5.1,16.1,5.1l1.2-0.4c0.5-0.2,1.1-0.2,1.6,0c0.5,0.2,1,0.6,1.3,1L21.5,8
	c0.3,0.5,0.4,1.1,0.3,1.6c-0.1,0.5-0.4,1-0.8,1.4l-1,0.8c0,0.1,0,0.2,0,0.3l1,0.8c0.9,0.7,1.1,2,0.5,3l-1.3,2.2
	c-0.3,0.5-0.7,0.9-1.3,1s-1.1,0.2-1.6,0l-1.2-0.5C16,18.9,16,19,15.9,19l-0.2,1.3C15.5,21.4,14.5,22.2,13.3,22.2z M10.8,19.8h2.4
	l0.2-1.2c0.1-0.7,0.6-1.4,1.3-1.8l0.2-0.1c0.7-0.4,1.5-0.5,2.2-0.2l1.1,0.4l1.2-2.1l-0.9-0.8c-0.6-0.5-0.9-1.2-0.9-2v-0.2
	c0-0.8,0.3-1.5,0.9-2l0.9-0.8l-1.2-2.1L17,7.5c-0.7,0.3-1.5,0.2-2.2-0.2l-0.2-0.1c-0.7-0.4-1.2-1-1.3-1.8l-0.2-1.2h-2.4l-0.2,1.2
	C10.5,6.2,10,6.8,9.3,7.2L9.2,7.3C8.5,7.7,7.7,7.8,7,7.5L5.9,7.1L4.7,9.2l0.9,0.8c0.6,0.5,0.9,1.2,0.9,2v0.2c0,0.8-0.3,1.5-0.9,2
	l-0.9,0.8l1.2,2.1L7,16.5c0.7-0.3,1.5-0.2,2.2,0.2l0.2,0.1c0.7,0.4,1.2,1,1.3,1.8L10.8,19.8z M18.1,7L18.1,7L18.1,7z M10.8,4.1
	C10.8,4.1,10.8,4.1,10.8,4.1C10.8,4.1,10.8,4.1,10.8,4.1z M9.6,3.9L9.6,3.9L9.6,3.9z"></path>
<path d="M12,16.2c-1.1,0-2.2-0.4-3-1.2c-0.8-0.8-1.2-1.9-1.2-3S8.2,9.8,9,9c0.8-0.8,1.9-1.2,3-1.2s2.2,0.4,3,1.2
	c0.8,0.8,1.2,1.9,1.2,3s-0.4,2.2-1.2,3S13.1,16.2,12,16.2z M12,10.2c-0.5,0-0.9,0.2-1.2,0.5c-0.3,0.3-0.5,0.8-0.5,1.2
	s0.2,0.9,0.5,1.2c0.7,0.7,1.8,0.7,2.5,0c0.3-0.3,0.5-0.8,0.5-1.2s-0.2-0.9-0.5-1.2C12.9,10.4,12.5,10.2,12,10.2z"></path>
</symbol>
<symbol viewBox="0 0 21 24" id="speech">
<path d="M7.5 8.25H16.5M7.5 11.25H12M2.25 12.76C2.25 14.36 3.373 15.754 4.957 15.987C6.086 16.153 7.227 16.28 8.38 16.366C8.73 16.392 9.05 16.576 9.245 16.867L12 21L14.755 16.867C14.8516 16.7233 14.9798 16.6034 15.1297 16.5166C15.2795 16.4298 15.4472 16.3783 15.62 16.366C16.7652 16.2805 17.9069 16.1541 19.043 15.987C20.627 15.754 21.75 14.361 21.75 12.759V6.741C21.75 5.139 20.627 3.746 19.043 3.513C16.711 3.17072 14.357 2.99926 12 3C9.608 3 7.256 3.175 4.957 3.513C3.373 3.746 2.25 5.14 2.25 6.741V12.759V12.76Z" stroke="black" stroke-width="2" stroke-linecap="round" stroke-linejoin="round"></path>
</symbol>
<symbol viewBox="0 0 24 24" id="threeDots">
<path fill-rule="evenodd" clip-rule="evenodd" d="M5 10C3.89543 10 3 10.8954 3 12C3 13.1046 3.89543 14 5 14C6.10457 14 7 13.1046 7 12C7 10.8954 6.10457 10 5 10ZM12 10C10.8954 10 10 10.8954 10 12C10 13.1046 10.8954 14 12 14C13.1046 14 14 13.1046 14 12C14 10.8954 13.1046 10 12 10ZM17 12C17 10.8954 17.8954 10 19 10C20.1046 10 21 10.8954 21 12C21 13.1046 20.1046 14 19 14C17.8954 14 17 13.1046 17 12Z"></path>
</symbol>
<symbol id="trash" x="0px" y="0px" viewBox="0 0 24 24" style="enable-background:new 0 0 24 24;" xml:space="preserve">
<style type="text/css">
	.st0{fill:#D94830;}
</style>
<path class="st0" d="M15.9,22.8H8.1c-0.8,0-1.6-0.3-2.2-0.9c-0.6-0.6-1-1.3-1-2.1l-1-12.8C3.3,7,2.9,6.6,2.8,6.1
	C2.7,5.6,3,5.1,3.6,5c0.3-0.1,0.7-0.1,1-0.2c0,0,0,0,0,0c0.9-0.1,1.7-0.2,2.6-0.3c0-1.7,1.3-3.1,3.1-3.2c1.1,0,2.3,0,3.4,0
	c1.7,0.1,3.1,1.5,3.1,3.2c0.9,0.1,1.8,0.2,2.6,0.3c0,0,0,0,0,0c0.3,0.1,0.7,0.1,1,0.2c0.5,0.1,0.9,0.6,0.8,1.2
	C21.1,6.7,20.7,7,20.1,7l-1,12.8c-0.1,0.8-0.4,1.6-1,2.1S16.7,22.8,15.9,22.8z M5.8,6.6l1,12.9c0,0.3,0.2,0.6,0.4,0.8
	c0.2,0.2,0.5,0.3,0.8,0.3h7.8c0.3,0,0.6-0.1,0.9-0.3c0.2-0.2,0.4-0.5,0.4-0.8l1-12.9c-0.8-0.1-1.7-0.2-2.5-0.3c0,0,0,0,0,0
	c-2.4-0.2-4.9-0.2-7.3,0c0,0,0,0,0,0C7.5,6.5,6.7,6.5,5.8,6.6z M12,4.2c0.9,0,1.8,0,2.7,0.1c-0.1-0.6-0.5-1-1.1-1
	c-1.1,0-2.2,0-3.3,0c-0.6,0-1,0.5-1.1,1C10.2,4.3,11.1,4.2,12,4.2z M14.4,19C14.4,19,14.4,19,14.4,19c-0.6,0-1-0.5-1-1l0.3-9
	c0-0.6,0.5-1,1-1c0.6,0,1,0.5,1,1l-0.3,9C15.4,18.6,14.9,19,14.4,19z M9.6,19c-0.5,0-1-0.4-1-1L8.3,9c0-0.6,0.4-1,1-1
	c0.6,0,1,0.4,1,1l0.3,9C10.6,18.5,10.2,19,9.6,19C9.6,19,9.6,19,9.6,19z"></path>
</symbol>
</defs>
</svg>
