<?xml version="1.0" encoding="utf-8"?>
<!-- Generator: Adobe Illustrator 27.9.5, SVG Export Plug-In . SVG Version: 9.03 Build 54986)  -->
<svg version="1.1" id="Layer_1" xmlns="http://www.w3.org/2000/svg" xmlns:xlink="http://www.w3.org/1999/xlink" x="0px" y="0px"
	 viewBox="0 0 169.8 79.3" style="enable-background:new 0 0 169.8 79.3;" xml:space="preserve">
<style type="text/css">
	.st0{fill:none;}
</style>
<g>
	<polygon points="26.4,8.1 26.4,8.1 26.5,7.3 	"/>
	<polygon points="166.2,0.5 135.6,0.5 134.7,0.5 134.7,1.3 134.7,35.6 134.7,36.5 135.6,36.5 142.5,36.5 143.4,36.5 143.4,35.6
		143.4,23 162.7,23 163.5,23 163.5,22.1 163.5,16.4 163.5,15.5 162.7,15.5 143.4,15.5 143.4,8.3 166.2,8.3 167.1,8.3 167.1,7.4
		167.1,1.3 167.1,0.5 	"/>
	<polygon points="71.6,35.6 71.6,35.6 71.3,34.8 	"/>
	<path d="M78.1,5.1L78.1,5.1C78.1,5.1,78.1,5.1,78.1,5.1C78.1,5.1,78.1,5.1,78.1,5.1L78.1,5.1c-1.8-1.6-4-2.9-6.5-3.8
		C69.1,0.4,66.4,0,63.4,0c-3,0-5.8,0.4-8.3,1.3l0,0c-2.5,0.9-4.7,2.1-6.5,3.8v0c-1.8,1.6-3.2,3.6-4.2,5.8c-1,2.3-1.5,4.8-1.5,7.5
		c0,2.7,0.5,5.2,1.5,7.5l0.6-0.3l-0.6,0.3l0,0l0.8-0.3l0,0l-0.8,0.3c1,2.3,2.4,4.2,4.2,5.9l0,0l0.6-0.6l0,0v0l-0.6,0.6
		c1.8,1.6,4,2.9,6.5,3.8l0.3-0.8l0,0l-0.3,0.8l0,0c2.5,0.9,5.3,1.3,8.3,1.3c3,0,5.8-0.4,8.3-1.3l-0.3-0.8l0,0h0l0.3,0.8
		c2.5-0.9,4.7-2.2,6.5-3.8l0,0c0,0,0,0,0,0c0,0,0,0,0,0l0,0c1.8-1.6,3.2-3.6,4.2-5.9l-0.8-0.3v0l0,0l0.8,0.3l0,0
		c1-2.3,1.5-4.8,1.5-7.5c0-2.7-0.5-5.2-1.5-7.5C81.3,8.7,79.9,6.7,78.1,5.1z M68.4,29.1l-0.3-0.8l0,0c-1.4,0.5-3,0.8-4.7,0.8
		c-1.7,0-3.3-0.3-4.8-0.8c-1.4-0.5-2.7-1.2-3.7-2.1c-1-0.9-1.8-2-2.4-3.3c-0.6-1.3-0.9-2.8-0.9-4.4s0.3-3.1,0.9-4.4
		c0.6-1.3,1.4-2.4,2.4-3.3l-0.6-0.7l0,0l0,0l0.6,0.7l0,0c1-0.9,2.3-1.6,3.7-2.1c1.5-0.5,3-0.7,4.8-0.7c1.7,0,3.3,0.2,4.7,0.7
		l0.3-0.8l0,0l0,0l-0.3,0.8l0,0c1.5,0.5,2.7,1.2,3.7,2.1l0.6-0.6l0,0l-0.6,0.6l0,0c1,0.9,1.8,2,2.4,3.3c0.6,1.3,0.9,2.7,0.9,4.4
		c0,1.7-0.3,3.1-0.9,4.4c-0.6,1.3-1.4,2.4-2.4,3.4c-1,0.9-2.3,1.6-3.7,2.1L68.4,29.1L68.4,29.1z M58.3,7.8L58.3,7.8L58.3,7.8
		L58.3,7.8z M51.6,23.1L51.6,23.1L51.6,23.1L51.6,23.1z M77.5,5.7L77.5,5.7L77.5,5.7L77.5,5.7z"/>
	<polygon points="37.7,4.8 38.2,4 37.4,3.6 37,4.3 	"/>
	<polygon points="118.9,0.5 118.1,0.5 118.1,1.3 118.1,11.1 98,0.6 97.8,0.5 97.6,0.5 90.6,0.5 89.8,0.5 89.8,1.3 89.8,35.6
		89.8,36.5 90.6,36.5 97.6,36.5 98.5,36.5 98.5,35.6 98.5,10.2 118.1,20.4 118.1,35.6 118.1,36.5 118.9,36.5 125.9,36.5 126.8,36.5
		126.8,35.6 126.8,1.3 126.8,0.5 125.9,0.5 	"/>
	<path d="M35.6,26.5l-0.4-0.7l-0.7,0.4c-0.7,0.4-1.5,0.8-2.3,1.1c-0.8,0.3-1.7,0.6-2.6,0.9c-0.9,0.2-1.8,0.4-2.8,0.6
		c-1,0.1-1.9,0.2-2.9,0.2c-2.1,0-4-0.3-5.7-0.8c-1.7-0.6-3.1-1.3-4.2-2.3c-1.1-1-2-2.1-2.6-3.4c-0.6-1.3-0.9-2.7-0.9-4.3
		c0-1.5,0.3-2.9,0.8-4.1c0.6-1.3,1.4-2.3,2.5-3.2l-0.6-0.7l0,0l0,0l0.5,0.7l0,0C15,10,16.4,9.3,18,8.7l0,0C19.6,8.2,21.5,8,23.7,8
		c0.9,0,1.8,0.1,2.7,0.2l0.1-0.9l0,0l0,0l-0.1,0.9c0.9,0.1,1.8,0.3,2.6,0.5l0,0l0,0c0.9,0.2,1.6,0.4,2.4,0.7l0,0l0.3-0.8l0,0
		l-0.3,0.8c0.7,0.3,1.4,0.6,1.9,1l0.7,0.5l0.5-0.8l-0.7-0.4l0,0l0.7,0.4l3.2-5.3L37,4.3l0,0l0,0l0.4-0.7c-2.1-1.2-4.3-2.1-6.7-2.7
		l0,0c0,0,0,0,0,0c0,0,0,0,0,0l0,0c-2.4-0.6-5-0.9-7.9-0.9c-3.3,0-6.2,0.5-8.9,1.4l0.3,0.8l0,0L14,1.4l0,0c-2.6,0.9-4.8,2.2-6.7,3.9
		l0,0C5.4,6.9,4,8.9,3.1,11.1l0,0c0,0,0,0,0,0c0,0,0,0,0,0l0,0c-1,2.2-1.5,4.6-1.5,7.2c0,2.6,0.5,5.1,1.4,7.3h0l0,0
		c1,2.3,2.4,4.3,4.3,6l0,0c1.9,1.7,4.2,3,7,3.9l0.3-0.8l0,0l-0.3,0.8l0,0c2.8,0.9,6,1.4,9.6,1.4c2.8,0,5.5-0.3,8.1-1l-0.2-0.8l0,0
		l0.2,0.8l0,0c2.5-0.7,4.8-1.7,6.7-2.9l-0.5-0.7l0,0l0.5,0.7l0.7-0.5l-0.4-0.7L35.6,26.5z M32.5,28.1L32.5,28.1L32.5,28.1L32.5,28.1
		L32.5,28.1z M10.6,13.8L10.6,13.8L10.6,13.8L10.6,13.8L10.6,13.8z"/>
</g>
<g>
	<path class="st0" d="M64.3,53.1L64.3,53.1L64.3,53.1c-1-0.9-2.3-1.6-3.7-2.1l0,0c-1.4-0.5-3-0.7-4.7-0.7c-1.7,0-3.3,0.2-4.8,0.7
		c-1.4,0.5-2.7,1.2-3.7,2.1l0,0c-1,0.9-1.8,2-2.4,3.3c-0.6,1.3-0.9,2.7-0.9,4.4c0,1.7,0.3,3.1,0.9,4.4c0.6,1.3,1.4,2.4,2.4,3.3
		c1.1,0.9,2.3,1.6,3.7,2.1c1.4,0.5,3,0.8,4.8,0.8c1.7,0,3.3-0.3,4.7-0.8l0,0c1.5-0.5,2.7-1.2,3.7-2.1c1-0.9,1.8-2,2.4-3.4
		c0.6-1.3,0.9-2.8,0.9-4.4c0-1.7-0.3-3.1-0.9-4.4C66.1,55.1,65.3,54,64.3,53.1z"/>
	<polygon class="st0" points="60.8,50.2 60.6,51 60.8,50.2 	"/>
	<polygon class="st0" points="50.8,50.2 50.8,50.2 50.8,50.2 50.8,50.2 	"/>
	<polygon class="st0" points="46.8,52.5 47.3,53.1 46.8,52.4 	"/>
	<polygon class="st0" points="70,48.1 70,48.1 70,48.1 	"/>
	<polygon class="st0" points="60.8,71.5 60.8,71.5 60.6,70.7 60.8,71.5 	"/>
	<polygon class="st0" points="90.1,43.7 90.7,43.1 90.1,43.7 	"/>
	<polygon class="st0" points="70,73.5 70,73.5 70,73.5 	"/>
	<polygon class="st0" points="115,43.7 114.4,43.1 115,43.7 	"/>
	<polygon class="st0" points="37.6,67.9 37.6,67.9 36.8,68.3 37.6,67.9 	"/>
	<polygon class="st0" points="47.8,44.5 47.5,43.7 47.8,44.5 	"/>
	<polygon class="st0" points="41.6,73.5 41.6,73.5 41,74.1 41.6,73.5 	"/>
	<polygon class="st0" points="74,67.9 74.8,68.3 74,67.9 	"/>
	<polygon class="st0" points="47.8,77.2 47.5,78 47.8,77.2 	"/>
	<rect x="46.8" y="69.2" class="st0" width="0" height="0"/>
	<polygon class="st0" points="74,67.9 74.8,68.3 74,67.9 	"/>
	<polygon class="st0" points="137.6,56 137.6,56 137.6,56 	"/>
	<polygon class="st0" points="144.3,50.2 144.3,50.2 144.3,50.2 	"/>
	<polygon class="st0" points="140.3,69.2 140.3,69.2 140.3,69.2 	"/>
	<path class="st0" d="M157.8,53.1L157.8,53.1L157.8,53.1c-1-0.9-2.3-1.6-3.7-2.1l0,0c-1.4-0.5-3-0.7-4.7-0.7c-1.7,0-3.3,0.2-4.8,0.7
		v0c-1.4,0.5-2.7,1.2-3.7,2.1v0c-1,0.9-1.8,2-2.4,3.3c-0.6,1.3-0.9,2.7-0.9,4.4s0.3,3.1,0.9,4.4c0.6,1.3,1.4,2.4,2.4,3.3
		c1.1,0.9,2.3,1.6,3.7,2.1c1.4,0.5,3,0.8,4.8,0.8c1.7,0,3.3-0.3,4.7-0.8l0,0c1.5-0.5,2.7-1.2,3.7-2.1c1-0.9,1.8-2,2.4-3.4
		c0.6-1.3,0.9-2.8,0.9-4.4c0-1.7-0.3-3.1-0.9-4.4C159.6,55.1,158.8,54,157.8,53.1z"/>
	<polygon class="st0" points="144.3,71.3 144.3,71.5 144.3,71.5 	"/>
	<rect x="102.6" y="56.2" class="st0" width="0" height="0"/>
	<polygon class="st0" points="154.3,50.2 154.1,51 154.3,50.3 	"/>
	<polygon class="st0" points="163.5,48.1 163.5,48.1 163.5,48.1 	"/>
	<polygon class="st0" points="135.1,48.1 135.1,48.1 135.1,48.1 	"/>
	<polygon class="st0" points="141.3,44.5 141.3,44.5 141,43.7 141.3,44.5 	"/>
	<polygon class="st0" points="131.1,67.9 131.1,67.9 130.3,68.3 131.1,67.9 	"/>
	<polygon class="st0" points="154.3,71.3 154.1,70.7 154.3,71.3 	"/>
	<polygon class="st0" points="135.1,73.5 135.1,73.6 134.6,74.1 135.1,73.5 	"/>
	<polygon class="st0" points="167.5,67.9 167.6,67.9 168.3,68.3 167.5,67.9 	"/>
	<polygon class="st0" points="141.3,77.2 141,78 141.3,77.2 	"/>
	<path d="M70.6,47.5L70.6,47.5C70.6,47.5,70.6,47.5,70.6,47.5C70.6,47.5,70.6,47.5,70.6,47.5L70.6,47.5c-1.8-1.6-4-2.9-6.5-3.8
		c-2.5-0.9-5.3-1.3-8.3-1.3c-3,0-5.8,0.4-8.3,1.3l0.3,0.8l0,0l-0.3-0.8l0,0c-2.5,0.9-4.7,2.1-6.5,3.8v0c-1.8,1.6-3.2,3.6-4.2,5.8
		c-1,2.3-1.5,4.8-1.5,7.5c0,2.7,0.5,5.2,1.5,7.5l0.8-0.3l0,0l0,0l-0.8,0.3l0,0c1,2.3,2.4,4.2,4.2,5.9l0,0l0.6-0.6l0,0l0,0L41,74.1
		c1.8,1.6,4,2.9,6.5,3.8l0,0l0.3-0.8l0,0L47.5,78c2.5,0.9,5.3,1.3,8.3,1.3c3,0,5.8-0.4,8.3-1.3l0,0c2.5-0.9,4.7-2.2,6.5-3.8l0,0
		c0,0,0,0,0,0c0,0,0,0,0,0l0,0c1.8-1.6,3.2-3.6,4.2-5.9L74,67.9l0,0l0,0l0.8,0.3c1-2.3,1.5-4.8,1.5-7.5c0-2.7-0.5-5.2-1.5-7.5
		C73.8,51,72.4,49.1,70.6,47.5z M46.8,69.2L46.8,69.2L46.8,69.2L46.8,69.2L46.8,69.2z M66.7,65.2c-0.6,1.3-1.4,2.4-2.4,3.4
		c-1,0.9-2.3,1.6-3.7,2.1l0,0l0.3,0.8l0,0l0,0l-0.3-0.8c-1.4,0.5-3,0.8-4.7,0.8c-1.7,0-3.3-0.3-4.8-0.8c-1.4-0.5-2.7-1.2-3.7-2.1
		c-1-0.9-1.8-2-2.4-3.3c-0.6-1.3-0.9-2.8-0.9-4.4c0-1.7,0.3-3.1,0.9-4.4c0.6-1.3,1.4-2.4,2.4-3.3l0,0l-0.5-0.6l0,0l0.6,0.7
		c1-0.9,2.3-1.6,3.7-2.1c1.5-0.5,3-0.7,4.8-0.7c1.7,0,3.3,0.2,4.7,0.7l0.3-0.8l0,0L60.6,51l0,0c1.5,0.5,2.7,1.2,3.7,2.1l0,0l0,0
		c1,0.9,1.8,2,2.4,3.3c0.6,1.3,0.9,2.7,0.9,4.4C67.6,62.4,67.3,63.9,66.7,65.2z M50.8,50.2L50.8,50.2L50.8,50.2L50.8,50.2L50.8,50.2
		z M70,48.1L70,48.1L70,48.1L70,48.1z M70,73.5L70,73.5L70,73.5L70,73.5z"/>
	<path d="M115,42.8h-0.4l-0.3,0.3l0.6,0.6l0,0l-0.6-0.6L102.6,55L90.7,43.1l-0.6,0.6l0,0l0.6-0.6l-0.3-0.3h-0.4h-7h-0.9v0.9V78v0.9
		h0.9h7H91V78V55.4L102,66l0.6,0.6l0.6-0.6l11-10.6V78v0.9h0.9h7h0.9V78V43.7v-0.9H122H115z M102.6,56.2L102.6,56.2L102.6,56.2
		L102.6,56.2L102.6,56.2z"/>
	<polygon points="0.9,42.8 0,42.8 0,43.7 0,78 0,78.8 0.9,78.8 7.8,78.8 8.7,78.8 8.7,78 8.7,65.4 27.9,65.4 28.8,65.4 28.8,64.5
		28.8,58.8 28.8,57.9 27.9,57.9 8.7,57.9 8.7,50.7 31.5,50.7 32.4,50.7 32.4,49.8 32.4,43.7 32.4,42.8 31.5,42.8 	"/>
	<polygon points="74.8,68.3 74.8,68.3 74,67.9 	"/>
	<path d="M168.3,53.3c-1-2.3-2.4-4.2-4.2-5.8l0,0c-1.8-1.6-4-2.9-6.5-3.8c-2.5-0.9-5.3-1.3-8.3-1.3c-3,0-5.8,0.4-8.3,1.3l0.3,0.8
		c0,0,0,0,0,0l0,0l-0.3-0.8l0,0c-2.5,0.9-4.7,2.1-6.5,3.8l0,0c-1.8,1.6-3.2,3.6-4.2,5.8c-1,2.3-1.5,4.8-1.5,7.5
		c0,2.7,0.5,5.2,1.5,7.5l0,0l0.7-0.3l0.1,0l0,0l-0.8,0.3c1,2.3,2.4,4.2,4.2,5.9l0,0l0.5-0.6l0.1-0.1v0l-0.6,0.6
		c1.8,1.6,4,2.9,6.5,3.8l0,0l0.3-0.8l0,0L141,78c2.5,0.9,5.3,1.3,8.3,1.3c3,0,5.8-0.4,8.3-1.3l0,0c2.5-0.9,4.7-2.2,6.5-3.8l0,0
		c1.8-1.6,3.2-3.6,4.2-5.9l0,0l-0.7-0.3l-0.1,0l0,0l0.8,0.3c1-2.3,1.5-4.8,1.5-7.5C169.8,58.1,169.3,55.6,168.3,53.3z M160.2,65.2
		c-0.6,1.3-1.4,2.4-2.4,3.4c-1,0.9-2.3,1.6-3.7,2.1l0,0l0.2,0.7l0,0l-0.2-0.7c-1.4,0.5-3,0.8-4.7,0.8c-1.7,0-3.3-0.3-4.8-0.8
		c-1.4-0.5-2.7-1.2-3.7-2.1c-1-0.9-1.8-2-2.4-3.3c-0.6-1.3-0.9-2.8-0.9-4.4s0.3-3.1,0.9-4.4c0.6-1.3,1.4-2.4,2.4-3.3v0
		c1-0.9,2.3-1.6,3.7-2.1v0c1.5-0.5,3-0.7,4.8-0.7c1.7,0,3.3,0.2,4.7,0.7l0.3-0.8l0,0.1l-0.2,0.7l0,0c1.5,0.5,2.7,1.2,3.7,2.1l0,0
		l0,0c1,0.9,1.8,2,2.4,3.3c0.6,1.3,0.9,2.7,0.9,4.4C161.1,62.4,160.8,63.9,160.2,65.2z M144.3,50.2L144.3,50.2L144.3,50.2
		L144.3,50.2z M137.6,56L137.6,56L137.6,56L137.6,56z M140.3,69.2L140.3,69.2L140.3,69.2L140.3,69.2z M144.3,71.3l0,0.1c0,0,0,0,0,0
		L144.3,71.3z M163.5,48.1C163.5,48.1,163.5,48.1,163.5,48.1L163.5,48.1L163.5,48.1z M135.1,48.1L135.1,48.1L135.1,48.1L135.1,48.1z
		"/>
</g>
</svg>
