<?xml version="1.0" encoding="utf-8"?>
<!-- Generator: Adobe Illustrator 27.9.5, SVG Export Plug-In . SVG Version: 9.03 Build 54986)  -->
<svg version="1.1" id="Layer_1" xmlns="http://www.w3.org/2000/svg" xmlns:xlink="http://www.w3.org/1999/xlink" x="0px" y="0px"
	 viewBox="0 0 24 24" style="enable-background:new 0 0 24 24;" xml:space="preserve">
<path d="M12,22.2C12,22.2,12,22.2,12,22.2c-2.5,0-4.9-0.9-6.8-2.6c0,0,0,0,0,0c-1.6-1.4-2.6-3.2-3.1-5.2c-0.5-2-0.4-4.1,0.4-6.1
	c0.7-2,2-3.6,3.8-4.8C7.9,2.4,9.9,1.8,12,1.8c2.1,0,4.1,0.6,5.8,1.8c1.7,1.2,3,2.8,3.8,4.8c0.7,2,0.9,4.1,0.4,6.1
	c-0.5,2-1.6,3.8-3.1,5.2c0,0,0,0,0,0C16.9,21.3,14.5,22.2,12,22.2z M12,19.8C12,19.8,12,19.8,12,19.8c1.5,0,2.9-0.4,4.1-1.2
	c-0.4-0.4-0.9-0.7-1.3-0.9C13.9,17.2,13,17,12,17c0,0,0,0,0,0c-1,0-1.9,0.2-2.8,0.7c-0.5,0.2-0.9,0.5-1.3,0.9
	C9.1,19.3,10.5,19.8,12,19.8C12,19.8,12,19.8,12,19.8z M12,4.2c-1.6,0-3.1,0.5-4.4,1.4C6.3,6.5,5.3,7.8,4.8,9.2
	c-0.6,1.5-0.7,3.1-0.3,4.6C4.7,15,5.3,16,6,16.9c0.6-0.6,1.3-1.1,2.1-1.5c1.2-0.6,2.5-0.9,3.9-0.9c0,0,0,0,0,0
	c1.3,0,2.7,0.3,3.9,0.9c0.8,0.4,1.5,0.9,2.1,1.5c0.7-0.9,1.2-1.9,1.5-3c0.4-1.5,0.3-3.1-0.3-4.6c-0.6-1.5-1.5-2.7-2.8-3.6
	C15.1,4.7,13.6,4.2,12,4.2z M12,14c-1.1,0-2.2-0.4-3-1.2c-0.8-0.8-1.2-1.9-1.2-3c0-1.1,0.4-2.2,1.2-3c0.8-0.8,1.9-1.2,3-1.2
	c1.1,0,2.2,0.4,3,1.2c0.8,0.8,1.2,1.9,1.2,3s-0.4,2.2-1.2,3C14.2,13.6,13.1,14,12,14z M12,8c-0.5,0-0.9,0.2-1.2,0.5
	c-0.3,0.3-0.5,0.8-0.5,1.2s0.2,0.9,0.5,1.2c0.7,0.7,1.8,0.7,2.5,0c0.3-0.3,0.5-0.8,0.5-1.2c0-0.5-0.2-0.9-0.5-1.2
	C12.9,8.2,12.5,8,12,8z"/>
</svg>
