<?xml version="1.0" encoding="utf-8"?>
<!-- Generator: Adobe Illustrator 27.9.5, SVG Export Plug-In . SVG Version: 9.03 Build 54986)  -->
<svg version="1.1" id="Layer_1" xmlns="http://www.w3.org/2000/svg" xmlns:xlink="http://www.w3.org/1999/xlink" x="0px" y="0px"
	 viewBox="0 0 24 25" style="enable-background:new 0 0 24 25;" xml:space="preserve">
<path d="M12,23.1c-0.1,0-0.2,0-0.3,0c-5.9-1.5-9.9-6.8-9.9-12.8c0-1.4,0.2-2.8,0.7-4.1c0.2-0.5,0.7-0.9,1.2-0.9
	c2.8,0.1,5.5-1,7.5-2.9c0.5-0.5,1.2-0.5,1.7,0c2,1.9,4.6,2.9,7.4,2.9h0.2c0.5,0,1,0.3,1.2,0.9c0.4,1.3,0.7,2.7,0.7,4.1
	c0,6-4.1,11.3-9.9,12.8C12.2,23.1,12.1,23.1,12,23.1z M4.5,7.7c-0.2,0.8-0.3,1.7-0.3,2.5c0,4.8,3.2,9,7.8,10.3
	c4.6-1.3,7.8-5.5,7.8-10.3c0-0.9-0.1-1.7-0.3-2.5c-2.7-0.2-5.3-1.2-7.5-2.9C9.9,6.6,7.3,7.6,4.5,7.7z M11.2,16.8
	c-0.3,0-0.6-0.1-0.9-0.4l-2.2-2.2c-0.5-0.5-0.5-1.3,0-1.8s1.3-0.5,1.8,0l1.2,1.2l2.9-4c0.4-0.6,1.2-0.7,1.7-0.3
	c0.6,0.4,0.7,1.2,0.3,1.7l-3.8,5.2c-0.2,0.3-0.5,0.5-0.9,0.5C11.3,16.7,11.3,16.8,11.2,16.8z"/>
</svg>
