<svg width="24" height="24" viewBox="0 0 24 24" fill="none" xmlns="http://www.w3.org/2000/svg">
<path fill-rule="evenodd" clip-rule="evenodd" d="M6.52248 4.31537C10.1619 3.89293 13.838 3.89292 17.4774 4.31536ZM17.4777 4.31539C18.0492 4.38203 18.5 4.88195 18.5 5.50706V19.382L12.4472 16.3556C12.1657 16.2149 11.8343 16.2149 11.5528 16.3556L5.5 19.382V5.50706C5.5 4.88152 5.95025 4.38199 6.5223 4.31539M6.2917 2.32873C10.0845 1.88847 13.9155 1.88847 17.7083 2.32873L17.7086 2.32876C19.337 2.51825 20.5 3.91627 20.5 5.50706V21.0001C20.5 21.3466 20.3205 21.6685 20.0257 21.8507C19.7309 22.0329 19.3628 22.0495 19.0528 21.8945L12 18.3681L4.94721 21.8945C4.63723 22.0495 4.26909 22.0329 3.97427 21.8507C3.67945 21.6685 3.5 21.3466 3.5 21.0001V5.50706C3.5 3.91666 4.66166 2.51823 6.29152 2.32875L6.2917 2.32873Z" fill="black"/>
</svg>
