<?xml version="1.0" encoding="utf-8"?>
<!-- Generator: Adobe Illustrator 27.9.5, SVG Export Plug-In . SVG Version: 9.03 Build 54986)  -->
<svg version="1.1" id="Layer_1" xmlns="http://www.w3.org/2000/svg" xmlns:xlink="http://www.w3.org/1999/xlink" x="0px" y="0px"
	 viewBox="0 0 24 24" style="enable-background:new 0 0 24 24;" xml:space="preserve">
<path d="M17.2,23H6.8c-0.9,0-1.8-0.4-2.5-1c-0.7-0.7-1-1.5-1-2.5V6.3c0-1.8,1.3-3.2,3-3.4c0.4,0,0.8-0.1,1.2-0.1
	c0.6-1,1.8-1.7,3-1.7h3c0.8,0,1.5,0.3,2.1,0.7c0.4,0.3,0.7,0.6,0.9,1c0.4,0,0.8,0.1,1.2,0.1c1.7,0.2,3,1.7,3,3.4v13.2
	c0,0.9-0.4,1.8-1,2.5S18.2,23,17.2,23z M7.1,5.2c-0.2,0-0.4,0-0.6,0.1C6.1,5.4,5.8,5.8,5.8,6.3v13.2c0,0.3,0.1,0.5,0.3,0.7
	c0.2,0.2,0.4,0.3,0.7,0.3h10.5c0.3,0,0.5-0.1,0.7-0.3s0.3-0.4,0.3-0.7V6.3c0-0.5-0.3-0.9-0.8-0.9c-0.2,0-0.4,0-0.6-0.1
	c-0.1,0.2-0.2,0.5-0.4,0.7C16,6.3,15.5,6.5,15,6.5H9c-0.5,0-1-0.2-1.4-0.6C7.4,5.7,7.2,5.5,7.1,5.2z M9.6,4h4.7
	c-0.1-0.1-0.2-0.2-0.3-0.3c-0.2-0.1-0.4-0.2-0.6-0.2h-3C10.1,3.5,9.8,3.7,9.6,4z"/>
</svg>
