<svg width="24" height="24" viewBox="0 0 24 24" fill="none" xmlns="http://www.w3.org/2000/svg">
<path fill-rule="evenodd" clip-rule="evenodd" d="M11.7495 4.30152L5.5 10.5517V20.0343H8.25V16.4093C8.25 15.0979 9.31364 14.0343 10.625 14.0343H12.875C14.1864 14.0343 15.25 15.0979 15.25 16.4093V20.0343H18V10.552L11.7495 4.30152ZM20.5 13.052L20.6161 13.1681C21.1043 13.6563 21.8957 13.6563 22.3839 13.1681C22.872 12.68 22.872 11.8885 22.3839 11.4004L13.4289 2.44537C12.5012 1.51766 10.9985 1.5191 10.0711 2.44436L1.11607 11.4004C0.627939 11.8886 0.627983 12.6801 1.11617 13.1682C1.60435 13.6563 2.3958 13.6563 2.88393 13.1681L3 13.052V20.1593C3 21.4706 4.06364 22.5343 5.375 22.5343H18.125C19.4364 22.5343 20.5 21.4706 20.5 20.1593V13.052ZM12.75 20.0343H10.75V16.5343H12.75V20.0343Z" fill="black"/>
</svg>
