<svg width="24" height="24" viewBox="0 0 24 24" fill="none" xmlns="http://www.w3.org/2000/svg">
<path fill-rule="evenodd" clip-rule="evenodd" d="M19.875 2.99951C19.5766 2.99951 19.2904 3.11806 19.0793 3.32909L17.9225 4.4866L19.5135 6.0776L20.6707 4.92043C20.8817 4.7094 21.0003 4.42319 21.0003 4.12476C21.0003 3.82633 20.8817 3.54011 20.6707 3.32909C20.4597 3.11806 20.1735 2.99951 19.875 2.99951ZM18.4529 7.13826L16.8625 5.54788L4.7105 17.6979C4.2703 18.1385 3.94654 18.6819 3.76884 19.2788L3.36473 20.635L4.72086 20.231C5.31776 20.0533 5.86115 19.7297 6.30169 19.2894C6.30174 19.2894 6.30164 19.2895 6.30169 19.2894L18.4529 7.13826ZM16.309 3.98013C16.3163 3.97216 16.3238 3.96431 16.3315 3.95659L18.0185 2.26859C18.5109 1.77626 19.1788 1.49951 19.875 1.49951C20.5713 1.49951 21.239 1.7761 21.7313 2.26843C22.2237 2.76076 22.5003 3.4285 22.5003 4.12476C22.5003 4.82102 22.2237 5.48876 21.7313 5.98109L7.36235 20.3501C6.74556 20.9665 5.98479 21.4198 5.14903 21.6686L2.46418 22.4685C2.20024 22.5472 1.91443 22.4748 1.71969 22.2801C1.52495 22.0853 1.4526 21.7995 1.53125 21.5356L2.3312 18.8508C2.58002 18.015 3.03311 17.2544 3.64953 16.6376L16.309 3.98013Z" fill="black"/>
</svg>
