<svg width="24" height="24" viewBox="0 0 24 24" fill="none" xmlns="http://www.w3.org/2000/svg">
<path fill-rule="evenodd" clip-rule="evenodd" d="M6.75 1.75C7.44036 1.75 8 2.30964 8 3V4H16V3C16 2.30964 16.5596 1.75 17.25 1.75C17.9404 1.75 18.5 2.30964 18.5 3V4H18.75C19.6783 4 20.5685 4.36875 21.2249 5.02513C21.8813 5.6815 22.25 6.57174 22.25 7.5V18.75C22.25 19.6783 21.8813 20.5685 21.2249 21.2249C20.5685 21.8813 19.6783 22.25 18.75 22.25H5.25C4.32174 22.25 3.4315 21.8813 2.77513 21.2249C2.11875 20.5685 1.75 19.6783 1.75 18.75V7.5C1.75 6.57174 2.11875 5.6815 2.77513 5.02513C3.4315 4.36875 4.32174 4 5.25 4H5.5V3C5.5 2.30964 6.05964 1.75 6.75 1.75ZM5.25 6.5C4.98478 6.5 4.73043 6.60536 4.54289 6.79289C4.35536 6.98043 4.25 7.23478 4.25 7.5V7.89589C4.57167 7.79998 4.90826 7.75 5.25 7.75H18.75C19.0917 7.75 19.4283 7.79998 19.75 7.89589V7.5C19.75 7.23478 19.6446 6.98043 19.4571 6.79289C19.2696 6.60536 19.0152 6.5 18.75 6.5H5.25ZM19.75 11.25C19.75 10.9848 19.6446 10.7304 19.4571 10.5429C19.2696 10.3554 19.0152 10.25 18.75 10.25H5.25C4.98478 10.25 4.73043 10.3554 4.54289 10.5429C4.35536 10.7304 4.25 10.9848 4.25 11.25V18.75C4.25 19.0152 4.35536 19.2696 4.54289 19.4571C4.73043 19.6446 4.98478 19.75 5.25 19.75H18.75C19.0152 19.75 19.2696 19.6446 19.4571 19.4571C19.6446 19.2696 19.75 19.0152 19.75 18.75V11.25Z" fill="black"/>
</svg>
