<?xml version="1.0" encoding="utf-8"?>
<!-- Generator: Adobe Illustrator 27.9.5, SVG Export Plug-In . SVG Version: 9.03 Build 54986)  -->
<svg version="1.1" id="Layer_1" xmlns="http://www.w3.org/2000/svg" xmlns:xlink="http://www.w3.org/1999/xlink" x="0px" y="0px"
	 viewBox="0 0 24 24" style="enable-background:new 0 0 24 24;" xml:space="preserve">
<path d="M3,22c-0.6,0-1-0.4-1-1v-6c0,0,0,0,0,0V4.5c0,0,0,0,0,0V3c0-0.6,0.4-1,1-1s1,0.4,1,1v0.2l1.5-0.4c2.3-0.6,4.8-0.3,6.9,0.8
	l0.1,0.1c1.7,0.8,3.6,1.1,5.4,0.6l3.1-0.7c0.3-0.1,0.6,0,0.9,0.2c0.2,0.2,0.4,0.5,0.3,0.9c-0.4,3.4-0.4,6.9,0,10.3
	c0.1,0.5-0.3,1-0.8,1.1l-3.1,0.7c-2.3,0.5-4.7,0.3-6.8-0.8l-0.1-0.1C9.8,15,7.9,14.8,6,15.3l-2,0.5V21C4,21.6,3.6,22,3,22z M7.9,13
	c1.5,0,3.1,0.4,4.5,1.1l0.1,0.1c1.7,0.8,3.6,1.1,5.4,0.6l2.3-0.5c-0.3-2.8-0.3-5.6,0-8.4l-1.8,0.4c-2.3,0.5-4.7,0.3-6.8-0.8
	l-0.1-0.1C9.8,4.5,7.9,4.3,6,4.8L4,5.3v8.4l1.5-0.4C6.3,13.1,7.1,13,7.9,13z"/>
</svg>
