<svg width="24" height="24" viewBox="0 0 24 24" fill="none" xmlns="http://www.w3.org/2000/svg">
<path fill-rule="evenodd" clip-rule="evenodd" d="M9.375 3.75C8.67881 3.75 8.01113 4.02656 7.51884 4.51884C7.02656 5.01113 6.75 5.67881 6.75 6.375C6.75 7.07119 7.02656 7.73887 7.51884 8.23115C8.01113 8.72344 8.67881 9 9.375 9C10.0712 9 10.7389 8.72344 11.2312 8.23115C11.7234 7.73887 12 7.07119 12 6.375C12 5.67881 11.7234 5.01113 11.2312 4.51884C10.7389 4.02656 10.0712 3.75 9.375 3.75ZM6.45818 3.45818C7.23177 2.6846 8.28098 2.25 9.375 2.25C10.469 2.25 11.5182 2.6846 12.2918 3.45818C13.0654 4.23177 13.5 5.28098 13.5 6.375C13.5 7.46902 13.0654 8.51823 12.2918 9.29182C11.5182 10.0654 10.469 10.5 9.375 10.5C8.28098 10.5 7.23177 10.0654 6.45818 9.29182C5.6846 8.51823 5.25 7.46902 5.25 6.375C5.25 5.28098 5.6846 4.23177 6.45818 3.45818ZM18 6.75C18.4142 6.75 18.75 7.08579 18.75 7.5V9.75H21C21.4142 9.75 21.75 10.0858 21.75 10.5C21.75 10.9142 21.4142 11.25 21 11.25H18.75V13.5C18.75 13.9142 18.4142 14.25 18 14.25C17.5858 14.25 17.25 13.9142 17.25 13.5V11.25H15C14.5858 11.25 14.25 10.9142 14.25 10.5C14.25 10.0858 14.5858 9.75 15 9.75H17.25V7.5C17.25 7.08579 17.5858 6.75 18 6.75ZM9.375 13.5C7.88316 13.5 6.45242 14.0926 5.39752 15.1475C4.41801 16.127 3.83705 17.4306 3.75903 18.8063C5.42329 19.7261 7.33679 20.25 9.374 20.25L9.37527 20.25C11.3417 20.2533 13.2741 19.7553 14.991 18.8063C14.913 17.4306 14.332 16.1271 13.3525 15.1475C12.2976 14.0926 10.8668 13.5 9.375 13.5ZM2.64795 19.8974C2.41118 19.7713 2.25 19.522 2.25 19.235V19.125C2.25 17.2353 3.00067 15.4231 4.33686 14.0869C5.67306 12.7507 7.48533 12 9.375 12C11.2647 12 13.0769 12.7507 14.4131 14.0869C15.7493 15.4231 16.5 17.2353 16.5 19.125V19.234C16.5 19.497 16.3622 19.7408 16.1369 19.8765C14.0956 21.1059 11.757 21.7538 9.374 21.75M2.64795 19.8974C4.61557 21.0737 6.91756 21.7499 9.374 21.75Z" fill="black"/>
</svg>
