<?xml version="1.0" encoding="utf-8"?>
<!-- Generator: Adobe Illustrator 27.9.5, SVG Export Plug-In . SVG Version: 9.03 Build 54986)  -->
<svg version="1.1" id="Layer_1" xmlns="http://www.w3.org/2000/svg" xmlns:xlink="http://www.w3.org/1999/xlink" x="0px" y="0px"
	 viewBox="0 0 24 24" style="enable-background:new 0 0 24 24;" xml:space="preserve">
<path d="M21,22.2c-0.3,0-0.6-0.1-0.9-0.4l-3.2-3.2c0,0,0,0,0,0L13.2,15c0,0,0,0,0,0L9,10.8c0,0,0,0,0,0L5.4,7.1c0,0,0,0,0,0L2.1,3.9
	c-0.5-0.5-0.5-1.3,0-1.8s1.3-0.5,1.8,0l2.5,2.5C8.1,3.7,10,3.2,12,3.2c0,0,0,0,0,0c5.2,0,9.8,3.5,11.3,8.4c0.1,0.2,0.1,0.5,0,0.7
	c-0.6,2.2-1.9,4.1-3.6,5.5l2.2,2.2c0.5,0.5,0.5,1.3,0,1.8C21.6,22.1,21.3,22.2,21,22.2z M15.8,14l2.1,2.1c1.3-1.1,2.3-2.5,2.9-4.1
	c-1.3-3.7-4.8-6.2-8.8-6.2c0,0,0,0,0,0c-1.3,0-2.5,0.3-3.7,0.8L10,8.2c0.1-0.1,0.2-0.1,0.4-0.2c1-0.4,2.2-0.4,3.3,0
	c0.5,0.2,1,0.5,1.4,0.9c0.4,0.4,0.7,0.9,0.9,1.4c0.2,0.5,0.3,1.1,0.3,1.6s-0.1,1.1-0.3,1.6C15.9,13.8,15.8,13.9,15.8,14z M12,10.3
	l1.7,1.7c0-0.2,0-0.4-0.1-0.7c-0.1-0.2-0.2-0.4-0.4-0.6c-0.2-0.2-0.4-0.3-0.6-0.4C12.5,10.3,12.2,10.3,12,10.3z M12,20.8
	c-5.2,0-9.8-3.5-11.3-8.4c-0.1-0.2-0.1-0.5,0-0.7C1.2,10.1,2,8.7,3,7.4c0.4-0.5,1.2-0.6,1.8-0.1C5.3,7.7,5.4,8.5,4.9,9
	c-0.7,0.9-1.3,1.9-1.7,3c1.3,3.7,4.8,6.2,8.8,6.2c0.9,0,1.7-0.1,2.5-0.3c0.7-0.2,1.4,0.2,1.5,0.9c0.2,0.7-0.2,1.4-0.9,1.5
	C14.2,20.6,13.1,20.8,12,20.8z"/>
</svg>
