<svg width="24" height="24" viewBox="0 0 24 24" fill="none" xmlns="http://www.w3.org/2000/svg">
<path fill-rule="evenodd" clip-rule="evenodd" d="M1.98223 4.23223C2.45107 3.76339 3.08696 3.5 3.75 3.5H20.25C20.913 3.5 21.5489 3.76339 22.0178 4.23223C22.4866 4.70107 22.75 5.33696 22.75 6V15.749C22.75 15.7497 22.75 15.7503 22.75 15.751V18C22.75 18.663 22.4866 19.2989 22.0178 19.7678C21.5489 20.2366 20.913 20.5 20.25 20.5H3.75C3.08696 20.5 2.45107 20.2366 1.98223 19.7678C1.51339 19.2989 1.25 18.663 1.25 18V6C1.25 5.33696 1.51339 4.70107 1.98223 4.23223ZM3.25 16.1642V18C3.25 18.1326 3.30268 18.2598 3.39645 18.3536C3.49022 18.4473 3.61739 18.5 3.75 18.5H20.25C20.3826 18.5 20.5098 18.4473 20.6036 18.3536C20.6973 18.2598 20.75 18.1326 20.75 18V16.1642L18.1339 13.5481C18.0178 13.432 17.88 13.34 17.7284 13.2771C17.5767 13.2143 17.4142 13.182 17.25 13.182C17.0858 13.182 16.9233 13.2143 16.7716 13.2771C16.62 13.34 16.4822 13.432 16.3661 13.5481L15.6642 14.25L16.4571 15.0429C16.8476 15.4334 16.8476 16.0666 16.4571 16.4571C16.0666 16.8476 15.4334 16.8476 15.0429 16.4571L9.88389 11.2981C9.76782 11.182 9.63002 11.09 9.47836 11.0271C9.3267 10.9643 9.16415 10.932 9 10.932C8.83585 10.932 8.6733 10.9643 8.52164 11.0271C8.36998 11.09 8.23218 11.182 8.11611 11.2981L3.25 16.1642ZM14.25 12.8358L14.9519 12.1339C15.2537 11.8321 15.612 11.5927 16.0063 11.4294C16.4006 11.266 16.8232 11.182 17.25 11.182C17.6768 11.182 18.0994 11.266 18.4937 11.4294C18.888 11.5927 19.2463 11.8321 19.5481 12.1339L20.75 13.3358V6C20.75 5.86739 20.6973 5.74022 20.6036 5.64645C20.5098 5.55268 20.3826 5.5 20.25 5.5H3.75C3.61739 5.5 3.49021 5.55268 3.39645 5.64645C3.30268 5.74021 3.25 5.86739 3.25 6V13.3358L6.70189 9.8839C6.70189 9.8839 6.70189 9.8839 6.70189 9.8839C7.00368 9.5821 7.36196 9.3427 7.75627 9.17938C8.15058 9.01605 8.5732 8.93198 9 8.93198C9.4268 8.93198 9.84942 9.01605 10.2437 9.17938C10.638 9.34271 10.9963 9.5821 11.2981 9.8839L14.25 12.8358ZM13.2777 7.27773C13.5356 7.01987 13.8853 6.875 14.25 6.875C14.6147 6.875 14.9644 7.01987 15.2223 7.27773C15.4801 7.53559 15.625 7.88533 15.625 8.25C15.625 8.61467 15.4801 8.96441 15.2223 9.22227C14.9644 9.48014 14.6147 9.625 14.25 9.625C13.8853 9.625 13.5356 9.48014 13.2777 9.22227C13.0199 8.96441 12.875 8.61467 12.875 8.25C12.875 7.88533 13.0199 7.53559 13.2777 7.27773Z" fill="black"/>
</svg>
