<?xml version="1.0" encoding="utf-8"?>
<!-- Generator: Adobe Illustrator 27.9.5, SVG Export Plug-In . SVG Version: 9.03 Build 54986)  -->
<svg version="1.1" id="Layer_1" xmlns="http://www.w3.org/2000/svg" xmlns:xlink="http://www.w3.org/1999/xlink" x="0px" y="0px"
	 viewBox="0 0 24 24" style="enable-background:new 0 0 24 24;" xml:space="preserve">
<path d="M12,21.2c-0.2,0-0.3,0-0.5-0.1C11.1,20.9,2,16,2,8.2c0-3,2.6-5.5,5.7-5.5c1.7,0,3.3,0.7,4.3,1.9c1.1-1.2,2.6-1.9,4.3-1.9
	c3.1,0,5.7,2.5,5.7,5.5c0,7.7-9.1,12.7-9.5,12.9C12.3,21.2,12.2,21.2,12,21.2z M7.7,4.8C5.7,4.8,4,6.3,4,8.2c0,5.6,6.2,9.8,8,10.8
	c1.8-1.1,8-5.2,8-10.8c0-1.9-1.7-3.5-3.7-3.5c-1.5,0-2.8,0.8-3.4,2.1c-0.2,0.4-0.5,0.6-0.9,0.6s-0.8-0.2-0.9-0.6
	C10.5,5.6,9.2,4.8,7.7,4.8z"/>
</svg>
