<svg width="24" height="24" viewBox="0 0 24 24" fill="none" xmlns="http://www.w3.org/2000/svg">
<path fill-rule="evenodd" clip-rule="evenodd" d="M13.3609 2.86092C14.3924 1.82947 15.7913 1.25 17.25 1.25C18.7087 1.25 20.1077 1.82947 21.1391 2.86092C22.1706 3.89238 22.7501 5.29133 22.7501 6.75003C22.7501 8.20873 22.1706 9.60768 21.1391 10.6391L19.3821 12.3961C18.9916 12.7867 18.3584 12.7867 17.9679 12.3961C17.5774 12.0056 17.5774 11.3724 17.9679 10.9819L19.7249 9.22492C20.3813 8.56854 20.7501 7.67829 20.7501 6.75003C20.7501 5.82176 20.3813 4.93152 19.7249 4.27513C19.0685 3.61875 18.1783 3.25 17.25 3.25C16.3218 3.25 15.4315 3.61875 14.7751 4.27513L10.2751 8.77513L10.2749 8.77538C9.87871 9.17128 9.58333 9.65646 9.41356 10.1902C9.24378 10.7239 9.20457 11.2906 9.29922 11.8426C9.39386 12.3946 9.6196 12.9158 9.95747 13.3625C10.2953 13.8092 10.7355 14.1683 11.2409 14.4096C11.7393 14.6476 11.9504 15.2445 11.7124 15.7429C11.4745 16.2413 10.8776 16.4524 10.3792 16.2144C9.58494 15.8352 8.89331 15.271 8.36237 14.569C7.83144 13.8671 7.47671 13.048 7.32798 12.1806C7.17925 11.3131 7.24087 10.4226 7.50766 9.58392C7.77445 8.74522 8.23862 7.98278 8.86117 7.36067L13.3609 2.86092ZM12.2876 8.25717C12.5256 7.75878 13.1225 7.54765 13.6209 7.78561C14.4151 8.16481 15.1067 8.72908 15.6377 9.43101C16.1686 10.1329 16.5233 10.952 16.6721 11.8195C16.8208 12.687 16.7592 13.5774 16.4924 14.4161C16.2256 15.2548 15.7614 16.0173 15.1389 16.6394L10.6391 21.1391C9.60768 22.1706 8.20873 22.7501 6.75003 22.7501C5.29133 22.7501 3.89238 22.1706 2.86092 21.1391C1.82947 20.1077 1.25 18.7087 1.25 17.25C1.25 15.7913 1.82947 14.3924 2.86092 13.3609L4.61792 11.6039C5.00844 11.2134 5.64161 11.2134 6.03213 11.6039C6.42266 11.9944 6.42266 12.6276 6.03213 13.0181L4.27513 14.7751C3.61875 15.4315 3.25 16.3218 3.25 17.25C3.25 18.1783 3.61875 19.0685 4.27513 19.7249C4.93152 20.3813 5.82176 20.7501 6.75003 20.7501C7.67829 20.7501 8.56854 20.3813 9.22492 19.7249L13.7249 15.2249L13.7252 15.2247C14.1213 14.8288 14.4167 14.3436 14.5865 13.8099C14.7563 13.2762 14.7955 12.7095 14.7008 12.1575C14.6062 11.6054 14.3805 11.0842 14.0426 10.6375C13.7047 10.1908 13.2646 9.83176 12.7592 9.59045C12.2608 9.35249 12.0497 8.75556 12.2876 8.25717Z" fill="black"/>
</svg>
