<svg width="24" height="24" viewBox="0 0 24 24" fill="none" xmlns="http://www.w3.org/2000/svg">
<path d="M13.19 8.68803C13.8399 8.99828 14.4057 9.45996 14.8401 10.0343C15.2745 10.6086 15.5648 11.2787 15.6865 11.9885C15.8081 12.6982 15.7577 13.4268 15.5394 14.113C15.3212 14.7992 14.9414 15.423 14.432 15.932L9.93203 20.432C9.08811 21.2759 7.94351 21.7501 6.75003 21.7501C5.55655 21.7501 4.41195 21.2759 3.56803 20.432C2.72411 19.5881 2.25 18.4435 2.25 17.25C2.25 16.0565 2.72411 14.9119 3.56803 14.068L5.32503 12.311M18.675 11.689L20.432 9.93203C21.2759 9.08811 21.7501 7.94351 21.7501 6.75003C21.7501 5.55655 21.2759 4.41195 20.432 3.56803C19.5881 2.72411 18.4435 2.25 17.25 2.25C16.0565 2.25 14.9119 2.72411 14.068 3.56803L9.56803 8.06803C9.05866 8.57703 8.67889 9.20084 8.46061 9.88705C8.24233 10.5733 8.19191 11.3018 8.3136 12.0116C8.43528 12.7213 8.72552 13.3915 9.15992 13.9658C9.59432 14.5401 10.1602 15.0018 10.81 15.312" stroke="black" stroke-width="2" stroke-linecap="round" stroke-linejoin="round"/>
</svg>
