<svg width="24" height="24" viewBox="0 0 24 24" fill="none" xmlns="http://www.w3.org/2000/svg">
<path fill-rule="evenodd" clip-rule="evenodd" d="M12 8.5C11.4696 8.5 10.9609 8.71071 10.5858 9.08579C10.2107 9.46086 10 9.96957 10 10.5C10 11.0304 10.2107 11.5391 10.5858 11.9142C10.9609 12.2893 11.4696 12.5 12 12.5C12.5304 12.5 13.0391 12.2893 13.4142 11.9142C13.7893 11.5391 14 11.0304 14 10.5C14 9.96957 13.7893 9.46086 13.4142 9.08579C13.0391 8.71071 12.5304 8.5 12 8.5ZM9.17157 7.67157C9.92172 6.92143 10.9391 6.5 12 6.5C13.0609 6.5 14.0783 6.92143 14.8284 7.67157C15.5786 8.42172 16 9.43913 16 10.5C16 11.5609 15.5786 12.5783 14.8284 13.3284C14.0783 14.0786 13.0609 14.5 12 14.5C10.9391 14.5 9.92172 14.0786 9.17157 13.3284C8.42143 12.5783 8 11.5609 8 10.5C8 9.43913 8.42143 8.42172 9.17157 7.67157Z" fill="black"/>
<path fill-rule="evenodd" clip-rule="evenodd" d="M12 4C10.2761 4 8.62279 4.68482 7.40381 5.90381C6.18482 7.12279 5.5 8.77609 5.5 10.5C5.5 13.7042 7.18257 16.2792 8.9654 18.1045C9.8505 19.0108 10.7385 19.7088 11.4051 20.1798C11.6336 20.3412 11.8349 20.4751 12 20.581C12.1651 20.4751 12.3664 20.3412 12.5949 20.1798C13.2615 19.7088 14.1495 19.0108 15.0346 18.1045C16.8174 16.2792 18.5 13.7042 18.5 10.5C18.5 8.77609 17.8152 7.12279 16.5962 5.90381C15.3772 4.68482 13.7239 4 12 4ZM12 21.75C11.5196 22.6271 11.5193 22.6269 11.5189 22.6267L11.5157 22.6249L11.5091 22.6213L11.4878 22.6094C11.4701 22.5994 11.4455 22.5854 11.4144 22.5674C11.3522 22.5313 11.2639 22.4791 11.1534 22.4111C10.9325 22.275 10.6218 22.0751 10.2511 21.8133C9.51154 21.2908 8.5245 20.5155 7.5346 19.502C5.56743 17.4879 3.5 14.4378 3.5 10.5C3.5 8.24566 4.39553 6.08365 5.98959 4.48959C7.58365 2.89553 9.74566 2 12 2C14.2543 2 16.4163 2.89553 18.0104 4.48959C19.6045 6.08365 20.5 8.24566 20.5 10.5C20.5 14.4378 18.4326 17.4879 16.4654 19.502C15.4755 20.5155 14.4885 21.2908 13.7489 21.8133C13.3782 22.0751 13.0675 22.275 12.8466 22.4111C12.7361 22.4791 12.6478 22.5313 12.5856 22.5674C12.5545 22.5854 12.5299 22.5994 12.5122 22.6094L12.4909 22.6213L12.4843 22.6249L12.4811 22.6267C12.4807 22.6269 12.4804 22.6271 12 21.75ZM12 21.75L12.4811 22.6267C12.1818 22.7906 11.8182 22.7906 11.5189 22.6267L12 21.75Z" fill="black"/>
</svg>
