<svg width="24" height="24" viewBox="0 0 24 24" fill="none" xmlns="http://www.w3.org/2000/svg">
<path fill-rule="evenodd" clip-rule="evenodd" d="M21.8839 11.1161C22.372 11.6043 22.372 12.3957 21.8839 12.8839L17.3839 17.3839C16.8957 17.872 16.1043 17.872 15.6161 17.3839C15.128 16.8957 15.128 16.1043 15.6161 15.6161L17.9822 13.25L7.5 13.25C6.80964 13.25 6.25 12.6904 6.25 12C6.25 11.3096 6.80964 10.75 7.5 10.75L17.9822 10.75L15.6161 8.38388C15.128 7.89573 15.128 7.10427 15.6161 6.61612C16.1043 6.12796 16.8957 6.12796 17.3839 6.61612L21.8839 11.1161ZM8.75 3C8.75 3.69036 8.19036 4.25 7.5 4.25L5.25 4.25C4.98478 4.25 4.73043 4.35536 4.54289 4.54289C4.35536 4.73043 4.25 4.98478 4.25 5.25L4.25 18.75C4.25 19.0152 4.35536 19.2696 4.54289 19.4571C4.73043 19.6446 4.98478 19.75 5.25 19.75L7.5 19.75C8.19036 19.75 8.75 20.3096 8.75 21C8.75 21.6904 8.19036 22.25 7.5 22.25L5.25 22.25C4.32174 22.25 3.4315 21.8812 2.77512 21.2249C2.11875 20.5685 1.75 19.6783 1.75 18.75L1.75 5.25C1.75 4.32174 2.11875 3.4315 2.77513 2.77513C3.4315 2.11875 4.32174 1.75 5.25 1.75L7.5 1.75C8.19036 1.75 8.75 2.30964 8.75 3Z" fill="black"/>
</svg>
