<?xml version="1.0" encoding="utf-8"?>
<!-- Generator: Adobe Illustrator 27.9.5, SVG Export Plug-In . SVG Version: 9.03 Build 54986)  -->
<svg version="1.1" id="Layer_1" xmlns="http://www.w3.org/2000/svg" xmlns:xlink="http://www.w3.org/1999/xlink" x="0px" y="0px"
	 viewBox="0 0 22 19" style="enable-background:new 0 0 22 19;" xml:space="preserve">
<path d="M18.5,18.2h-15c-0.9,0-1.8-0.4-2.5-1c-0.7-0.7-1-1.5-1-2.5V4.2c0-0.9,0.4-1.8,1-2.5c0.7-0.7,1.5-1,2.5-1h15
	c0.9,0,1.8,0.4,2.5,1c0.7,0.7,1,1.5,1,2.5v10.5c0,0.9-0.4,1.8-1,2.5C20.3,17.9,19.4,18.2,18.5,18.2z M2.5,8v6.8
	c0,0.3,0.1,0.5,0.3,0.7c0.2,0.2,0.4,0.3,0.7,0.3h15c0.3,0,0.5-0.1,0.7-0.3c0.2-0.2,0.3-0.4,0.3-0.7V8l-6.7,4.1
	c-1.1,0.7-2.6,0.7-3.7,0L2.5,8z M2.5,4.5c0,0.2,0,0.3,0.1,0.5C2.7,5.1,2.8,5.2,3,5.3l7.5,4.6c0.3,0.2,0.7,0.2,1,0L19,5.3
	c0.1-0.1,0.3-0.2,0.3-0.4c0.1-0.1,0.1-0.3,0.1-0.5V4.2c0-0.3-0.1-0.5-0.3-0.7c-0.2-0.2-0.4-0.3-0.7-0.3h-15C3.2,3.2,3,3.3,2.8,3.5
	C2.6,3.7,2.5,4,2.5,4.2V4.5z"/>
</svg>
