<svg width="24" height="24" viewBox="0 0 24 24" fill="none" xmlns="http://www.w3.org/2000/svg">
<path fill-rule="evenodd" clip-rule="evenodd" d="M11.75 4.6641V19.3357L7.45711 15.0428C7.26957 14.8552 7.01522 14.7499 6.75 14.7499H4.51C3.97971 14.7499 3.62576 14.4538 3.53604 14.1301C3.3455 13.4364 3.24929 12.7203 3.25 12.0009C3.25 11.2614 3.34972 10.5467 3.53607 9.86956C3.62565 9.54557 3.97898 9.24989 4.51 9.24989H6.75C7.01522 9.24989 7.26957 9.14453 7.45711 8.957L11.75 4.6641ZM11.659 2.34409C11.9983 2.27669 12.3499 2.31135 12.6695 2.44367C12.9891 2.576 13.2623 2.80006 13.4546 3.08757C13.6469 3.37507 13.7497 3.71311 13.75 4.05901V19.9399C13.7497 20.2858 13.6469 20.6247 13.4546 20.9122C13.2623 21.1997 12.9891 21.4238 12.6695 21.5561C12.3499 21.6884 11.9983 21.7231 11.659 21.6557C11.3198 21.5883 11.0081 21.4219 10.7633 21.1774L6.33579 16.7499H4.51C3.28059 16.7499 1.98663 16.0323 1.60811 14.6622L1.60775 14.6609C1.36949 13.7938 1.24916 12.8986 1.25 11.9994C1.25005 11.0792 1.3743 10.1871 1.60786 9.33853C1.98642 7.96665 3.28121 7.24989 4.51 7.24989H6.33579L10.7629 2.82278C11.0076 2.57835 11.3198 2.41149 11.659 2.34409ZM16.5429 9.04278C16.9334 8.65226 17.5666 8.65226 17.9571 9.04278L19.5 10.5857L21.0429 9.04278C21.4334 8.65226 22.0666 8.65226 22.4571 9.04278C22.8476 9.43331 22.8476 10.0665 22.4571 10.457L20.9142 11.9999L22.4571 13.5428C22.8476 13.9333 22.8476 14.5665 22.4571 14.957C22.0666 15.3475 21.4334 15.3475 21.0429 14.957L19.5 13.4141L17.9571 14.957C17.5666 15.3475 16.9334 15.3475 16.5429 14.957C16.1524 14.5665 16.1524 13.9333 16.5429 13.5428L18.0858 11.9999L16.5429 10.457C16.1524 10.0665 16.1524 9.43331 16.5429 9.04278Z" fill="white"/>
</svg>
