<svg width="24" height="24" viewBox="0 0 24 24" fill="none" xmlns="http://www.w3.org/2000/svg">
<path fill-rule="evenodd" clip-rule="evenodd" d="M4.92895 4.92895C6.80432 3.05357 9.34788 2 12.0001 2C14.6522 2 17.1958 3.05357 19.0712 4.92895C20.9465 6.80432 22.0001 9.34788 22.0001 12.0001C22.0001 14.6522 20.9465 17.1958 19.0712 19.0712C17.1958 20.9465 14.6522 22.0001 12.0001 22.0001C9.34788 22.0001 6.80432 20.9465 4.92895 19.0712C3.05357 17.1958 2 14.6522 2 12.0001C2 9.34788 3.05357 6.80432 4.92895 4.92895ZM7.09461 5.6804L18.3197 16.9055C19.4031 15.5098 20.0001 13.7857 20.0001 12.0001C20.0001 9.87831 19.1572 7.84346 17.6569 6.34316C16.1566 4.84286 14.1218 4 12.0001 4C10.2144 4 8.49033 4.59698 7.09461 5.6804ZM16.9055 18.3197L5.6804 7.09461C4.59698 8.49033 4 10.2144 4 12.0001C4 14.1218 4.84286 16.1566 6.34316 17.6569C7.84346 19.1572 9.87831 20.0001 12.0001 20.0001C13.7857 20.0001 15.5098 19.4031 16.9055 18.3197Z" fill="black"/>
</svg>
