<?xml version="1.0" encoding="utf-8"?>
<!-- Generator: Adobe Illustrator 27.9.5, SVG Export Plug-In . SVG Version: 9.03 Build 54986)  -->
<svg version="1.1" id="Layer_1" xmlns="http://www.w3.org/2000/svg" xmlns:xlink="http://www.w3.org/1999/xlink" x="0px" y="0px"
	 viewBox="0 0 24 25" style="enable-background:new 0 0 24 25;" xml:space="preserve">
<path d="M12,23.1c-0.7,0-1.3-0.2-1.9-0.5c-0.6-0.3-1.1-0.7-1.5-1.3c-0.4-0.5-0.7-1.2-0.8-1.8c0-0.2,0-0.4-0.1-0.5
	c-1.5-0.3-3-0.7-4.5-1.2c-0.4-0.1-0.7-0.5-0.8-0.9c-0.1-0.4,0-0.8,0.3-1.1c1.3-1.4,2-3.3,2-5.2V9.8c0-1.9,0.8-3.8,2.1-5.1
	c1.4-1.4,3.2-2.1,5.1-2.1c1.9,0,3.8,0.8,5.1,2.1c1.4,1.4,2.1,3.2,2.1,5.1v0.8c0,1.9,0.7,3.8,2,5.2c0.3,0.3,0.4,0.7,0.3,1.1
	c-0.1,0.4-0.4,0.7-0.8,0.9c-1.5,0.5-3,0.9-4.5,1.2c0,0.2,0,0.4-0.1,0.5c-0.1,0.7-0.4,1.3-0.8,1.8c-0.4,0.5-0.9,1-1.5,1.3
	C13.3,22.9,12.7,23.1,12,23.1z M10.3,19.3c0.1,0.2,0.2,0.4,0.3,0.6c0.2,0.2,0.4,0.4,0.6,0.5c0.5,0.2,1.1,0.2,1.6,0
	c0.2-0.1,0.5-0.3,0.6-0.5c0.1-0.2,0.2-0.4,0.3-0.6C12.6,19.3,11.4,19.3,10.3,19.3z M9.3,16.7c1.8,0.2,3.6,0.2,5.4,0c0,0,0,0,0,0
	c1.2-0.1,2.4-0.4,3.5-0.7c-1-1.6-1.5-3.5-1.5-5.4V9.8c0-1.3-0.5-2.5-1.4-3.4c-0.9-0.9-2.1-1.4-3.4-1.4c-1.3,0-2.5,0.5-3.4,1.4
	C7.7,7.4,7.2,8.6,7.2,9.8v0.8c0,1.9-0.5,3.8-1.5,5.4C6.9,16.3,8.1,16.5,9.3,16.7C9.3,16.7,9.3,16.7,9.3,16.7z"/>
</svg>
