<svg width="24" height="24" viewBox="0 0 24 24" fill="none" xmlns="http://www.w3.org/2000/svg">
<path fill-rule="evenodd" clip-rule="evenodd" d="M12 3.5C11.3369 3.5 10.7011 3.76339 10.2322 4.23223C9.76337 4.70107 9.49998 5.33696 9.49998 6C9.49998 6.66304 9.76337 7.29893 10.2322 7.76777C10.7011 8.23661 11.3369 8.5 12 8.5C12.663 8.5 13.2989 8.23661 13.7677 7.76777C14.2366 7.29893 14.5 6.66304 14.5 6C14.5 5.33696 14.2366 4.70107 13.7677 4.23223C13.2989 3.76339 12.663 3.5 12 3.5ZM8.46444 2.46447C9.40213 1.52678 10.6739 1 12 1C13.3261 1 14.5978 1.52678 15.5355 2.46447C16.4732 3.40215 17 4.67392 17 6C17 7.32608 16.4732 8.59785 15.5355 9.53553C14.5978 10.4732 13.3261 11 12 11C10.6739 11 9.40213 10.4732 8.46444 9.53553C7.52676 8.59785 6.99998 7.32608 6.99998 6C6.99998 4.67392 7.52676 3.40215 8.46444 2.46447ZM12 13.9905C10.3601 13.9905 8.78583 14.635 7.61679 15.7851C6.64361 16.7425 6.01614 17.9864 5.81776 19.3223C7.72922 20.0821 9.81461 20.5 12 20.5L12.0017 20.5C14.1205 20.5029 16.2178 20.1021 18.1821 19.322C17.9837 17.9862 17.3563 16.7425 16.3832 15.7851C15.2141 14.635 13.6399 13.9905 12 13.9905ZM5.86352 14.003C7.50016 12.3928 9.70408 11.4905 12 11.4905C14.2959 11.4905 16.4998 12.3928 18.1364 14.003C19.7731 15.6131 20.7113 17.802 20.7488 20.0976C20.7569 20.5936 20.4709 21.0475 20.02 21.2542C17.5037 22.4081 14.7674 23.0036 11.9991 23C9.1399 22.9999 6.4226 22.3755 3.97949 21.254C3.52881 21.0471 3.24305 20.5934 3.25114 20.0976C3.28863 17.802 4.22687 15.6131 5.86352 14.003ZM11.9991 23C11.9988 23 11.9986 23 11.9983 23L12 21.75V23C11.9997 23 11.9994 23 11.9991 23Z" fill="black"/>
</svg>
