<svg width="24" height="24" viewBox="0 0 24 24" fill="none" xmlns="http://www.w3.org/2000/svg">
<path fill-rule="evenodd" clip-rule="evenodd" d="M4.875 4.75C4.80628 4.75 4.75 4.80628 4.75 4.875V9.375C4.75 9.40815 4.76317 9.43995 4.78661 9.46339C4.81005 9.48683 4.84185 9.5 4.875 9.5H9.375C9.44372 9.5 9.5 9.44372 9.5 9.375V4.875C9.5 4.80628 9.44372 4.75 9.375 4.75H4.875ZM2.75 4.875C2.75 3.70172 3.70172 2.75 4.875 2.75H9.375C10.5483 2.75 11.5 3.70172 11.5 4.875V9.375C11.5 10.5483 10.5483 11.5 9.375 11.5H4.875C4.31141 11.5 3.77091 11.2761 3.3724 10.8776C2.97388 10.4791 2.75 9.93859 2.75 9.375V4.875ZM14.625 4.75C14.5563 4.75 14.5 4.80628 14.5 4.875V9.375C14.5 9.40815 14.5132 9.43995 14.5366 9.46339C14.5601 9.48683 14.5918 9.5 14.625 9.5H19.125C19.1937 9.5 19.25 9.44372 19.25 9.375V4.875C19.25 4.80628 19.1937 4.75 19.125 4.75H14.625ZM12.5 4.875C12.5 3.70172 13.4517 2.75 14.625 2.75H19.125C20.2983 2.75 21.25 3.70172 21.25 4.875V9.375C21.25 10.5483 20.2983 11.5 19.125 11.5H14.625C14.0614 11.5 13.5209 11.2761 13.1224 10.8776C12.7239 10.4791 12.5 9.93859 12.5 9.375V4.875ZM4.875 14.5C4.80628 14.5 4.75 14.5563 4.75 14.625V19.125C4.75 19.1582 4.76317 19.1899 4.78661 19.2134C4.81005 19.2368 4.84185 19.25 4.875 19.25H9.375C9.44372 19.25 9.5 19.1937 9.5 19.125V14.625C9.5 14.5563 9.44372 14.5 9.375 14.5H4.875ZM2.75 14.625C2.75 13.4517 3.70172 12.5 4.875 12.5H9.375C10.5483 12.5 11.5 13.4517 11.5 14.625V19.125C11.5 20.2983 10.5483 21.25 9.375 21.25H4.875C4.31142 21.25 3.77091 21.0261 3.3724 20.6276C2.97388 20.2291 2.75 19.6886 2.75 19.125V14.625Z" fill="black"/>
<path fill-rule="evenodd" clip-rule="evenodd" d="M5.75 6.75C5.75 6.19772 6.19772 5.75 6.75 5.75H7.5C8.05228 5.75 8.5 6.19772 8.5 6.75V7.5C8.5 8.05228 8.05228 8.5 7.5 8.5H6.75C6.19772 8.5 5.75 8.05228 5.75 7.5V6.75ZM15.5 6.75C15.5 6.19772 15.9477 5.75 16.5 5.75H17.25C17.8023 5.75 18.25 6.19772 18.25 6.75V7.5C18.25 8.05228 17.8023 8.5 17.25 8.5H16.5C15.9477 8.5 15.5 8.05228 15.5 7.5V6.75ZM12.5 13.5C12.5 12.9477 12.9477 12.5 13.5 12.5H14.25C14.8023 12.5 15.25 12.9477 15.25 13.5V14.25C15.25 14.8023 14.8023 15.25 14.25 15.25H13.5C12.9477 15.25 12.5 14.8023 12.5 14.25V13.5ZM18.5 13.5C18.5 12.9477 18.9477 12.5 19.5 12.5H20.25C20.8023 12.5 21.25 12.9477 21.25 13.5V14.25C21.25 14.8023 20.8023 15.25 20.25 15.25H19.5C18.9477 15.25 18.5 14.8023 18.5 14.25V13.5ZM5.75 16.5C5.75 15.9477 6.19772 15.5 6.75 15.5H7.5C8.05228 15.5 8.5 15.9477 8.5 16.5V17.25C8.5 17.8023 8.05228 18.25 7.5 18.25H6.75C6.19772 18.25 5.75 17.8023 5.75 17.25V16.5ZM15.5 16.5C15.5 15.9477 15.9477 15.5 16.5 15.5H17.25C17.8023 15.5 18.25 15.9477 18.25 16.5V17.25C18.25 17.8023 17.8023 18.25 17.25 18.25H16.5C15.9477 18.25 15.5 17.8023 15.5 17.25V16.5ZM12.5 19.5C12.5 18.9477 12.9477 18.5 13.5 18.5H14.25C14.8023 18.5 15.25 18.9477 15.25 19.5V20.25C15.25 20.8023 14.8023 21.25 14.25 21.25H13.5C12.9477 21.25 12.5 20.8023 12.5 20.25V19.5ZM18.5 19.5C18.5 18.9477 18.9477 18.5 19.5 18.5H20.25C20.8023 18.5 21.25 18.9477 21.25 19.5V20.25C21.25 20.8023 20.8023 21.25 20.25 21.25H19.5C18.9477 21.25 18.5 20.8023 18.5 20.25V19.5Z" fill="black"/>
</svg>
