<svg width="24" height="24" viewBox="0 0 24 24" fill="none" xmlns="http://www.w3.org/2000/svg">
<path fill-rule="evenodd" clip-rule="evenodd" d="M4.31192 4.31192C5.95292 2.67093 8.17859 1.74902 10.4993 1.74902C12.82 1.74902 15.0457 2.67093 16.6867 4.31192C18.3277 5.95292 19.2496 8.17859 19.2496 10.4993C19.2496 12.3993 18.6317 14.2355 17.5071 15.7394L21.8837 20.1159C22.3718 20.6041 22.3718 21.3955 21.8837 21.8837C21.3955 22.3718 20.6041 22.3718 20.1159 21.8837L15.7394 17.5071C14.2355 18.6317 12.3993 19.2496 10.4993 19.2496C8.17859 19.2496 5.95292 18.3277 4.31192 16.6867C2.67093 15.0457 1.74902 12.82 1.74902 10.4993C1.74902 8.17859 2.67093 5.95292 4.31192 4.31192ZM10.4993 4.24902C8.84163 4.24902 7.25184 4.90753 6.07969 6.07969C4.90753 7.25184 4.24902 8.84163 4.24902 10.4993C4.24902 12.157 4.90753 13.7468 6.07969 14.9189C7.25184 16.0911 8.84163 16.7496 10.4993 16.7496C12.157 16.7496 13.7468 16.0911 14.9189 14.9189C16.0911 13.7468 16.7496 12.157 16.7496 10.4993C16.7496 8.84163 16.0911 7.25184 14.9189 6.07969C13.7468 4.90753 12.157 4.24902 10.4993 4.24902Z" fill="black"/>
</svg>
