<?xml version="1.0" encoding="utf-8"?>
<!-- Generator: Adobe Illustrator 27.9.5, SVG Export Plug-In . SVG Version: 9.03 Build 54986)  -->
<svg version="1.1" id="Layer_1" xmlns="http://www.w3.org/2000/svg" xmlns:xlink="http://www.w3.org/1999/xlink" x="0px" y="0px"
	 viewBox="0 0 24 24" style="enable-background:new 0 0 24 24;" xml:space="preserve">
<path d="M13.3,22.2h-2.6c-1.2,0-2.1-0.8-2.3-2L8.1,19C8,19,8,18.9,7.9,18.9l-1.2,0.4c-0.5,0.2-1.1,0.2-1.6,0c-0.5-0.2-1-0.6-1.3-1
	L2.5,16c-0.3-0.5-0.4-1.1-0.3-1.6C2.3,13.8,2.6,13.3,3,13l1-0.8c0-0.1,0-0.2,0-0.3L3,11c-0.4-0.4-0.7-0.9-0.8-1.4
	C2.1,9.1,2.2,8.5,2.5,8l1.3-2.2c0.3-0.5,0.7-0.9,1.3-1c0.5-0.2,1.1-0.2,1.6,0l1.2,0.5L8.1,5l0.2-1.3c0.2-1.1,1.2-2,2.3-2h2.6
	c1.2,0,2.2,0.8,2.3,2L15.9,5C16,5,16,5.1,16.1,5.1l1.2-0.4c0.5-0.2,1.1-0.2,1.6,0c0.5,0.2,1,0.6,1.3,1L21.5,8
	c0.3,0.5,0.4,1.1,0.3,1.6c-0.1,0.5-0.4,1-0.8,1.4l-1,0.8c0,0.1,0,0.2,0,0.3l1,0.8c0.9,0.7,1.1,2,0.5,3l-1.3,2.2
	c-0.3,0.5-0.7,0.9-1.3,1s-1.1,0.2-1.6,0l-1.2-0.5C16,18.9,16,19,15.9,19l-0.2,1.3C15.5,21.4,14.5,22.2,13.3,22.2z M10.8,19.8h2.4
	l0.2-1.2c0.1-0.7,0.6-1.4,1.3-1.8l0.2-0.1c0.7-0.4,1.5-0.5,2.2-0.2l1.1,0.4l1.2-2.1l-0.9-0.8c-0.6-0.5-0.9-1.2-0.9-2v-0.2
	c0-0.8,0.3-1.5,0.9-2l0.9-0.8l-1.2-2.1L17,7.5c-0.7,0.3-1.5,0.2-2.2-0.2l-0.2-0.1c-0.7-0.4-1.2-1-1.3-1.8l-0.2-1.2h-2.4l-0.2,1.2
	C10.5,6.2,10,6.8,9.3,7.2L9.2,7.3C8.5,7.7,7.7,7.8,7,7.5L5.9,7.1L4.7,9.2l0.9,0.8c0.6,0.5,0.9,1.2,0.9,2v0.2c0,0.8-0.3,1.5-0.9,2
	l-0.9,0.8l1.2,2.1L7,16.5c0.7-0.3,1.5-0.2,2.2,0.2l0.2,0.1c0.7,0.4,1.2,1,1.3,1.8L10.8,19.8z M18.1,7L18.1,7L18.1,7z M10.8,4.1
	C10.8,4.1,10.8,4.1,10.8,4.1C10.8,4.1,10.8,4.1,10.8,4.1z M9.6,3.9L9.6,3.9L9.6,3.9z"/>
<path d="M12,16.2c-1.1,0-2.2-0.4-3-1.2c-0.8-0.8-1.2-1.9-1.2-3S8.2,9.8,9,9c0.8-0.8,1.9-1.2,3-1.2s2.2,0.4,3,1.2
	c0.8,0.8,1.2,1.9,1.2,3s-0.4,2.2-1.2,3S13.1,16.2,12,16.2z M12,10.2c-0.5,0-0.9,0.2-1.2,0.5c-0.3,0.3-0.5,0.8-0.5,1.2
	s0.2,0.9,0.5,1.2c0.7,0.7,1.8,0.7,2.5,0c0.3-0.3,0.5-0.8,0.5-1.2s-0.2-0.9-0.5-1.2C12.9,10.4,12.5,10.2,12,10.2z"/>
</svg>
