<svg width="24" height="24" viewBox="0 0 24 24" fill="none" xmlns="http://www.w3.org/2000/svg">
<path fill-rule="evenodd" clip-rule="evenodd" d="M17.1918 1.69659C17.936 1.28318 18.8126 1.17823 19.6333 1.40432C20.454 1.63041 21.1533 2.16948 21.5807 2.90566C21.7976 3.27923 21.9379 3.6923 21.9933 4.12072C22.0487 4.54914 22.0182 4.9843 21.9034 5.40077C21.7887 5.81724 21.5921 6.20666 21.3251 6.54626C21.0581 6.88586 20.7261 7.16883 20.3485 7.37862C19.9709 7.58841 19.5552 7.72081 19.1258 7.76808C18.6964 7.81536 18.2619 7.77656 17.8477 7.65395C17.4335 7.53134 17.0479 7.32738 16.7134 7.054C16.6466 6.99941 16.5821 6.94227 16.5201 6.88274L8.43903 11.3718C8.47896 11.5751 8.49993 11.785 8.49993 11.9998C8.49993 12.2143 8.479 12.4243 8.43908 12.6278L16.5322 17.1236C16.9049 16.7756 17.3579 16.5169 17.8573 16.3742C18.6863 16.1373 19.5754 16.2395 20.3291 16.6581C21.0827 17.0768 21.6392 17.7777 21.876 18.6067C22.1129 19.4357 22.0108 20.3248 21.5921 21.0784C21.3848 21.4516 21.106 21.7803 20.7717 22.0457C20.4373 22.3111 20.054 22.5081 19.6435 22.6254C19.2331 22.7427 18.8035 22.778 18.3794 22.7293C17.9553 22.6805 17.545 22.5488 17.1718 22.3415C16.7986 22.1342 16.4699 21.8554 16.2045 21.521C15.9391 21.1867 15.7421 20.8034 15.6248 20.3929C15.5075 19.9824 15.4722 19.5529 15.521 19.1288C15.5309 19.0425 15.5442 18.9568 15.5609 18.8719L7.46754 14.3759C7.19474 14.6305 6.87829 14.8379 6.53068 14.9869C5.86893 15.2706 5.13172 15.3265 4.43477 15.1458C3.73782 14.9652 3.12058 14.5582 2.67995 13.9888C2.23932 13.4194 2.00024 12.7198 2.00024 11.9998C2.00024 11.2798 2.23932 10.5802 2.67995 10.0108C3.12058 9.44139 3.73782 9.03442 4.43477 8.85377C5.13172 8.67311 5.86893 8.729 6.53068 9.01266C6.87829 9.16166 7.19474 9.36908 7.46754 9.62364L15.5729 5.12102C15.4823 4.62412 15.5078 4.10829 15.6538 3.61516C15.8954 2.79889 16.4477 2.11001 17.1918 1.69659ZM6.34277 11.3924C6.20825 11.1505 5.99719 10.96 5.74272 10.8509C5.4882 10.7418 5.20466 10.7203 4.9366 10.7898C4.66854 10.8593 4.43114 11.0158 4.26167 11.2348C4.0922 11.4538 4.00024 11.7229 4.00024 11.9998C4.00024 12.2767 4.0922 12.5458 4.26167 12.7648C4.43114 12.9838 4.66854 13.1403 4.9366 13.2098C5.20466 13.2793 5.4882 13.2578 5.74272 13.1487C5.99724 13.0396 6.20833 12.8491 6.34285 12.607L6.34341 12.606C6.44266 12.4279 6.49993 12.222 6.49993 11.9998C6.49993 11.7784 6.44302 11.5729 6.34285 11.3926M19.1021 3.3325C18.7865 3.24554 18.4493 3.2859 18.1631 3.44491C17.8769 3.60391 17.6645 3.86887 17.5716 4.18282C17.4786 4.49677 17.5126 4.83465 17.6661 5.12382C17.7441 5.27057 17.8505 5.4003 17.9791 5.50545C18.1077 5.6106 18.2561 5.68904 18.4154 5.7362C18.5747 5.78336 18.7418 5.79828 18.907 5.7801C19.0721 5.76191 19.232 5.71099 19.3772 5.6303C19.5224 5.54961 19.6501 5.44078 19.7528 5.31016C19.8555 5.17955 19.9311 5.02977 19.9753 4.86959C20.0194 4.70941 20.0311 4.54204 20.0098 4.37726C19.9885 4.21249 19.9346 4.05362 19.8511 3.90993C19.6867 3.62679 19.4178 3.41945 19.1021 3.3325ZM19.3578 18.4065C19.0678 18.2454 18.7258 18.2061 18.4068 18.2972C18.0879 18.3883 17.8182 18.6024 17.6571 18.8924C17.5773 19.036 17.5266 19.1939 17.5079 19.3571C17.4891 19.5202 17.5027 19.6855 17.5478 19.8434C17.593 20.0013 17.6688 20.1488 17.7709 20.2775C17.873 20.4061 17.9995 20.5134 18.1431 20.5931C18.2866 20.6729 18.4445 20.7236 18.6077 20.7423C18.7709 20.7611 18.9361 20.7475 19.0941 20.7024C19.252 20.6573 19.3995 20.5815 19.5281 20.4793C19.6567 20.3772 19.764 20.2507 19.8438 20.1072C20.0048 19.8172 20.0441 19.4751 19.953 19.1562C19.8619 18.8372 19.6478 18.5675 19.3578 18.4065Z" fill="black"/>
</svg>
