<?xml version="1.0" encoding="utf-8"?>
<!-- Generator: Adobe Illustrator 27.9.5, SVG Export Plug-In . SVG Version: 9.03 Build 54986)  -->
<svg version="1.1" id="Layer_1" xmlns="http://www.w3.org/2000/svg" xmlns:xlink="http://www.w3.org/1999/xlink" x="0px" y="0px"
	 viewBox="0 0 24 24" style="enable-background:new 0 0 24 24;" xml:space="preserve">
<style type="text/css">
	.st0{fill:#D94830;}
</style>
<path class="st0" d="M15.9,22.8H8.1c-0.8,0-1.6-0.3-2.2-0.9c-0.6-0.6-1-1.3-1-2.1l-1-12.8C3.3,7,2.9,6.6,2.8,6.1
	C2.7,5.6,3,5.1,3.6,5c0.3-0.1,0.7-0.1,1-0.2c0,0,0,0,0,0c0.9-0.1,1.7-0.2,2.6-0.3c0-1.7,1.3-3.1,3.1-3.2c1.1,0,2.3,0,3.4,0
	c1.7,0.1,3.1,1.5,3.1,3.2c0.9,0.1,1.8,0.2,2.6,0.3c0,0,0,0,0,0c0.3,0.1,0.7,0.1,1,0.2c0.5,0.1,0.9,0.6,0.8,1.2
	C21.1,6.7,20.7,7,20.1,7l-1,12.8c-0.1,0.8-0.4,1.6-1,2.1S16.7,22.8,15.9,22.8z M5.8,6.6l1,12.9c0,0.3,0.2,0.6,0.4,0.8
	c0.2,0.2,0.5,0.3,0.8,0.3h7.8c0.3,0,0.6-0.1,0.9-0.3c0.2-0.2,0.4-0.5,0.4-0.8l1-12.9c-0.8-0.1-1.7-0.2-2.5-0.3c0,0,0,0,0,0
	c-2.4-0.2-4.9-0.2-7.3,0c0,0,0,0,0,0C7.5,6.5,6.7,6.5,5.8,6.6z M12,4.2c0.9,0,1.8,0,2.7,0.1c-0.1-0.6-0.5-1-1.1-1
	c-1.1,0-2.2,0-3.3,0c-0.6,0-1,0.5-1.1,1C10.2,4.3,11.1,4.2,12,4.2z M14.4,19C14.4,19,14.4,19,14.4,19c-0.6,0-1-0.5-1-1l0.3-9
	c0-0.6,0.5-1,1-1c0.6,0,1,0.5,1,1l-0.3,9C15.4,18.6,14.9,19,14.4,19z M9.6,19c-0.5,0-1-0.4-1-1L8.3,9c0-0.6,0.4-1,1-1
	c0.6,0,1,0.4,1,1l0.3,9C10.6,18.5,10.2,19,9.6,19C9.6,19,9.6,19,9.6,19z"/>
</svg>
