<svg width="24" height="24" viewBox="0 0 24 24" fill="none" xmlns="http://www.w3.org/2000/svg">
<path fill-rule="evenodd" clip-rule="evenodd" d="M10.375 3.75C9.67881 3.75 9.01113 4.02656 8.51884 4.51884C8.02656 5.01113 7.75 5.67881 7.75 6.375C7.75 6.71972 7.8179 7.06106 7.94982 7.37954C8.08173 7.69802 8.27509 7.9874 8.51884 8.23115C8.7626 8.47491 9.05198 8.66827 9.37046 8.80018C9.68894 8.9321 10.0303 9 10.375 9C10.7197 9 11.0611 8.9321 11.3795 8.80018C11.698 8.66827 11.9874 8.47491 12.2312 8.23115C12.4749 7.9874 12.6683 7.69802 12.8002 7.37954C12.9321 7.06106 13 6.71972 13 6.375C13 5.67881 12.7234 5.01113 12.2312 4.51884C11.7389 4.02656 11.0712 3.75 10.375 3.75ZM7.45818 3.45818C8.23177 2.6846 9.28098 2.25 10.375 2.25C11.469 2.25 12.5182 2.6846 13.2918 3.45818C14.0654 4.23177 14.5 5.28098 14.5 6.375C14.5 6.9167 14.3933 7.4531 14.186 7.95357C13.9787 8.45404 13.6749 8.90877 13.2918 9.29182C12.9088 9.67486 12.454 9.9787 11.9536 10.186C11.4531 10.3933 10.9167 10.5 10.375 10.5C9.8333 10.5 9.2969 10.3933 8.79643 10.186C8.29596 9.9787 7.84123 9.67486 7.45818 9.29182C7.07514 8.90877 6.7713 8.45404 6.564 7.95357C6.3567 7.4531 6.25 6.9167 6.25 6.375C6.25 5.28098 6.6846 4.23177 7.45818 3.45818ZM15.25 10.5C15.25 10.0858 15.5858 9.75 16 9.75H22C22.4142 9.75 22.75 10.0858 22.75 10.5C22.75 10.9142 22.4142 11.25 22 11.25H16C15.5858 11.25 15.25 10.9142 15.25 10.5ZM10.375 13.5C8.88316 13.5 7.45242 14.0926 6.39752 15.1475C5.41801 16.127 4.83705 17.4306 4.75903 18.8063C6.42329 19.7261 8.33679 20.25 10.374 20.25L10.3753 20.25C12.3417 20.2533 14.2741 19.7553 15.991 18.8063C15.913 17.4306 15.332 16.1271 14.3525 15.1475C13.2976 14.0926 11.8668 13.5 10.375 13.5ZM3.64795 19.8974C3.41118 19.7713 3.25 19.522 3.25 19.235V19.125C3.25 17.2353 4.00067 15.4231 5.33686 14.0869C6.67306 12.7507 8.48533 12 10.375 12C12.2647 12 14.0769 12.7507 15.4131 14.0869C16.7493 15.4231 17.5 17.2353 17.5 19.125V19.234C17.5 19.497 17.3622 19.7408 17.1369 19.8765C15.0956 21.1059 12.757 21.7538 10.374 21.75M3.64795 19.8974C5.61557 21.0737 7.91756 21.7499 10.374 21.75Z" fill="black"/>
</svg>
