<?xml version="1.0" encoding="utf-8"?>
<!-- Generator: Adobe Illustrator 27.9.5, SVG Export Plug-In . SVG Version: 9.03 Build 54986)  -->
<svg version="1.1" id="Layer_1" xmlns="http://www.w3.org/2000/svg" xmlns:xlink="http://www.w3.org/1999/xlink" x="0px" y="0px"
	 viewBox="0 0 32 32" style="enable-background:new 0 0 32 32;" xml:space="preserve">
<path d="M9,27c-1.7,0-3.3-0.6-4.5-1.7c-1.3-1.1-2.1-2.6-2.4-4.2c-0.3-1.6,0.1-3.3,0.9-4.8c0.7-1.2,1.8-2.1,3-2.7
	c-0.2-1.8,0.3-3.6,1.3-5.1c1.1-1.8,2.9-3,4.9-3.4c2-0.5,4.1-0.1,5.9,1c1.5,0.9,2.7,2.3,3.3,3.9c0.6-0.1,1.2,0,1.8,0.1
	c0.9,0.2,1.7,0.7,2.4,1.4c0.7,0.7,1.1,1.5,1.3,2.4c0.1,0.6,0.2,1.2,0.1,1.9c0.9,0.5,1.7,1.3,2.3,2.3c0.7,1.2,0.9,2.6,0.7,4
	c-0.3,1.4-1,2.6-2.1,3.5C26.8,26.5,25.4,27,24,27H9C9,27,9,27,9,27z M14,7c-0.4,0-0.9,0-1.3,0.2C11.1,7.5,9.8,8.4,9,9.7
	s-1.2,2.9-0.9,4.4c0.1,0.5-0.2,1-0.7,1.1c-1.1,0.4-2.1,1.1-2.7,2.1c-0.6,1-0.9,2.2-0.7,3.4c0.2,1.2,0.8,2.2,1.7,3
	C6.7,24.6,7.8,25,9,25c0,0,0,0,0,0h15c0.9,0,1.8-0.3,2.6-0.9c0.7-0.6,1.2-1.4,1.4-2.4c0.2-0.9,0-1.9-0.4-2.7s-1.2-1.4-2.1-1.8
	c-0.5-0.2-0.8-0.8-0.6-1.3c0.2-0.5,0.2-1.1,0.1-1.6c-0.1-0.5-0.4-1-0.8-1.4c-0.4-0.4-0.9-0.7-1.4-0.8c-0.5-0.1-1.1-0.1-1.6,0.1
	c-0.3,0.1-0.5,0.1-0.8-0.1c-0.2-0.1-0.4-0.4-0.5-0.6c-0.4-1.5-1.4-2.8-2.7-3.6C16.2,7.3,15.1,7,14,7z M16,23c-0.6,0-1-0.4-1-1v-6.6
	l-2.3,2.3c-0.4,0.4-1,0.4-1.4,0s-0.4-1,0-1.4l4-4c0.1-0.1,0.2-0.2,0.3-0.2c0.1,0,0.2-0.1,0.4-0.1l0,0c0,0,0,0,0,0l0,0l0,0
	c0,0,0,0,0,0l0,0c0.1,0,0.3,0,0.4,0.1c0.1,0,0.2,0.1,0.3,0.2c0,0,0,0,0,0c0,0,0,0,0,0c0,0,0,0,0,0c0,0,0,0,0,0l0,0c0,0,0,0,0,0
	c0,0,0,0,0,0l0,0c0,0,0,0,0,0c0,0,0,0,0,0l0,0c0,0,0,0,0,0l4,4c0.4,0.4,0.4,1,0,1.4s-1,0.4-1.4,0L17,15.5V22C17,22.6,16.6,23,16,23z
	"/>
</svg>
