<svg width="24" height="24" viewBox="0 0 24 24" fill="none" xmlns="http://www.w3.org/2000/svg">
<path fill-rule="evenodd" clip-rule="evenodd" d="M2.2019 5.2019C2.8114 4.59241 3.63805 4.25 4.5 4.25H13.5C14.362 4.25 15.1886 4.59241 15.7981 5.2019C16.4076 5.8114 16.75 6.63805 16.75 7.5V8.08579L19.7629 5.07289C20.0076 4.82846 20.3198 4.6616 20.659 4.5942C20.9983 4.5268 21.3499 4.56146 21.6695 4.69378C21.9891 4.82611 22.2623 5.05018 22.4546 5.33768C22.6469 5.62518 22.7497 5.96323 22.75 6.30912V17.69C22.7497 18.0359 22.6469 18.3748 22.4546 18.6623C22.2623 18.9498 21.9891 19.1739 21.6695 19.3062C21.3499 19.4385 20.9983 19.4732 20.659 19.4058C20.3198 19.3384 20.0081 19.172 19.7633 18.9275L16.75 15.9142V16.5C16.75 17.362 16.4076 18.1886 15.7981 18.7981C15.1886 19.4076 14.362 19.75 13.5 19.75H4.5C3.63805 19.75 2.8114 19.4076 2.2019 18.7981C1.59241 18.1886 1.25 17.362 1.25 16.5V7.5C1.25 6.63805 1.59241 5.8114 2.2019 5.2019ZM14.75 13.5007C14.75 13.5002 14.75 13.4998 14.75 13.4993V10.5007C14.75 10.5002 14.75 10.4998 14.75 10.4993V7.5C14.75 7.16848 14.6183 6.85054 14.3839 6.61612C14.1495 6.3817 13.8315 6.25 13.5 6.25H4.5C4.16848 6.25 3.85054 6.3817 3.61612 6.61612C3.3817 6.85054 3.25 7.16848 3.25 7.5V16.5C3.25 16.8315 3.3817 17.1495 3.61612 17.3839C3.85054 17.6183 4.16848 17.75 4.5 17.75H13.5C13.8315 17.75 14.1495 17.6183 14.3839 17.3839C14.6183 17.1495 14.75 16.8315 14.75 16.5V13.5007ZM16.75 10.9142V13.0858L20.75 17.0858V6.91421L16.75 10.9142Z" fill="black"/>
</svg>
